<?xml version="1.0" encoding="UTF-8"?>
<!-- Generator: Adobe Illustrator 25.2.3, SVG Export Plug-In . SVG Version: 6.00 Build 0)  -->
<svg xmlns="http://www.w3.org/2000/svg" xmlns:xlink="http://www.w3.org/1999/xlink" version="1.1" id="Capa_1" x="0px" y="0px" viewBox="0 0 512 512" style="enable-background:new 0 0 512 512;" xml:space="preserve" width="512" height="512">
<g>
	<g>
		<g>
			<g>
				<g>
					<path style="fill-rule:evenodd;clip-rule:evenodd;fill:#FF5000;" d="M464.531,128.32       c-33.982-20.879-65.915-46.812-95.317-74.044c-3.925-3.632-10.244-7.697-8.554-15.012c5.452-3.162,13.655,3.74,18.447,7.003       c15.028,10.258,25.383,19.701,40.462,31.524c13.224,10.374,26.836,20.579,40.009,32.518c4.83,4.376,10.035,9.274,11.247,13.01       c0.369,1.152,0.9,5.762,0.9,6.499c0.005,6.295-3.258,11.456-5.399,17.014c-12.229,31.788-25.59,60.429-40.011,90.554       c-1.028,2.144-2.36,5.022-3.601,7.502c-1.368,2.749-3.32,5.229-3.594,7.008c-0.418,2.679,0.43,6.821,0.449,10.511       c0.034,7.236,1.825,115.639-3.707,116.923c-10.894,2.523-5.733-90.4-5.733-96.971c0-17.254,2.014-40.755,6.741-52.473       C430.734,195.507,450.233,162.278,464.531,128.32z"/>
				</g>
			</g>
			<g style="opacity:0.21;">
				<g>
					<path style="fill-rule:evenodd;clip-rule:evenodd;" d="M464.531,128.32c-33.982-20.879-65.915-46.812-95.317-74.044       c-3.925-3.632-10.244-7.697-8.554-15.012c5.452-3.162,13.655,3.74,18.447,7.003c15.028,10.258,25.383,19.701,40.462,31.524       c13.224,10.374,26.836,20.579,40.009,32.518c4.83,4.376,10.035,9.274,11.247,13.01c0.369,1.152,0.9,5.762,0.9,6.499       c0.005,6.295-3.258,11.456-5.399,17.014c-12.229,31.788-25.59,60.429-40.011,90.554c-1.028,2.144-2.36,5.022-3.601,7.502       c-1.368,2.749-3.32,5.229-3.594,7.008c-0.418,2.679,0.43,6.821,0.449,10.511c0.034,7.236,1.825,115.639-3.707,116.923       c-10.894,2.523-5.733-90.4-5.733-96.971c0-17.254,2.014-40.755,6.741-52.473C430.734,195.507,450.233,162.278,464.531,128.32z"/>
				</g>
			</g>
			<g>
				<path style="fill-rule:evenodd;clip-rule:evenodd;fill:#FF5000;" d="M479.145,130.259c0,7.697-5.613,13.948-12.534,13.948      c-6.914,0-12.527-6.251-12.527-13.948c0-7.697,5.613-13.946,12.527-13.946C473.532,116.314,479.145,122.563,479.145,130.259z"/>
				<path style="fill-rule:evenodd;clip-rule:evenodd;fill:#FFFFFF;" d="M472.584,130.259c0,3.676-2.67,6.643-5.973,6.643      c-3.294,0-5.966-2.967-5.966-6.643c0-3.668,2.672-6.643,5.966-6.643C469.914,123.617,472.584,126.591,472.584,130.259z"/>
			</g>
			<path style="fill-rule:evenodd;clip-rule:evenodd;fill:#4D3D87;" d="M386.526,0.106c10.268-0.814,19.508,3.188,25.683,8.146     c5.983,4.806,11.168,11.363,11.97,19.736c1.383,14.594-5.38,25.532-6.484,39.255c-2.454,30.437,11.651,48.843,27.668,65.207     c12.107,12.359,24.307,24.348,23.191,47.189c-0.334,6.773-2.18,13.252-4.24,18.666c-8.559,22.497-24.653,37.951-33.406,60.7     c-1.501,3.894-4.869,80.819-5.584,88.475c-0.238,2.554-0.37,6.931-0.497,10.729c-0.108,3.503,0.034,7.639-3.987,7.723     c-4.718,0.091-3.894-4.648-3.738-7.723c0.331-6.528,2.18-82.081,3.335-87.978c3.116-15.936,11.523-30.098,19.191-42.546     c6.036-9.766,12.678-19.751,16.957-30.451c4.48-11.192,5.978-26.389,0.506-38.184c-4.689-10.095-13.646-18.322-21.446-26.6     c-15.146-16.061-29.152-36.719-25.433-67.353c0.773-6.352,2.367-12.751,3.992-19.089c1.52-5.951,3.433-13.266,1.748-20.164     c-1.846-7.5-8.285-13.37-15.463-16.733c-6.736-3.155-16.383-3.423-23.683,0.43c-2.089,1.1-3.867,2.903-5.74,4.504     c-2.137,1.836-5.248,3.481-7.226,1.503c-2.041-2.034,0.581-4.252,2.24-5.793C371.436,4.794,377.039,0.855,386.526,0.106z"/>
		</g>
		<path style="fill-rule:evenodd;clip-rule:evenodd;fill:#FF5000;" d="M482.962,386.952c-0.646-4.806-0.958-11.61-3.757-14.918    c-5.08-6.014-14.256-3.147-21.46-6.571c-4.057-1.935-5.942-10.054-11.267-12.532c-2.951-1.381-6.053-0.941-9.118-1.2    c-3.75-0.324-7.73-0.478-11.831-0.56c0-0.014,0-0.026,0.005-0.041c-0.648,0.005-1.315,0-1.976,0    c-3.476-0.043-7.037-0.038-10.628-0.022c-3.584-0.017-7.142-0.021-10.619,0.022c-0.658,0-1.32,0.005-1.971,0    c0.005,0.014,0.005,0.027,0.005,0.041c-4.11,0.082-8.088,0.235-11.831,0.56c-3.063,0.259-6.175-0.18-9.123,1.2    c-5.327,2.478-7.207,10.597-11.267,12.532c-7.205,3.423-16.383,0.557-21.465,6.571c-2.799,3.308-3.106,10.112-3.75,14.918    C367.335,387.574,458.537,387.574,482.962,386.952z"/>
		<g>
			<g>
				<g>
					<path style="fill-rule:evenodd;clip-rule:evenodd;fill:#FF5000;" d="M346.583,139.073       c-30.297-16.827-57.44-36.938-82.353-59.32c-8.242-7.404-16.299-15.058-23.496-23.499       c16.604-14.08,35.776-26.766,63.281-29.316c30.813-2.85,50.521,14.541,56.996,37.454c3.633,12.88,2.552,29.083-0.701,41.646       C357.043,118.657,352.429,129.208,346.583,139.073z"/>
					<path style="opacity:0.21;" d="M361.011,64.393c-4.821-17.062-16.995-31.066-35.622-35.92       c8.772,6.813,14.805,16.414,17.871,27.265c3.637,12.875,2.557,29.083-0.696,41.641c-3.126,12.059-7.495,22.224-12.974,31.714       c5.551,3.44,11.216,6.772,16.992,9.98c5.846-9.865,10.46-20.416,13.728-33.034C363.563,93.475,364.644,77.273,361.011,64.393z"/>
				</g>
				<g>
					<path style="fill-rule:evenodd;clip-rule:evenodd;fill:#8F7ECE;" d="M346.583,139.073c-1.344,2.089-6.554-1.678-9.07-3.025       c-17.717-9.449-33.277-22.274-48.622-34.196c-13.288-10.323-26.067-21.23-38.618-32.571c-1.957-1.767-4.074-3.822-6.047-5.814       c-1.853-1.868-4.883-5.491-3.491-7.212c0.941-1.162,5.426,1.82,8.374,3.723c7.041,4.545,14.947,9.024,21.403,13.728       c9.358,6.809,18.003,13.989,26.286,20.702c13.31,10.779,25.837,20.867,38.618,31.868c2,1.726,4.269,3.512,6.285,5.356       C343.52,133.297,347.939,136.97,346.583,139.073z"/>
					<path style="fill:#EFAD1B;" d="M296.796,94.407c-5.479-4.439-11.13-9.089-17.031-13.699c-3.644,1.817-7.121,3.748-9.692,5.877       c-0.924,0.766-1.733,1.556-2.391,2.374c-8.374,10.494-6.669,25.786,3.822,34.17c10.491,8.381,25.793,6.674,34.177-3.817       c0.682-0.862,1.299-1.87,1.856-2.998c1.445-2.924,2.487-6.621,3.387-10.453C306.284,102.082,301.593,98.294,296.796,94.407z"/>
				</g>
				<g>
					<g>
						<path style="fill-rule:evenodd;clip-rule:evenodd;fill:#FFFFFF;" d="M296.592,37.084c-2.473-3.556,8.621-5.226,7.332-1.167        C303.252,38.04,298.587,37.773,296.592,37.084z"/>
						<path style="fill-rule:evenodd;clip-rule:evenodd;fill:#FFFFFF;" d="M289.728,33.93c0.893,0.216,2.598,1.135,2.029,2.893        c-0.735,2.293-5.461,3.334-7.257,4.108c-2.182,0.931-5.867,3.678-7.999,2.06c-3.039-2.307,3.085-5.5,5.234-6.508        c1.147-0.535,2.317-0.951,3.311-1.359C286.742,34.427,288.014,33.517,289.728,33.93z"/>
					</g>
					<g>
						<path style="fill-rule:evenodd;clip-rule:evenodd;fill:#FFFFFF;" d="M335.88,116.57c-0.283-2.645,1.632-6.698,3.755-10.563        c0.905-1.659,2.425-4.314,3.995-3.668c1.889,0.773,0.648,4.064,0.202,5.236c-1.421,3.721-3.887,7.93-5.853,9.781        C337.381,117.552,336.353,117.125,335.88,116.57z"/>
						<path style="fill-rule:evenodd;clip-rule:evenodd;fill:#FFFFFF;" d="M338.797,100.085c-4.201-0.845-0.838-9.593,2.317-7.958        c1.368,0.713,1.325,5.55-0.166,7.332C340.413,100.087,339.527,100.231,338.797,100.085z"/>
						<path style="fill-rule:evenodd;clip-rule:evenodd;fill:#FFFFFF;" d="M347.603,84.074c-1.51-0.144-2.17-2.249-2.009-4.449        c0.13-1.769,1.181-5.092,3.056-4.307c0.838,0.346,1.592,1.957,1.501,3.788C350.057,81.253,349.565,84.254,347.603,84.074z"/>
					</g>
				</g>
			</g>
			<g>
				<path style="fill-rule:evenodd;clip-rule:evenodd;fill:#FF5000;" d="M373.803,22.286c-1.215-7.229-12.693-12.81-20.469-12.097      c-7.356,0.677-12.102,4.833-16.985,9.541c-2.979,2.867-6.232,5.987-9.075,9.072c-0.18,0.194-0.336,0.363-0.492,0.514      c2.922,0.564,4.883,2.444,5.867,4.785c2.686,2.261,5.164,4.859,7.541,7.193c4.196,4.096,7.579,8.875,11.406,13.298      c0.643,0.747,1.133,1.527,1.491,2.317c1.829-0.401,3.767-3.459,5.366-5.541c2.009-2.622,3.563-4.677,4.883-6.511      c3.354-4.677,6.463-8.551,8.84-13.725C373.106,29.097,374.381,25.724,373.803,22.286z M338.675,31.827      c-1.236,1.258-2.936,3.087-5.121,2.326c-0.838-1.712,0.852-3.513,2.098-5.116c2.629-3.404,8.256-9.713,11.86-11.173      c0.706-0.281,1.421-0.19,2.094,0.468c-0.118,1.993-1.705,3.69-3.023,5.116C343.928,26.324,341.541,28.898,338.675,31.827z       M341.7,40.897c-1.126-2.204,1.275-4.381,2.789-6.278c3.985-4.996,10.597-11.286,15.125-14.889      c0.653-0.526,1.992-0.257,2.557,0.463c-0.283,2.648-2.331,4.653-3.954,6.516c-3.272,3.769-6.981,6.715-10.705,10.237      C345.86,38.51,344.336,41.178,341.7,40.897z M357.984,41.129c-0.979,1.056-2.192,2.223-3.253,3.256      c-1.118,1.092-2.312,2.379-3.961,2.559c-1.419-2.069,1.234-4.612,2.79-6.511c2.506-3.042,4.761-5.949,7.915-8.143      c0.9-0.201,0.823,0.572,1.397,0.696C362.049,36.218,359.979,38.967,357.984,41.129z"/>
				<path style="opacity:0.21;fill-rule:evenodd;clip-rule:evenodd;" d="M373.803,22.286c-1.215-7.229-12.693-12.81-20.469-12.097      c-7.356,0.677-12.102,4.833-16.985,9.541c-2.979,2.867-6.232,5.987-9.075,9.072c-0.18,0.194-0.336,0.363-0.492,0.514      c2.922,0.564,4.883,2.444,5.867,4.785c2.686,2.261,5.164,4.859,7.541,7.193c4.196,4.096,7.579,8.875,11.406,13.298      c0.643,0.747,1.133,1.527,1.491,2.317c1.829-0.401,3.767-3.459,5.366-5.541c2.009-2.622,3.563-4.677,4.883-6.511      c3.354-4.677,6.463-8.551,8.84-13.725C373.106,29.097,374.381,25.724,373.803,22.286z M338.675,31.827      c-1.236,1.258-2.936,3.087-5.121,2.326c-0.838-1.712,0.852-3.513,2.098-5.116c2.629-3.404,8.256-9.713,11.86-11.173      c0.706-0.281,1.421-0.19,2.094,0.468c-0.118,1.993-1.705,3.69-3.023,5.116C343.928,26.324,341.541,28.898,338.675,31.827z       M341.7,40.897c-1.126-2.204,1.275-4.381,2.789-6.278c3.985-4.996,10.597-11.286,15.125-14.889      c0.653-0.526,1.992-0.257,2.557,0.463c-0.283,2.648-2.331,4.653-3.954,6.516c-3.272,3.769-6.981,6.715-10.705,10.237      C345.86,38.51,344.336,41.178,341.7,40.897z M357.984,41.129c-0.979,1.056-2.192,2.223-3.253,3.256      c-1.118,1.092-2.312,2.379-3.961,2.559c-1.419-2.069,1.234-4.612,2.79-6.511c2.506-3.042,4.761-5.949,7.915-8.143      c0.9-0.201,0.823,0.572,1.397,0.696C362.049,36.218,359.979,38.967,357.984,41.129z"/>
			</g>
		</g>
	</g>
	<g>
		<g>
			<path style="fill-rule:evenodd;clip-rule:evenodd;fill:#8F7ECE;" d="M92.291,170.827c0.783,0.031,1.654-0.867,1.918,1.923     c0.247,2.583-1.174,5.997-1.647,8.501c-0.852,4.537-2.094,10.717-2.194,11.247c-1.637,8.873-2.775,16.287-3.841,23.045     c-2.708,17.151-4.499,32.266-6.302,47.455c-2.89,24.272-3.875,49.016-4.941,75.712c-0.355,8.818-0.019,18.618-2.742,24.137     c-1.313,2.658-4.405,6.103-7.135,6.859c-2.953,0.819-8.038-0.01-10.698-0.548c-2.501-0.506-6.153-1.383-8.777-1.925     c-5.541-1.128-13.982-2.475-16.188-7.949c-1.328-3.296-0.521-9.387,0.274-13.989c2.216-12.818,6.688-26.37,9.877-37.308     c4.684-16.075,9.581-31.491,14.539-48.281c4.931-16.697,9.454-33.598,14.537-48.55c2.358-6.933,5.121-14.978,8.506-23.047     c2.725-6.499,7.502-14.796,13.992-17.283C91.653,170.755,92.09,170.822,92.291,170.827z"/>
			<g>
				<g>
					<g>
						<path style="fill-rule:evenodd;clip-rule:evenodd;fill:#FFFFFF;" d="M174.31,161.229c14.265-0.682,31.303-0.591,46.085,0        c14.853,0.595,29.484,0.341,44.716,1.368c13.754,0.929,27.877,2.382,42.243,3.844c13.43,1.364,28.526,3.109,37.307,8.501        c6.314,3.877,8.969,9.118,10.974,17.283c5.044,20.572,6.009,54.843,7.406,76.809c0.559,8.842,0.953,18.044,1.368,26.881        c0.423,8.878,1.373,17.775,1.373,26.607c-0.005,17.83,2.502,38.369-3.57,51.299c-1.767,3.765-4.084,6.494-9.051,8.23        c-8.369,2.924-21.797,0.965-32.369,0c-32.736-2.984-68.949-3.351-103.141-1.1c-23.076,1.525-44.471,1.575-67.759,3.57        c-10.069,0.859-22.07,2.072-33.466,2.194c-19.148,0.199-37.269-1.095-42.243-14.815c-2.245-6.192-3.054-15.197-3.567-23.866        c-1.51-25.527-0.317-55.685,0.826-79.825c1.481-31.392,2.122-60.897,9.874-86.136c1.592-5.178,3.661-10.654,8.227-13.439        c4.292-2.612,11.055-3.887,18.382-4.667c13.807-1.462,29.176-1.736,43.617-2.192        C159.003,161.541,166.549,161.594,174.31,161.229z"/>
						<path style="fill-rule:evenodd;clip-rule:evenodd;fill:#8F7ECE;" d="M174.31,161.229c14.265-0.682,31.303-0.591,46.085,0        c14.853,0.595,29.484,0.341,44.716,1.368c13.754,0.929,27.877,2.382,42.243,3.844c13.43,1.364,28.526,3.109,37.307,8.501        c6.314,3.877,8.969,9.118,10.974,17.283c5.044,20.572,6.009,54.843,7.406,76.809c0.559,8.842,0.953,18.044,1.368,26.881        c0.423,8.878,1.373,17.775,1.373,26.607c-0.005,17.83,2.502,38.369-3.57,51.299c-1.767,3.765-4.084,6.494-9.051,8.23        c-8.369,2.924-21.797,0.965-32.369,0c-32.736-2.984-68.949-3.351-103.141-1.1c-23.076,1.525-44.471,1.575-67.759,3.57        c-10.069,0.859-22.07,2.072-33.466,2.194c-19.148,0.199-37.269-1.095-42.243-14.815c-2.245-6.192-3.054-15.197-3.567-23.866        c-1.51-25.527-0.317-55.685,0.826-79.825c1.481-31.392,2.122-60.897,9.874-86.136c1.592-5.178,3.661-10.654,8.227-13.439        c4.292-2.612,11.055-3.887,18.382-4.667c13.807-1.462,29.176-1.736,43.617-2.192        C159.003,161.541,166.549,161.594,174.31,161.229z"/>
						<path style="opacity:0.57;fill-rule:evenodd;clip-rule:evenodd;fill:#FFFFFF;" d="M174.31,161.229        c14.265-0.682,31.303-0.591,46.085,0c14.853,0.595,29.484,0.341,44.716,1.368c13.754,0.929,27.877,2.382,42.243,3.844        c13.43,1.364,28.526,3.109,37.307,8.501c6.314,3.877,8.969,9.118,10.974,17.283c5.044,20.572,6.009,54.843,7.406,76.809        c0.559,8.842,0.953,18.044,1.368,26.881c0.423,8.878,1.373,17.775,1.373,26.607c-0.005,17.83,2.502,38.369-3.57,51.299        c-1.767,3.765-4.084,6.494-9.051,8.23c-8.369,2.924-21.797,0.965-32.369,0c-32.736-2.984-68.949-3.351-103.141-1.1        c-23.076,1.525-44.471,1.575-67.759,3.57c-10.069,0.859-22.07,2.072-33.466,2.194c-19.148,0.199-37.269-1.095-42.243-14.815        c-2.245-6.192-3.054-15.197-3.567-23.866c-1.51-25.527-0.317-55.685,0.826-79.825c1.481-31.392,2.122-60.897,9.874-86.136        c1.592-5.178,3.661-10.654,8.227-13.439c4.292-2.612,11.055-3.887,18.382-4.667c13.807-1.462,29.176-1.736,43.617-2.192        C159.003,161.541,166.549,161.594,174.31,161.229z"/>
						<g style="opacity:0.78;">
							<path style="fill-rule:evenodd;clip-rule:evenodd;fill:#FFFFFF;" d="M303.242,196.614c0.641,7.678,0.881,15.756,0.819,24.142         c-7.44,0.418-15.117,0.607-22.766,0.824c0.331-8.652-0.867-17.242-0.276-25.239         C288.403,196.453,296.285,196.071,303.242,196.614z"/>
							<path style="fill-rule:evenodd;clip-rule:evenodd;fill:#B1BC00;" d="M273.336,196.614c0.033,8.475-0.147,17.156,0.276,25.237         c-9.241,0.271-18.767,0.255-27.702,0.826c0.18-8.415,0.379-16.81,0.269-25.513         C255.355,197.094,263.983,196.496,273.336,196.614z"/>
							<path style="fill-rule:evenodd;clip-rule:evenodd;fill:#FFFFFF;" d="M310.37,197.437c15.643-0.012,25.69,7.956,27.707,22.493         c-8.731,0.144-17.264,0.48-26.058,0.552C311.787,212.483,311.431,204.608,310.37,197.437z"/>
							<path style="fill-rule:evenodd;clip-rule:evenodd;fill:#FFFFFF;" d="M238.773,197.437         c-0.276,8.504-0.423,17.132-0.821,25.513c-11.315,0.298-22.327,0.896-33.466,1.368c0.062-8.448,0.667-17.468,0-25.784         C215.766,198.028,227.328,197.788,238.773,197.437z"/>
							<path style="fill-rule:evenodd;clip-rule:evenodd;fill:#FFFFFF;" d="M197.079,198.808c0.41,8.004-0.617,16.935-0.276,25.789         c-8.962,0.639-18.325,0.874-27.428,1.371c0-8.868,0-17.742,0-26.61C178.421,199.173,188.672,198.724,197.079,198.808z"/>
							<path style="fill-rule:evenodd;clip-rule:evenodd;fill:#FFFFFF;" d="M127.679,199.632         c-0.471,9.132-0.271,18.935-0.821,27.983c-10.667-0.053-21.165,0.048-31.277,0.545c1.258-8.316,2.396-16.808,6.861-22.219         C107.572,199.723,116.618,199.968,127.679,199.632z"/>
							<path style="fill-rule:evenodd;clip-rule:evenodd;fill:#FFFFFF;" d="M161.968,199.632c-0.077,8.979-0.744,17.36-0.55,26.607         c-8.767,0.471-17.657,0.816-26.612,1.097c0.497-9.281-0.115-18.858,0.279-27.704         C145.007,199.723,151.885,199.646,161.968,199.632z"/>
							<path style="fill-rule:evenodd;clip-rule:evenodd;fill:#FFFFFF;" d="M342.739,249.56         c-10.374,0.046-21.021-0.175-30.996,0.271c-0.202-7.423,0.442-14.008,0.276-21.395c8.477-0.977,18.522,0.105,25.784-0.547         c1.841-0.166,1.856-0.507,2.468,1.642C341.82,234.965,341.877,244.297,342.739,249.56z"/>
							<path style="fill-rule:evenodd;clip-rule:evenodd;fill:#FFFFFF;" d="M304.061,228.712         c-0.175,6.957,0.355,14.616-0.274,21.119c-7.279,0.401-14.966,0.396-22.492,0.552c0.18-6.952-0.365-14.625,0.274-21.127         C289.378,229.389,296.35,228.676,304.061,228.712z"/>
							<path style="fill-rule:evenodd;clip-rule:evenodd;fill:#FFFFFF;" d="M273.063,229.53c1.008,0.871,0.55,3.092,0.55,4.938         c0,4.919,0,10.745,0,15.914c-9.824-0.132-18.899,0.485-28.802,0.271c0.278-6.763,0.54-13.538,0.823-20.298         C254.625,229.924,264.139,230.03,273.063,229.53z"/>
							<path style="fill-rule:evenodd;clip-rule:evenodd;fill:#FFFFFF;" d="M237.678,230.628c0.161,7.111-0.646,13.255-0.55,20.301         c-11.041,0.482-22.445,0.598-33.193,1.375c-0.146-6.914,0.485-13.05,0.276-20.027         C215.034,231.393,226.642,231.295,237.678,230.628z"/>
							<path style="fill-rule:evenodd;clip-rule:evenodd;fill:#FF5000;" d="M196.529,232.548c-0.286,6.576-0.072,13.646-0.55,20.027         c-8.825,0.504-17.751,0.898-26.605,1.371c0-6.768,0-13.533,0-20.296C178.673,233.53,187.303,232.742,196.529,232.548z"/>
							<path style="fill-rule:evenodd;clip-rule:evenodd;fill:#FFFFFF;" d="M161.419,234.197c0,6.672,0,13.346,0,20.022         c-9.372,0.322-18.764,0.622-27.707,1.373c0.151-6.981,0.396-13.869,0.823-20.572         C143.867,235.117,152.202,234.216,161.419,234.197z"/>
							<path style="fill-rule:evenodd;clip-rule:evenodd;fill:#FFFFFF;" d="M94.755,235.292c10.695-0.142,21.395,0.752,31.824,0         c-0.139,6.991-0.451,13.816-0.826,20.577c-10.614,0.903-22.065,0.972-32.917,1.645         C93.946,250.573,93.026,241.606,94.755,235.292z"/>
							<path style="fill-rule:evenodd;clip-rule:evenodd;fill:#FFFFFF;" d="M343.289,257.242c1.135,7.178,1.178,15.463,1.642,23.314         c-11.159,0.632-22.706,0.881-33.735,1.647c-0.159-8.386,0.482-15.977,0.274-24.413         C321.757,257.285,332.471,257.208,343.289,257.242z"/>
							<path style="fill-rule:evenodd;clip-rule:evenodd;fill:#FF5000;" d="M303.787,257.789         c-0.115,8.201-0.418,16.224-0.274,24.687c-7.38,0.487-14.858,0.867-22.495,1.097c-0.173-8.767,0.233-16.961,0.276-25.513         C289.09,258.27,296.119,257.71,303.787,257.789z"/>
							<path style="fill-rule:evenodd;clip-rule:evenodd;fill:#FFFFFF;" d="M273.336,258.061c-0.178,8.6,0.365,17.922-0.274,26.063         c-10.054,0.089-19.47,0.823-29.351,1.092c0.096-9.048,0.432-17.857,0.826-26.603         C253.814,258.104,264.13,258.642,273.336,258.061z"/>
							<path style="fill-rule:evenodd;clip-rule:evenodd;fill:#FFFFFF;" d="M236.578,258.884c-0.024,9.027-0.742,17.362-0.55,26.61         c-10.333,0.725-21.431,0.692-31.817,1.369c-0.641-8.415-0.096-18.008-0.276-26.881         C214.782,259.585,225.365,258.918,236.578,258.884z"/>
							<path style="fill-rule:evenodd;clip-rule:evenodd;fill:#FFFFFF;" d="M195.711,260.253c0.499,8.645,0.235,18.056,0.548,26.888         c-9.022,0.209-17.746,0.725-26.612,1.097c-0.632-8.326-0.094-17.83-0.271-26.61         C178.303,261.321,187.164,260.951,195.711,260.253z"/>
							<path style="fill-rule:evenodd;clip-rule:evenodd;fill:#FFFFFF;" d="M160.595,261.902c1.477,0.065,0.79,2.101,0.824,2.744         c0.351,7.443,0.043,16.294,0.274,23.864c-9.603,0.367-19.091,0.845-29.08,0.826c-0.219-9,0.488-17.069,0.55-25.786         C141.701,262.389,151.652,262.653,160.595,261.902z"/>
							<path style="fill-rule:evenodd;clip-rule:evenodd;fill:#FFFFFF;" d="M125.479,263.823c-0.459,8.405-0.54,17.194-0.819,25.784         c-10.803,0.447-22.473,0.026-32.921,0.823c-0.053-8.741,0.202-17.172,0.552-25.51         C103.594,264.792,114.633,264.403,125.479,263.823z"/>
							<path style="fill-rule:evenodd;clip-rule:evenodd;fill:#FFFFFF;" d="M345.21,288.509c0.665,9.303,0.55,19.383,0.545,29.349         c-11.334,0-22.677,0-34.011,0c-0.274-9.233-0.687-18.33-0.547-27.976C322.599,289.491,333.573,288.67,345.21,288.509z"/>
							<path style="fill-rule:evenodd;clip-rule:evenodd;fill:#FFFFFF;" d="M303.242,290.43c0.531,8.883,0.067,18.762,0.819,27.429         c-7.406,0-14.815,0-22.216,0c-0.341-8.71-0.691-17.413-0.826-26.329C288.266,291.006,295.721,290.684,303.242,290.43z"/>
							<path style="fill-rule:evenodd;clip-rule:evenodd;fill:#FFFFFF;" d="M273.336,291.803c-0.055,9.017,0.3,17.621,0.826,26.055         c-10.213-0.058-19.818,0.482-30.175,0.281c-0.31-7.93-0.559-17.357,0-25.241C254.003,292.773,263.457,292.07,273.336,291.803         z"/>
							<path style="fill-rule:evenodd;clip-rule:evenodd;fill:#B1BC00;" d="M235.76,293.45c-0.18,8.501,0.468,16.169,0.269,24.689         c-10.273-0.154-20.445-0.401-30.993-0.281c-0.077-7.97-0.526-15.567-0.824-23.311         C214.801,294.252,225.146,293.719,235.76,293.45z"/>
							<path style="fill-rule:evenodd;clip-rule:evenodd;fill:#FFFFFF;" d="M196.529,294.819c0.118,7.838,0.569,15.348,0.824,23.04         c-8.744,0.492-18.082,0.391-26.61,1.104c-0.149-7.805-0.936-14.978-0.824-23.047         C178.929,295.692,187.678,295.205,196.529,294.819z"/>
							<path style="fill-rule:evenodd;clip-rule:evenodd;fill:#FFFFFF;" d="M161.692,296.194c0.982,7.152,0.682,15.586,1.371,23.035         c-10.028,0.492-20.385,0.65-30.451,1.102c-0.223-7.548-0.36-15.182-0.269-23.045         C142.061,296.864,152.267,296.914,161.692,296.194z"/>
							<path style="fill-rule:evenodd;clip-rule:evenodd;fill:#FFFFFF;" d="M124.661,297.562c0,7.685,0,15.362,0,23.04         c-11.449,0.259-22.588,0.821-33.466,1.649c-0.636-7.863-0.091-16.906,0.545-24.416         C102.192,297.227,113.757,297.726,124.661,297.562z"/>
							<path style="fill-rule:evenodd;clip-rule:evenodd;fill:#FFFFFF;" d="M236.305,325.822c0.055,9.361,0.341,18.491,0.824,27.426         c-9.867,0.377-20.073,0.411-29.899,0.826c-0.778-9.101-1.38-18.371-1.644-27.986c0.199-0.254,0.497-0.415,0.819-0.545         C215.99,326.014,226.315,325.752,236.305,325.822z"/>
							<path style="fill-rule:evenodd;clip-rule:evenodd;fill:#FFFFFF;" d="M304.337,325.822c0.228,8.367,0.146,17.043,0.545,25.234         c-6.972,0.067-13.898,0.185-20.57,0.545c-0.691-8.355-1.479-16.625-1.921-25.234c-0.012-0.468,0.202-0.713,0.547-0.824         C289.985,325.723,297.747,325.181,304.337,325.822z"/>
							<path style="fill-rule:evenodd;clip-rule:evenodd;fill:#FFFFFF;" d="M197.626,325.822c0.495,9.565,1.157,18.959,1.644,28.523         c-8.842,0.211-17.364,0.742-25.784,1.371c-0.924-9.497-1.664-19.18-2.192-29.076         C180.019,326.319,188.516,325.757,197.626,325.822z"/>
							<path style="fill-rule:evenodd;clip-rule:evenodd;fill:#FFFFFF;" d="M274.436,325.822c0.788,8.628,1.186,17.645,2.194,26.058         c-10.871,0.098-20.906,1.037-31.819,1.097c-0.245-8.806-0.814-18.757-0.55-27.155         C254.318,325.822,264.377,325.822,274.436,325.822z"/>
							<path style="fill-rule:evenodd;clip-rule:evenodd;fill:#FFFFFF;" d="M312.293,325.822c11.065,0,22.128,0,33.193,0         c-0.252,7.754-0.636,13.785-3.568,18.102c-5.162,7.574-17.007,6.335-29.349,6.857         C312.819,342.298,311.839,333.581,312.293,325.822z"/>
							<path style="fill-rule:evenodd;clip-rule:evenodd;fill:#FFFFFF;" d="M162.787,326.912c1.484,0.406,0.74,2.377,0.826,3.296         c0.732,8.028,1.325,17.444,1.916,25.786c-10.187,0.965-20.786,1.515-31.544,1.921c-0.936-9.488-0.994-19.864-1.373-29.899         C142.758,327.733,153.045,327.589,162.787,326.912z"/>
							<path style="fill-rule:evenodd;clip-rule:evenodd;fill:#FFFFFF;" d="M124.934,328.287         c0.005,10.326,0.641,20.025,1.095,29.899c-9.766-1.032-18.519-1.709-24.411-6.307c-6.201-4.842-8.89-12.609-10.15-22.495         C102.893,329.293,113.874,328.75,124.934,328.287z"/>
						</g>
					</g>
					<g>
						<path style="fill-rule:evenodd;clip-rule:evenodd;fill:#8F7ECE;" d="M101.832,209.904c-7.253,0.024,0.979-16.853,5.356-11.214        C109.471,201.629,104.67,207.811,101.832,209.904z"/>
					</g>
					<g>
						<path style="fill-rule:evenodd;clip-rule:evenodd;fill:#8F7ECE;" d="M345.022,230.25c-2.379-2.85-3.294-9.036-3.827-15.17        c-0.233-2.629-0.528-6.883,1.798-7.353c2.79-0.562,3.899,4.218,4.285,5.923c1.239,5.423,1.63,12.215,0.783,15.886        C347.522,230.227,345.992,230.536,345.022,230.25z"/>
						<path style="fill-rule:evenodd;clip-rule:evenodd;fill:#8F7ECE;" d="M335.633,208.855c-5.527,2.276-8.405-10.486-3.467-11.038        c2.141-0.228,5.836,5.421,5.486,8.64C337.513,207.607,336.596,208.454,335.633,208.855z"/>
					</g>
				</g>
				<g>
					<path style="fill-rule:evenodd;clip-rule:evenodd;fill:#4D3D87;" d="M106.71,183.527c-0.514-4.439,1.913-7.209,3.589-9.944       c1.952-3.176,4.473-7.435,3.589-13.533c-0.216-1.546-0.97-3.611-2.206-3.872c-3.097-0.653-4.105,3.716-4.698,6.907       c-0.605,3.294-0.312,8.381-3.035,8.29c-1.985-0.07-2.506-3.632-2.487-6.631c0.038-7.591,4.386-17.321,12.707-14.645       c4.897,1.58,8.175,10.739,7.733,18.788c-0.221,4.067-1.373,7.985-3.313,11.324C116.145,184.43,110.465,189.099,106.71,183.527z       "/>
					<path style="fill-rule:evenodd;clip-rule:evenodd;fill:#4D3D87;" d="M151.623,180.106c-1.292-3.495,1.08-7.025,2.482-10.22       c2.108-4.792,5.262-11.43,1.938-17.129c-2.538,0.398-3.227,2.636-4.144,4.696c-0.833,1.87-1.035,4.864-3.315,5.251       c-1.729-1.239,0.098-4.002,0.828-6.355c1.227-3.952,3.793-10.998,9.668-8.292c3.784,1.748,5.157,9.872,4.696,16.303       c-0.274,3.827-1.623,8.681-3.589,11.603C158.302,178.757,155.124,181.583,151.623,180.106z"/>
					<path style="fill-rule:evenodd;clip-rule:evenodd;fill:#4D3D87;" d="M133.663,153.033c-2.24,0.581-2.818,2.854-3.589,4.972       c-0.764,2.096-0.811,4.864-2.487,6.076c-2.298-0.394-1.525-5.008-1.109-7.181c0.886-4.578,5.457-12.397,11.605-8.009       c3.443,2.456,4.235,9.589,3.87,14.64c-0.374,5.21-2.326,11.406-4.974,14.64c-0.867,1.064-2.746,2.792-3.87,3.039       c-2.538,0.567-5.176-0.687-5.243-2.206c-0.127-2.744,2.98-5.817,4.146-8.292c1.774-3.784,3.359-8.078,3.31-12.707       C135.308,156.627,135.265,154.373,133.663,153.033z"/>
					<path style="fill-rule:evenodd;clip-rule:evenodd;fill:#4D3D87;" d="M175.103,177.955c-0.509-4.434,1.913-7.212,3.594-9.944       c1.952-3.181,4.468-7.435,3.589-13.533c-0.216-1.546-0.97-3.611-2.206-3.872c-3.097-0.653-4.11,3.716-4.698,6.907       c-0.605,3.292-0.312,8.381-3.04,8.29c-1.985-0.07-2.501-3.632-2.487-6.631c0.043-7.591,4.389-17.321,12.712-14.645       c4.898,1.58,8.17,10.739,7.733,18.788c-0.221,4.067-1.378,7.985-3.313,11.324C184.538,178.858,178.857,183.527,175.103,177.955       z"/>
					<path style="fill-rule:evenodd;clip-rule:evenodd;fill:#4D3D87;" d="M294.002,179.647c-0.511-4.441,1.909-7.209,3.592-9.946       c1.949-3.176,4.465-7.435,3.589-13.538c-0.218-1.539-0.972-3.601-2.206-3.865c-3.099-0.653-4.108,3.714-4.696,6.91       c-0.61,3.284-0.312,8.379-3.044,8.285c-1.98-0.067-2.502-3.63-2.482-6.628c0.038-7.591,4.386-17.324,12.707-14.647       c4.898,1.58,8.175,10.741,7.735,18.783c-0.223,4.072-1.373,7.992-3.315,11.332C303.437,180.543,297.757,185.22,294.002,179.647       z"/>
					<path style="fill-rule:evenodd;clip-rule:evenodd;fill:#4D3D87;" d="M245,178.327c-0.511-4.444,1.913-7.212,3.589-9.946       c1.952-3.178,4.468-7.433,3.591-13.533c-0.219-1.546-0.972-3.613-2.209-3.87c-3.097-0.653-4.11,3.714-4.698,6.907       c-0.605,3.289-0.307,8.376-3.034,8.287c-1.986-0.067-2.507-3.63-2.487-6.629c0.039-7.594,4.386-17.328,12.707-14.647       c4.898,1.582,8.17,10.741,7.735,18.791c-0.223,4.064-1.378,7.98-3.316,11.324C254.43,179.23,248.757,183.899,245,178.327z"/>
					<path style="fill-rule:evenodd;clip-rule:evenodd;fill:#4D3D87;" d="M220.683,178.783c-1.282-3.495,1.085-7.022,2.492-10.218       c2.103-4.792,5.257-11.435,1.937-17.132c-2.542,0.401-3.224,2.638-4.148,4.696c-0.833,1.873-1.033,4.864-3.316,5.251       c-1.729-1.239,0.099-4.002,0.828-6.352c1.232-3.954,3.789-10.993,9.673-8.287c3.779,1.741,5.157,9.867,4.693,16.299       c-0.276,3.827-1.62,8.681-3.591,11.6C227.367,177.434,224.188,180.262,220.683,178.783z"/>
					<path style="fill-rule:evenodd;clip-rule:evenodd;fill:#4D3D87;" d="M202.728,151.713c-2.24,0.578-2.821,2.852-3.589,4.972       c-0.763,2.103-0.811,4.862-2.487,6.074c-2.298-0.394-1.524-5.005-1.104-7.181c0.886-4.576,5.452-12.397,11.605-8.009       c3.443,2.456,4.23,9.589,3.865,14.64c-0.37,5.212-2.322,11.408-4.975,14.64c-0.867,1.063-2.742,2.792-3.865,3.044       c-2.542,0.564-5.181-0.689-5.248-2.214c-0.127-2.742,2.977-5.812,4.141-8.29c1.779-3.776,3.363-8.076,3.315-12.705       C204.372,155.307,204.329,153.055,202.728,151.713z"/>
					<path style="fill-rule:evenodd;clip-rule:evenodd;fill:#4D3D87;" d="M317.827,186.718c-1.289-3.491,1.078-7.022,2.485-10.22       c2.103-4.787,5.257-11.432,1.932-17.124c-2.533,0.396-3.227,2.631-4.144,4.693c-0.833,1.868-1.028,4.861-3.316,5.25       c-1.729-1.239,0.103-4.007,0.828-6.357c1.227-3.954,3.793-10.993,9.673-8.287c3.779,1.741,5.152,9.867,4.694,16.296       c-0.276,3.827-1.621,8.688-3.591,11.605C324.503,185.366,321.322,188.197,317.827,186.718z"/>
					<path style="fill-rule:evenodd;clip-rule:evenodd;fill:#4D3D87;" d="M273.135,150.642c-2.242,0.579-2.823,2.85-3.591,4.975       c-0.763,2.098-0.809,4.861-2.487,6.076c-2.295-0.394-1.524-5.008-1.107-7.181c0.886-4.578,5.457-12.402,11.608-8.011       c3.443,2.456,4.225,9.588,3.865,14.642c-0.374,5.212-2.319,11.406-4.972,14.64c-0.867,1.059-2.749,2.789-3.87,3.042       c-2.542,0.559-5.179-0.694-5.243-2.214c-0.127-2.739,2.975-5.812,4.144-8.29c1.776-3.781,3.359-8.076,3.311-12.705       C274.777,154.238,274.733,151.986,273.135,150.642z"/>
				</g>
			</g>
		</g>
		<g>
			<g>
				<g>
					<g>
						<path style="fill-rule:evenodd;clip-rule:evenodd;fill:#8F7ECE;" d="M447.798,413.355c-0.211,4.631-3.584,9.365-3.851,14.882        c-0.202,4.086,0.331,8.787,1.805,12.964c2.833,8.05,10.813,10.873,13.807,17.062c-31.753,14.155-67.099,26.137-103.062,39.195        c-10.424,3.779-28.177,10.443-38.033,6.82c-9.757-3.589-17.59-23.981-10.194-34.84c4.667-6.84,18.335-12.82,30.622-17.137        c23.15-8.112,51.498-15.629,72.98-24.293C424.876,422.768,436.664,417.715,447.798,413.355z"/>
						<path style="opacity:0.81;fill-rule:evenodd;clip-rule:evenodd;fill:#FFFFFF;" d="M447.798,413.355        c-0.211,4.631-3.584,9.365-3.851,14.882c-0.202,4.086,0.331,8.787,1.805,12.964c2.833,8.05,10.813,10.873,13.807,17.062        c-31.753,14.155-67.099,26.137-103.062,39.195c-10.424,3.779-28.177,10.443-38.033,6.82        c-9.757-3.589-17.59-23.981-10.194-34.84c4.667-6.84,18.335-12.82,30.622-17.137c23.15-8.112,51.498-15.629,72.98-24.293        C424.876,422.768,436.664,417.715,447.798,413.355z"/>
						<g>
							<path style="fill-rule:evenodd;clip-rule:evenodd;fill:#8F7ECE;" d="M421.541,439.797         c0.341,4.093-99.201,39.566-100.91,35.317c-1.205-2.948,24.363-10.506,49.227-19.043         C395.889,447.131,421.328,437.3,421.541,439.797z"/>
							<path style="fill-rule:evenodd;clip-rule:evenodd;fill:#8F7ECE;" d="M443.518,443.83         c0.341,4.081-99.201,39.557-100.93,35.308c-1.191-2.943,24.382-10.499,49.242-19.038         C417.875,451.152,443.304,441.324,443.518,443.83z"/>
						</g>
					</g>
					<g>
						<path style="fill-rule:evenodd;clip-rule:evenodd;fill:#4D3D87;" d="M316.893,467.982c-6.753,7.656-5.21,24.732,3.916,29.548        c40.071-12.866,81.176-27.817,123.448-39.447c5.205-1.426,15-6.535,17.465,0c2.555,6.71-8.731,8.621-13.672,10.611        c-33.685,13.593-70.623,29.095-110.417,38.342c-7.113,1.661-15.619,4.083-21.583,3.255        c-4.722-0.651-10.686-5.503-15.307-8.917c-22.538-16.584-46.308-37.219-66.609-56.343c-7.723-7.267-19.46-16.92-23.273-25.738        c-7.829-18.118,5.118-25.669,19.825-32.972c10.566-5.246,21.503-8.712,31.037-12.062        c24.216-8.491,42.347-16.877,61.363-24.048c14.361-5.428,31.625,6.847,42.496,11.742        c23.686,10.671,39.543,17.809,63.048,31.142c6.091,3.471,26.24,14.536,25.073,21.232        c-1.234,7.133-24.348,12.126-32.239,15.069C386.226,442.527,351.668,455.579,316.893,467.982z"/>
						<path style="opacity:0.21;fill-rule:evenodd;clip-rule:evenodd;" d="M301.495,472.226        c-7.387,4.403-85.102-64.527-82.346-68.183c1.801-2.413,18.32,13.511,37.454,29.39        C278.788,451.839,303.749,470.887,301.495,472.226z"/>
					</g>
				</g>
				<g>
					<g>
						<path style="fill-rule:evenodd;clip-rule:evenodd;fill:#8F7ECE;" d="M234.31,386.018c1.308-6.225,5.836-9.178,7.466-15.187        c1.102-4.062,0.771-10.035,1.681-14.7c5.618,0.12,11.235,8.271,15.682,13.25c9.284,10.374,15.6,18.642,25.798,29.889        c3.755,4.151,10.208,12.013,14.172,12.657c8.885,1.452,23.563-6.12,32.727-9.284c21.863-7.545,38.013-13.751,62.373-20.497        c13.692-3.796,32.415-7.411,35.512,6.501c2.931,13.173-10.467,20.301-21.158,25.803c-11.176,5.755-23.165,10.897-32.969,15.13        c-10.551,4.559-21.014,9.776-34.465,14.527c-11.074,3.921-27.292,10.839-38.577,9.051        c-6.384-1.006-14.688-9.742-19.424-14.402C265.121,420.994,252.066,403.966,234.31,386.018z"/>
						<path style="opacity:0.81;fill-rule:evenodd;clip-rule:evenodd;fill:#FFFFFF;" d="M234.31,386.018        c1.308-6.225,5.836-9.178,7.466-15.187c1.102-4.062,0.771-10.035,1.681-14.7c5.618,0.12,11.235,8.271,15.682,13.25        c9.284,10.374,15.6,18.642,25.798,29.889c3.755,4.151,10.208,12.013,14.172,12.657c8.885,1.452,23.563-6.12,32.727-9.284        c21.863-7.545,38.013-13.751,62.373-20.497c13.692-3.796,32.415-7.411,35.512,6.501c2.931,13.173-10.467,20.301-21.158,25.803        c-11.176,5.755-23.165,10.897-32.969,15.13c-10.551,4.559-21.014,9.776-34.465,14.527        c-11.074,3.921-27.292,10.839-38.577,9.051c-6.384-1.006-14.688-9.742-19.424-14.402        C265.121,420.994,252.066,403.966,234.31,386.018z"/>
						<g>
							<path style="fill-rule:evenodd;clip-rule:evenodd;fill:#EFAD1B;" d="M231.64,380.561         c3.296-2.924,39.017,35.963,54.622,52.103c5.714,5.911,11.358,15.773,17.42,16.753c7.958,1.289,27.239-7.454,34.122-10.126         c22.411-8.672,39.713-15.799,61.178-26.228c7.476-3.637,24.245-10.023,26.339-16.03c1.232-3.582,1.284-9.706-0.965-11.572         c-4.362-3.635-21.739,2.698-31.586,5.546c-25.741,7.435-49.088,16.899-75.038,25.931c-5.351,1.861-11.636,4.53-15.667,4.213         c-6.4-0.492-12.229-9.349-17.244-14.58c-15.72-16.38-44.409-45.254-42.925-51.777c1.606-7.08,79.436-32.547,111.383-35.507         c3.718-0.351,11.111-1.292,16.829,0.778c17.064,6.194,36.71,29.332,48.939,45.434c4.638,6.115,10.974,13.413,12.541,19.36         c4.405,16.762-3.736,20.87-14.527,26.691c-26.276,14.179-50.565,23.539-80.103,35.089         c-4.461,1.745-10.799,4.504-16.928,6.523c-6.247,2.048-13.943,4.631-19.357,3.798c-5.901-0.912-13.514-11.697-18.14-16.704         C270.4,427.138,228.925,382.983,231.64,380.561z"/>
							<path style="opacity:0.12;fill-rule:evenodd;clip-rule:evenodd;fill:#FFFFFF;" d="M405.139,374.437         c-1.188,2.593-7.385-3.589-10.671-7.075c-6.275-6.703-19.703-18.248-26.523-26.569c-4.04-4.914-11.783-13.977-9.368-15.977         c1.899-1.56,8.112,5.606,11.367,9.147c6.859,7.464,20.279,20.017,27.537,27.731         C400.355,364.754,406.654,371.136,405.139,374.437z"/>
						</g>
						<g>
							<path style="fill:#8F7ECE;" d="M290.972,426.11c3.93,3.5,7.718,7.111,11.648,10.309c1.488,1.167,3.169,2.374,4.393,2.876         c0.298,0.127,0.523,0.113,0.341,0.082c-0.267,0.046,0.211-0.045,0.298-0.072l0.591-0.166         c0.876-0.269,1.815-0.586,2.739-0.912c3.745-1.289,7.546-2.655,11.319-4.093c7.601-2.71,15.206-5.476,22.937-7.946         c4.945-1.596,9.915-3.145,14.952-4.511c2.828-0.775,3.796,0.557,1.38,1.837c-4.804,2.533-9.697,4.864-14.628,7.082         c-7.402,3.375-14.938,6.383-22.581,9.228c-3.855,1.325-7.687,2.694-11.67,3.846c-1.008,0.281-2,0.562-3.097,0.797         l-0.891,0.166c-0.423,0.07-0.437,0.115-1.217,0.139c-1.184-0.02-1.957-0.336-2.571-0.629         c-2.463-1.229-3.875-2.73-5.438-4.218c-3.865-3.944-7.181-8.174-10.311-12.525         C287.537,425.138,288.821,424.178,290.972,426.11z"/>
							<path style="fill-rule:evenodd;clip-rule:evenodd;fill:#8F7ECE;" d="M417.35,389.569         c0.341,4.091-99.206,39.562-100.915,35.317c-1.2-2.943,24.367-10.508,49.232-19.043         C391.698,396.9,417.131,387.072,417.35,389.569z"/>
						</g>
					</g>
					<g>
						<path style="fill-rule:evenodd;clip-rule:evenodd;fill:#FFFFFF;" d="M294.981,392.161c0.564,3.366,4.321,7.709,8.275,11.756        c1.69,1.724,4.475,4.485,6.196,3.143c2.06-1.599-0.603-5.234-1.556-6.532c-3.03-4.098-7.529-8.439-10.59-10.052        C296.503,390.442,295.375,391.319,294.981,392.161z"/>
						<path style="fill-rule:evenodd;clip-rule:evenodd;fill:#FFFFFF;" d="M299.113,407.5c-4.898,2.482,2.264,12.126,5.599,9.015        c1.443-1.347-0.276-7.306-2.73-8.981C301.101,406.933,299.965,407.068,299.113,407.5z"/>
					</g>
				</g>
			</g>
			<g>
				<g>
					<path style="fill-rule:evenodd;clip-rule:evenodd;fill:#4D3D87;" d="M245.313,374.115c-1.438-0.756-1.412-3.514-1.335-5.27       c0.302-6.967,5.75-9.586,12.035-13.557c8.398-5.31,16.846-10.045,25.112-14.64c5.366-2.984,12.498-7.618,20.253-8.261       c9.469-0.78,18.471,0.483,27.347,1.63c21.528,2.782,41.06,6.468,61.922,11.024c4.201,0.917,10.297,1.414,10.794,3.892       c0.948,4.739-6.086,4.134-10.798,3.286c-3.335-0.598-8.823-1.777-12.469-2.554c-21.775-4.669-41.094-7.848-64.004-10.859       c-6.218-0.811-12.455-1.755-18.195,0.612c-4.401,1.81-8.516,5.767-12.726,8.827c-8.369,6.083-16.373,12.256-24.492,18.476       C254.85,369.707,251.067,373.944,245.313,374.115z"/>
					<path style="fill-rule:evenodd;clip-rule:evenodd;fill:#4D3D87;" d="M386.123,404c2.989,1.087,5.447-6.168,5.618-7.831       c0.444-4.348-10.093-20.036-14.688-27.748c-2.984-5.013-6.636-12.222-12.698-16.443c-7.404-5.159-15.398-8.422-23.237-11.711       c-19.007-7.987-36.801-14.277-56.115-20.488c-3.889-1.248-9.133-3.748-10.719-1.949c-3.042,3.438,3.027,6.299,7.298,7.843       c3.027,1.104,8.095,2.761,11.464,3.858c20.108,6.554,37.495,13.154,57.742,21.616c5.495,2.295,11.065,4.497,14.649,9.176       c2.749,3.591,4.245,8.803,6.245,13.322C375.651,382.638,380.986,402.127,386.123,404z"/>
					<path style="fill-rule:evenodd;clip-rule:evenodd;fill:#4D3D87;" d="M302.001,299.483c15.379-1.412,28.958,6.535,31.894,20.572       c2.108,10.076-2.723,18.548-7.45,23.844c-7.591,8.506-21.398,15.732-34.576,16.685c-17.367,1.27-31.747-7.394-30.998-25.33       c0.355-8.595,5.896-15.775,10.731-20.865c6.064-6.386,12.486-10.82,21.76-13.413       C295.963,300.244,298.51,299.807,302.001,299.483z M283.525,313.496c-4.936,3.207-10.931,8.84-13.115,14.309       c-6.213,15.552,7.622,24.358,22.058,23.246c14.195-1.092,27.82-10.186,32.484-19.972c1.039-2.178,2.184-5.282,2.091-8.938       c-0.315-11.555-12.136-16.625-23.251-15.506C295.149,307.513,289.27,309.758,283.525,313.496z"/>
					<path style="fill-rule:evenodd;clip-rule:evenodd;fill:#4D3D87;" d="M379.615,312.764c15.384-1.419,28.963,6.53,31.894,20.562       c2.112,10.081-2.723,18.553-7.45,23.846c-7.591,8.508-21.398,15.734-34.576,16.693c-17.367,1.263-31.743-7.394-30.993-25.338       c0.355-8.592,5.892-15.768,10.729-20.865c6.062-6.386,12.488-10.818,21.758-13.41       C373.577,313.525,376.124,313.083,379.615,312.764z M361.139,326.772c-4.933,3.207-10.931,8.837-13.115,14.308       c-6.208,15.552,7.622,24.36,22.058,23.244c14.193-1.092,27.82-10.184,32.487-19.969c1.042-2.178,2.182-5.282,2.089-8.94       c-0.307-11.548-12.131-16.623-23.251-15.499C372.761,320.79,366.884,323.037,361.139,326.772z"/>
					<path style="opacity:0.6;fill-rule:evenodd;clip-rule:evenodd;fill:#FFFFFF;" d="M283.525,313.496       c-4.936,3.207-10.931,8.84-13.115,14.309c-6.213,15.552,7.622,24.358,22.058,23.246c14.195-1.092,27.82-10.186,32.484-19.972       c1.039-2.178,2.184-5.282,2.091-8.938c-0.315-11.555-12.136-16.625-23.251-15.506       C295.149,307.513,289.27,309.758,283.525,313.496z"/>
					<path style="opacity:0.6;fill-rule:evenodd;clip-rule:evenodd;fill:#FFFFFF;" d="M361.139,326.772       c-4.933,3.207-10.931,8.837-13.115,14.308c-6.208,15.552,7.622,24.36,22.058,23.244c14.193-1.092,27.82-10.184,32.487-19.969       c1.042-2.178,2.182-5.282,2.089-8.94c-0.307-11.548-12.131-16.623-23.251-15.499       C372.761,320.79,366.884,323.037,361.139,326.772z"/>
				</g>
				<g>
					<path style="fill-rule:evenodd;clip-rule:evenodd;fill:#FFFFFF;" d="M384.603,318.538c1.75,2.672-3.714,3.981-6.547,4.612       c-2.97,0.668-6.038,1.534-6.578-0.288c-0.278-0.932,0.653-1.613,1.388-2.309c1.757-1.69,9.065-3.316,10.78-2.771       C383.963,317.885,384.414,318.23,384.603,318.538z"/>
					<path style="fill-rule:evenodd;clip-rule:evenodd;fill:#FFFFFF;" d="M375.939,327.884c2.045,3.217-6.35,5.162-6.89,2.11       C368.593,327.413,374.837,326.138,375.939,327.884z"/>
					<path style="fill-rule:evenodd;clip-rule:evenodd;fill:#FFFFFF;" d="M367.04,324.107c0.295,0.447,0.511,1.1,0.31,1.69       c-0.627,1.791-8.043,4.631-8.715,1.299c-0.271-1.344,1.911-2.694,4.077-3.44C364.44,323.051,366.269,322.929,367.04,324.107z"/>
				</g>
				<g>
					<path style="fill-rule:evenodd;clip-rule:evenodd;fill:#FFFFFF;" d="M302.14,346.686c-0.934,4.612,10.849,1.501,7.812-1.995       C308.368,342.869,303.831,345.147,302.14,346.686z"/>
					<path style="fill-rule:evenodd;clip-rule:evenodd;fill:#FFFFFF;" d="M296.655,352.787c0.795-0.603,2.103-2.259,0.78-3.764       c-1.724-1.969-6.881-0.977-9.003-0.97c-2.576,0.01-7.433-1.141-8.861,1.387c-2.038,3.604,5.443,4.153,8.018,4.238       c1.373,0.041,2.722-0.048,3.882-0.07C293.462,353.569,295.126,353.934,296.655,352.787z"/>
				</g>
			</g>
		</g>
		<g>
			<path style="fill-rule:evenodd;clip-rule:evenodd;fill:#FF5000;" d="M133.229,264.043c-2.269-8.806-1.085-21.921-7.284-31.781     c-1.416-2.259-3.889-4.895-5.923-3.959c-3.243,1.491-1.433,11.485-1.169,14.285c0.545,5.613,1.27,10.136,2.204,15.274     c-2.482-4.801-4.355-11-7.706-17.283c-2.374-4.441-7.389-13.451-11.183-11.994c-5.267,2.019,0.696,16.791,2.333,21.403     c2.365,6.645,6.187,16.138,10.957,23.918c4.744,7.747,13.775,17.393,21.165,8.809c1.685-1.969,3.344-5.099,4.667-7.786     c2.607-5.313,4.038-10.573,5.094-16.4c0.516-2.867,1.222-6.031,1.042-8.633c-0.175-2.653-0.886-5.526-3.736-6.374     c-4.484,1.584-5.992,5.862-7.361,9.238c-1.479,3.625-2.346,7.557-3.231,11.043C133.142,263.887,133.186,263.969,133.229,264.043z     "/>
			<g>
				<g>
					<g>
						<path style="fill-rule:evenodd;clip-rule:evenodd;fill:#4D3D87;" d="M188.965,382.508c-0.043,7.421-0.221,15.377-0.785,22.538        c-0.175,2.422-0.072,5.032-0.768,6.996c-1.232,3.481-6.004,6.676-7.512,10.882c-1.733,4.83-1.265,11.73-1.558,18.138        c-0.303,6.489-0.415,12.885-0.776,18.913c-0.783,12.878,0.951,26.696-2.857,36.275c-0.014,0.031-0.19,0.396-0.252,0.516        c-5.152,9.404-22.567,12.755-35.238,14.248c-20.293,2.389-45.794,1.277-52.331-12.954c-1.126-2.451-1.563-5.839-2.074-9.072        c-2.557-16.083-3.172-33.351-5.186-49.998c-0.394-3.311-0.852-6.631-1.289-9.85c-0.444-3.251-0.876-6.501-1.812-9.063        c-1.553-4.208-5.721-6.023-7.262-9.845c-2.833-7.06-1.457-19.153-1.549-28.501c2.922-2.891,6.547-5.085,10.364-7.255        c11.058-6.271,25.244-9.574,42.229-10.364c13.413-0.619,28.574,1.248,40.16,3.63        C172.908,370.303,184.187,374.372,188.965,382.508z"/>
						<path style="fill-rule:evenodd;clip-rule:evenodd;fill:#EFAD1B;" d="M181.553,388.169c0.317,2.194-2.029,3.164-3.515,4.029        c-22.044,12.83-64.645,12.628-95.314,4.977c-1.856-0.463-4.163-0.989-5.351-2.516c-0.279-1.234,0.912-1.212,1.611-1.76        c1.563-1.224,3.349-3.049,5.337-4.228c5.73-3.375,13.29-6.103,21.011-7.819c22.421-4.991,56.067-4.393,74.159,6.727        C180.01,388.947,181.349,387.019,181.553,388.169z"/>
						<g>
							<path style="fill-rule:evenodd;clip-rule:evenodd;fill:#8F7ECE;" d="M126.005,363.6c13.341-0.639,26.747,0.466,37.828,3.104         c5.589,1.337,9.682,2.218,15.54,4.924c4.604,2.118,10.042,5.925,10.623,9.843c0.852,5.735-3.661,10.6-7.507,13.219         c-4.456,3.03-9.781,4.609-14.772,5.956c-11.202,3.001-24.8,3.628-37.569,3.628c-11.949,0-26.262-0.295-38.083-3.109         c-4.78-1.143-10.052-3.154-15.019-5.702c-4.499-2.305-9.574-6.098-10.107-10.364c-1.383-10.851,15.303-14.724,23.316-16.839         C101.537,365.28,112.146,364.258,126.005,363.6z M83.519,391.319c12.95,4.461,29.253,5.387,45.859,5.959         c17.814,0.617,32.206-2.136,44.298-7.255c2.66-1.126,10.282-3.812,10.102-7.255c-0.151-2.919-7.365-5.928-10.618-7.253         c-12.945-5.274-29.853-6.806-47.931-5.964c-14.64,0.703-31.683,3.467-42.748,8.035c-3.872,1.594-8.004,3.699-9.589,7.252         C75.076,388.385,79.414,389.905,83.519,391.319z"/>
						</g>
					</g>
					<path style="opacity:0.21;fill-rule:evenodd;clip-rule:evenodd;" d="M84.038,422.413c18.447,2.924,32.353,3.863,49.225,3.1       c18.618-0.843,46.111-6.991,46.111-6.991s-15.97,11.01-45.852,12.174C114.823,431.428,96.658,429.224,84.038,422.413z"/>
					<g>
						<path style="fill-rule:evenodd;clip-rule:evenodd;fill:#FFFFFF;" d="M99.515,486.359c-3.613,0.958-3.018,13.535,1.558,12.335        C104.276,497.861,102.778,487.384,99.515,486.359z"/>
						<path style="fill-rule:evenodd;clip-rule:evenodd;fill:#FFFFFF;" d="M94.822,478.365c3.001-0.17,2.538-3.354,2.639-5.844        c0.089-2.204,0.713-4.928,0.653-6.844c-0.067-2.528-0.739-5.707-2.581-6.612c-2.146,1.872-2.506,5.98-2.785,9.204        C92.476,471.439,92.051,475.772,94.822,478.365z"/>
						<path style="fill-rule:evenodd;clip-rule:evenodd;fill:#FFFFFF;" d="M93.59,448.101c3.008-2.958,2.547-7.661,2.672-12.066        c-0.607-0.038-1.109-0.293-1.488-0.756c-2.221,0.612-2.984,4.168-3.272,6.461C91.216,444.061,90.712,447.777,93.59,448.101z"/>
						<path style="fill-rule:evenodd;clip-rule:evenodd;fill:#FFFFFF;" d="M107.591,462.978c2.802-1.647,3.33-8.765-0.324-9.836        C103.625,454.326,103.93,462.016,107.591,462.978z"/>
					</g>
				</g>
				<g>
					<g>
						<path style="fill-rule:evenodd;clip-rule:evenodd;fill:#B1BC00;" d="M108.343,377.697c0.768,3.637,1.561,7.265,2.401,10.882        h35.656c1.484-2.024,2.497-6.614,3.529-9.946c3.339-10.76,6.489-21.342,7.843-32.463c0.984-8.16,0.715-15.754,0.228-23.095        c-0.536-7.975-1.796-17.403-5.023-24.624c-3.102-6.981-8.364-13.406-13-15.372c-5.836-2.475-17.638-0.394-25.239,3.008        c-8.177,3.661-13.329,8.912-15.554,14.568c-2.619,6.645-2.283,16.001-1.445,24.377        C99.462,342.319,104.677,360.318,108.343,377.697z"/>
						<g>
							<path style="opacity:0.21;" d="M111.834,384.203c0.175,1.465,0.398,2.919,0.617,4.376h5.142         c-1.306-10.979-2.984-22.128-4.158-33.176c-1.047-9.855-2.074-19.794-2.533-29.997c-0.442-9.62-1.63-20.291,0.965-28.768         c1.34-4.369,3.909-7.994,6.134-11.836c-1.145,0.401-2.245,0.833-3.263,1.284c-0.423,0.19-0.802,0.401-1.21,0.595         c-1.402,2.209-2.751,4.494-3.712,6.713c-3.548,8.153-3.202,19.859-2.95,29.212         C107.411,342.766,109.342,363.384,111.834,384.203z"/>
							<path style="opacity:0.21;" d="M124.905,388.579h4.866c0.24-14.445-0.403-29.248-0.706-44.063         c-0.209-10.587-1.942-21.864-2.355-33.193c-0.185-5.176,0.257-10.758,0.511-16.109c0.214-4.365,0.643-8.746,0.583-12.798         c-0.842,0.117-1.692,0.264-2.545,0.43c-4.041,19.475-1.359,40.162-0.804,60.736         C124.85,358.484,124.375,373.45,124.905,388.579z"/>
							<path style="opacity:0.21;" d="M137.831,309.069c4.557,27.57,2.067,53.753-0.36,79.51h4.468         c0.73-4.708,1.291-9.644,1.695-14.015c0.956-10.23,1.037-21.009,1.292-31.121c0.266-10.467-0.226-21.235-2.211-32.341         c-1.724-9.668-5.138-19.103-8.093-29.075c-0.972-0.043-1.995-0.039-3.047,0.012c0.161,0.752,0.346,1.489,0.488,2.192         C133.716,292.202,136.477,300.907,137.831,309.069z"/>
						</g>
					</g>
					<g>
						<g>
							<path style="fill-rule:evenodd;clip-rule:evenodd;fill:#FFFFFF;" d="M101.95,303.43c1.051,3.685,4.665,4.684,6.972,6.499         c0.394,1.395-1.841,2.031-0.915,3.591c0.982,0.787,2.619-0.545,4.074-1.253c2.357,0.115,4.617,3.887,7.21,1.087         c-0.159-2.048-2.302-2.974-3.548-3.68c0.843-2.053,3.779-3.501,1.969-6.333c-2.295-0.223-3.433,2.581-5.251,3.755         C108.679,306.75,106.17,302.338,101.95,303.43z"/>
							<path style="fill-rule:evenodd;clip-rule:evenodd;fill:#FFFFFF;" d="M142.501,307.713c-1.481-1.15-2.593-3.491-4.66-2.778         c0.122,0.24-0.199,0.351-0.36,0.507c0.228,2.067,2.18,3.846,3.344,5.037c-0.245,1.556-3.481,2.245-2.893,4.036         c0.984-0.317,1.961-0.622,3.073-1.34c0.622,1.666-0.468,3.711-0.74,5.673c-0.278,2.055-0.449,4.233-0.108,6.273         c1.354-1.037,2.113-3.284,2.615-5.131c0.535-1.98,0.754-4.148,1.237-5.942c2.146,1.563,4.936,3.846,6.952,5.887         c0.619,0.631,0.73,2.067,1.894,1.772c1.805-1.119-0.065-3.277-0.711-4.276c-1.642-2.516-4.967-5.032-6.479-6.763         c1.469-1.599,5.003-2.609,3.241-5.152c-0.9-0.113-2.391,0.958-2.951,1.585c-0.127-2.615,1.904-4.597,1.078-7.411         C143.279,300.911,144.051,305.175,142.501,307.713z"/>
							<path style="fill-rule:evenodd;clip-rule:evenodd;fill:#FFFFFF;" d="M122.476,328.095c-1.481,2.082,0.379,5.126,1.791,8.04         c-1.529-0.105-2.514-1.978-4.252-1.436c0.482,2.504,3.01,3.841,4.578,4.987c-0.569,1.457-3.291,2.293-2.883,4.036         c1.421-0.19,3.193-1.503,4.787-2.262c2.667,3.688,4.826,9.005,7.598,12.373c1.462-2.35-1.232-5.913-2.307-9.007         c2.353,0.295,3.841,3.402,6.739,1.966c-0.648-4.249-5.956-4.348-8.463-6.941c1.316-1.575,4.708-2.554,4.864-4.475         c-0.223-0.401-0.432-0.802-0.653-1.198c-2.05-0.3-3.812,2.017-6.011,2.915C126.653,334.188,125.645,328.419,122.476,328.095z         "/>
							<path style="fill-rule:evenodd;clip-rule:evenodd;fill:#FFFFFF;" d="M125.571,372.072c-0.432,1.844-3.445,2.931-2.247,5.241         c1.522,0.079,2.379-1.541,3.927-2.113c1.623,2.917,3.856,7.481,5.594,10.491h0.759c0.658-2.963-1.654-6.78-2.379-10.141         c1.899,0.25,3.188,2.454,5.613,1.028c0.612-2.948-3.272-3.56-5.073-4.729c1.148-1.995,5.877-3.565,4.835-5.707         c-1.301-2.684-5.327,1.539-7.497,3.099c-1.928-1.635-2.031-7.829-5.255-7.423c-1.328,1.58-0.134,3.892,0.761,6.115         c-1.529,0.54-2.36-1.179-3.978-0.346C121.17,370.108,123.852,371.176,125.571,372.072z"/>
						</g>
						<g>
							<path style="fill-rule:evenodd;clip-rule:evenodd;fill:#B1BC00;" d="M101.95,303.43c1.051,3.685,4.665,4.684,6.972,6.499         c0.394,1.395-1.841,2.031-0.915,3.591c0.982,0.787,2.619-0.545,4.074-1.253c2.357,0.115,4.617,3.887,7.21,1.087         c-0.159-2.048-2.302-2.974-3.548-3.68c0.843-2.053,3.779-3.501,1.969-6.333c-2.295-0.223-3.433,2.581-5.251,3.755         C108.679,306.75,106.17,302.338,101.95,303.43z"/>
							<path style="fill-rule:evenodd;clip-rule:evenodd;fill:#B1BC00;" d="M142.501,307.713c-1.481-1.15-2.593-3.491-4.66-2.778         c0.122,0.24-0.199,0.351-0.36,0.507c0.228,2.067,2.18,3.846,3.344,5.037c-0.245,1.556-3.481,2.245-2.893,4.036         c0.984-0.317,1.961-0.622,3.073-1.34c0.622,1.666-0.468,3.711-0.74,5.673c-0.278,2.055-0.449,4.233-0.108,6.273         c1.354-1.037,2.113-3.284,2.615-5.131c0.535-1.98,0.754-4.148,1.237-5.942c2.146,1.563,4.936,3.846,6.952,5.887         c0.619,0.631,0.73,2.067,1.894,1.772c1.805-1.119-0.065-3.277-0.711-4.276c-1.642-2.516-4.967-5.032-6.479-6.763         c1.469-1.599,5.003-2.609,3.241-5.152c-0.9-0.113-2.391,0.958-2.951,1.585c-0.127-2.615,1.904-4.597,1.078-7.411         C143.279,300.911,144.051,305.175,142.501,307.713z"/>
							<path style="fill-rule:evenodd;clip-rule:evenodd;fill:#B1BC00;" d="M122.476,328.095c-1.481,2.082,0.379,5.126,1.791,8.04         c-1.529-0.105-2.514-1.978-4.252-1.436c0.482,2.504,3.01,3.841,4.578,4.987c-0.569,1.457-3.291,2.293-2.883,4.036         c1.421-0.19,3.193-1.503,4.787-2.262c2.667,3.688,4.826,9.005,7.598,12.373c1.462-2.35-1.232-5.913-2.307-9.007         c2.353,0.295,3.841,3.402,6.739,1.966c-0.648-4.249-5.956-4.348-8.463-6.941c1.316-1.575,4.708-2.554,4.864-4.475         c-0.223-0.401-0.432-0.802-0.653-1.198c-2.05-0.3-3.812,2.017-6.011,2.915C126.653,334.188,125.645,328.419,122.476,328.095z         "/>
							<path style="fill-rule:evenodd;clip-rule:evenodd;fill:#B1BC00;" d="M125.571,372.072c-0.432,1.844-3.445,2.931-2.247,5.241         c1.522,0.079,2.379-1.541,3.927-2.113c1.623,2.917,3.856,7.481,5.594,10.491h0.759c0.658-2.963-1.654-6.78-2.379-10.141         c1.899,0.25,3.188,2.454,5.613,1.028c0.612-2.948-3.272-3.56-5.073-4.729c1.148-1.995,5.877-3.565,4.835-5.707         c-1.301-2.684-5.327,1.539-7.497,3.099c-1.928-1.635-2.031-7.829-5.255-7.423c-1.328,1.58-0.134,3.892,0.761,6.115         c-1.529,0.54-2.36-1.179-3.978-0.346C121.17,370.108,123.852,371.176,125.571,372.072z"/>
						</g>
						<g style="opacity:0.21;">
							<path style="fill-rule:evenodd;clip-rule:evenodd;" d="M101.95,303.43c1.051,3.685,4.665,4.684,6.972,6.499         c0.394,1.395-1.841,2.031-0.915,3.591c0.982,0.787,2.619-0.545,4.074-1.253c2.357,0.115,4.617,3.887,7.21,1.087         c-0.159-2.048-2.302-2.974-3.548-3.68c0.843-2.053,3.779-3.501,1.969-6.333c-2.295-0.223-3.433,2.581-5.251,3.755         C108.679,306.75,106.17,302.338,101.95,303.43z"/>
							<path style="fill-rule:evenodd;clip-rule:evenodd;" d="M142.501,307.713c-1.481-1.15-2.593-3.491-4.66-2.778         c0.122,0.24-0.199,0.351-0.36,0.507c0.228,2.067,2.18,3.846,3.344,5.037c-0.245,1.556-3.481,2.245-2.893,4.036         c0.984-0.317,1.961-0.622,3.073-1.34c0.622,1.666-0.468,3.711-0.74,5.673c-0.278,2.055-0.449,4.233-0.108,6.273         c1.354-1.037,2.113-3.284,2.615-5.131c0.535-1.98,0.754-4.148,1.237-5.942c2.146,1.563,4.936,3.846,6.952,5.887         c0.619,0.631,0.73,2.067,1.894,1.772c1.805-1.119-0.065-3.277-0.711-4.276c-1.642-2.516-4.967-5.032-6.479-6.763         c1.469-1.599,5.003-2.609,3.241-5.152c-0.9-0.113-2.391,0.958-2.951,1.585c-0.127-2.615,1.904-4.597,1.078-7.411         C143.279,300.911,144.051,305.175,142.501,307.713z"/>
							<path style="fill-rule:evenodd;clip-rule:evenodd;" d="M122.476,328.095c-1.481,2.082,0.379,5.126,1.791,8.04         c-1.529-0.105-2.514-1.978-4.252-1.436c0.482,2.504,3.01,3.841,4.578,4.987c-0.569,1.457-3.291,2.293-2.883,4.036         c1.421-0.19,3.193-1.503,4.787-2.262c2.667,3.688,4.826,9.005,7.598,12.373c1.462-2.35-1.232-5.913-2.307-9.007         c2.353,0.295,3.841,3.402,6.739,1.966c-0.648-4.249-5.956-4.348-8.463-6.941c1.316-1.575,4.708-2.554,4.864-4.475         c-0.223-0.401-0.432-0.802-0.653-1.198c-2.05-0.3-3.812,2.017-6.011,2.915C126.653,334.188,125.645,328.419,122.476,328.095z         "/>
							<path style="fill-rule:evenodd;clip-rule:evenodd;" d="M125.571,372.072c-0.432,1.844-3.445,2.931-2.247,5.241         c1.522,0.079,2.379-1.541,3.927-2.113c1.623,2.917,3.856,7.481,5.594,10.491h0.759c0.658-2.963-1.654-6.78-2.379-10.141         c1.899,0.25,3.188,2.454,5.613,1.028c0.612-2.948-3.272-3.56-5.073-4.729c1.148-1.995,5.877-3.565,4.835-5.707         c-1.301-2.684-5.327,1.539-7.497,3.099c-1.928-1.635-2.031-7.829-5.255-7.423c-1.328,1.58-0.134,3.892,0.761,6.115         c-1.529,0.54-2.36-1.179-3.978-0.346C121.17,370.108,123.852,371.176,125.571,372.072z"/>
						</g>
						<g style="opacity:0.21;">
							<path style="fill-rule:evenodd;clip-rule:evenodd;" d="M101.95,303.43c1.051,3.685,4.665,4.684,6.972,6.499         c0.394,1.395-1.841,2.031-0.915,3.591c0.982,0.787,2.619-0.545,4.074-1.253c2.357,0.115,4.617,3.887,7.21,1.087         c-0.159-2.048-2.302-2.974-3.548-3.68c0.843-2.053,3.779-3.501,1.969-6.333c-2.295-0.223-3.433,2.581-5.251,3.755         C108.679,306.75,106.17,302.338,101.95,303.43z"/>
							<path style="fill-rule:evenodd;clip-rule:evenodd;" d="M142.501,307.713c-1.481-1.15-2.593-3.491-4.66-2.778         c0.122,0.24-0.199,0.351-0.36,0.507c0.228,2.067,2.18,3.846,3.344,5.037c-0.245,1.556-3.481,2.245-2.893,4.036         c0.984-0.317,1.961-0.622,3.073-1.34c0.622,1.666-0.468,3.711-0.74,5.673c-0.278,2.055-0.449,4.233-0.108,6.273         c1.354-1.037,2.113-3.284,2.615-5.131c0.535-1.98,0.754-4.148,1.237-5.942c2.146,1.563,4.936,3.846,6.952,5.887         c0.619,0.631,0.73,2.067,1.894,1.772c1.805-1.119-0.065-3.277-0.711-4.276c-1.642-2.516-4.967-5.032-6.479-6.763         c1.469-1.599,5.003-2.609,3.241-5.152c-0.9-0.113-2.391,0.958-2.951,1.585c-0.127-2.615,1.904-4.597,1.078-7.411         C143.279,300.911,144.051,305.175,142.501,307.713z"/>
							<path style="fill-rule:evenodd;clip-rule:evenodd;" d="M122.476,328.095c-1.481,2.082,0.379,5.126,1.791,8.04         c-1.529-0.105-2.514-1.978-4.252-1.436c0.482,2.504,3.01,3.841,4.578,4.987c-0.569,1.457-3.291,2.293-2.883,4.036         c1.421-0.19,3.193-1.503,4.787-2.262c2.667,3.688,4.826,9.005,7.598,12.373c1.462-2.35-1.232-5.913-2.307-9.007         c2.353,0.295,3.841,3.402,6.739,1.966c-0.648-4.249-5.956-4.348-8.463-6.941c1.316-1.575,4.708-2.554,4.864-4.475         c-0.223-0.401-0.432-0.802-0.653-1.198c-2.05-0.3-3.812,2.017-6.011,2.915C126.653,334.188,125.645,328.419,122.476,328.095z         "/>
							<path style="fill-rule:evenodd;clip-rule:evenodd;" d="M125.571,372.072c-0.432,1.844-3.445,2.931-2.247,5.241         c1.522,0.079,2.379-1.541,3.927-2.113c1.623,2.917,3.856,7.481,5.594,10.491h0.759c0.658-2.963-1.654-6.78-2.379-10.141         c1.899,0.25,3.188,2.454,5.613,1.028c0.612-2.948-3.272-3.56-5.073-4.729c1.148-1.995,5.877-3.565,4.835-5.707         c-1.301-2.684-5.327,1.539-7.497,3.099c-1.928-1.635-2.031-7.829-5.255-7.423c-1.328,1.58-0.134,3.892,0.761,6.115         c-1.529,0.54-2.36-1.179-3.978-0.346C121.17,370.108,123.852,371.176,125.571,372.072z"/>
						</g>
					</g>
				</g>
			</g>
		</g>
	</g>
</g>















</svg>
