<?xml version="1.0" encoding="UTF-8"?>
<!-- Generator: Adobe Illustrator 25.2.3, SVG Export Plug-In . SVG Version: 6.00 Build 0)  -->
<svg xmlns="http://www.w3.org/2000/svg" xmlns:xlink="http://www.w3.org/1999/xlink" version="1.1" id="Capa_1" x="0px" y="0px" viewBox="0 0 512 512" style="enable-background:new 0 0 512 512;" xml:space="preserve" width="512" height="512">
<g>
	<g>
		<g>
			<path style="fill-rule:evenodd;clip-rule:evenodd;fill:#EFAD1B;" d="M19.459,234.436c17.693-1.103,32.717-0.762,50.557-0.597     c26.43,0.231,51.245,0.306,77.01,0.399c33.753,0.112,68.988,0.894,103.118,1.027c37.162,0.14,73.757,0.906,111.055,0.945     c0.004-0.493,0.011-0.991,0.015-1.489c9.653-0.141,19.032,0.109,28.642,0.033c-0.007,0.357-0.023,0.714-0.027,1.066     c4.795-0.184,9.52-0.278,13.983,0.227c3.249,0.364,4.594,1.093,5.845,3.125c18.978-18.159,39.489-38.073,59.921-57.143     c-0.171-8.347-0.31-16.659-0.395-24.915c9.263-0.309,18.286-0.236,27.489-0.454c2.183-1.939,4.51-3.536,7.167-4.195     c0.959-0.238,2.515-1.138,3.523,0.179c1.287,1.7-2.15,5.959-3.938,7.93c-1.846,2.031-3.712,4.047-5.589,6.042     c0,77.091-2.773,151.033-5.223,225.328c-4.845-0.611-10.667,0.339-15.591-0.132c-1.798-64.877-5.512-131.935-7.142-196.62     c-3.734,3.78-7.474,7.6-11.216,11.501c-8.042,8.388-16.585,17.327-26.056,25.876c-4.003,3.613-8.689,7.827-13.352,12.393     c-3.698,3.614-9.811,10.686-14.023,11.652c-3.135,0.713-8.045,0.067-12.719,0.06c-1.057-0.004-2.131-0.038-3.212-0.087     c-1.933,69.678-6.107,136.798-10.031,204.206c-4.827-0.666-10.669,0.153-15.58-0.393c-0.344-67.659-2.882-137.827-2.637-204.82     c-2.679-0.04-5.267-0.09-7.697-0.204c-18.531-0.847-35.568-1.18-51.879-1.234c-33.863-0.117-68.741-0.239-101.734-0.605     c-47.884-0.531-98.635-0.528-149.856-2.701c-1.761,68.849-6.759,141.158-9.326,210.874c-4.932,0.385-10.742-0.617-15.588-0.102     c-1.842-70.009-3.957-139.728-3.481-212.214c-0.815-0.048-1.63-0.091-2.442-0.145c-8.035-0.492-19.717-0.474-19.021-8.038     C0.63,234.706,12.734,234.85,19.459,234.436z"/>
			<path style="opacity:0.12;fill-rule:evenodd;clip-rule:evenodd;" d="M19.459,234.436c17.693-1.103,32.717-0.762,50.557-0.597     c26.43,0.231,51.245,0.306,77.01,0.399c33.753,0.112,68.988,0.894,103.118,1.027c37.162,0.14,73.757,0.906,111.055,0.945     c0.004-0.493,0.011-0.991,0.015-1.489c9.653-0.141,19.032,0.109,28.642,0.033c-0.007,0.357-0.023,0.714-0.027,1.066     c4.795-0.184,9.52-0.278,13.983,0.227c3.249,0.364,4.594,1.093,5.845,3.125c18.978-18.159,39.489-38.073,59.921-57.143     c-0.171-8.347-0.31-16.659-0.395-24.915c9.263-0.309,18.286-0.236,27.489-0.454c2.183-1.939,4.51-3.536,7.167-4.195     c0.959-0.238,2.515-1.138,3.523,0.179c1.287,1.7-2.15,5.959-3.938,7.93c-1.846,2.031-3.712,4.047-5.589,6.042     c0,77.091-2.773,151.033-5.223,225.328c-4.845-0.611-10.667,0.339-15.591-0.132c-1.798-64.877-5.512-131.935-7.142-196.62     c-3.734,3.78-7.474,7.6-11.216,11.501c-8.042,8.388-16.585,17.327-26.056,25.876c-4.003,3.613-8.689,7.827-13.352,12.393     c-3.698,3.614-9.811,10.686-14.023,11.652c-3.135,0.713-8.045,0.067-12.719,0.06c-1.057-0.004-2.131-0.038-3.212-0.087     c-1.933,69.678-6.107,136.798-10.031,204.206c-4.827-0.666-10.669,0.153-15.58-0.393c-0.344-67.659-2.882-137.827-2.637-204.82     c-2.679-0.04-5.267-0.09-7.697-0.204c-18.531-0.847-35.568-1.18-51.879-1.234c-33.863-0.117-68.741-0.239-101.734-0.605     c-47.884-0.531-98.635-0.528-149.856-2.701c-1.761,68.849-6.759,141.158-9.326,210.874c-4.932,0.385-10.742-0.617-15.588-0.102     c-1.842-70.009-3.957-139.728-3.481-212.214c-0.815-0.048-1.63-0.091-2.442-0.145c-8.035-0.492-19.717-0.474-19.021-8.038     C0.63,234.706,12.734,234.85,19.459,234.436z"/>
			<path style="fill-rule:evenodd;clip-rule:evenodd;fill:#EFAD1B;" d="M506.012,151.926c0.974,0.552-94.341,91.35-95.739,91.657     c-3.182,0.698-152.742-2.505-202.182-2.684c-69.828-0.253-137.888,0.301-206.847-2.449c-1.233-0.634,20.128-16.228,28.904-23.255     c23.488-18.797,86.103-69.857,88.093-70.363C121.1,144.094,487.732,151.664,506.012,151.926z"/>
		</g>
		<g>
			<g>
				<path style="fill-rule:evenodd;clip-rule:evenodd;fill:#FFFFFF;" d="M270.533,242.831c3.302,1.547,9.415,0.86,15.373-0.176      c2.55-0.443,6.668-1.224,6.531-3.553c-0.169-2.793-4.984-2.649-6.705-2.585c-5.452,0.187-12.005,1.521-15.281,3.25      C269.93,240.454,270.028,241.979,270.533,242.831z"/>
				<path style="fill-rule:evenodd;clip-rule:evenodd;fill:#FFFFFF;" d="M254.99,234.192c-0.776,5.818,12.068,5.351,11.341,0.524      c-0.307-2.094-6.608-4.18-9.573-3.038C255.7,232.097,255.122,233.176,254.99,234.192z"/>
			</g>
			<g>
				<path style="fill-rule:evenodd;clip-rule:evenodd;fill:#FFFFFF;" d="M26.818,232.883c-3.992-6.253,14.175-7.48,14.859-1.999      c0.802,6.438-11.071,4.865-14.433,2.559C27.035,233.297,26.958,233.1,26.818,232.883z"/>
				<path style="fill-rule:evenodd;clip-rule:evenodd;fill:#FFFFFF;" d="M43.929,239.752c-2.506-5.458,12.732-7.35,12.305-1.148      C55.915,243.302,45.666,243.532,43.929,239.752z"/>
			</g>
		</g>
	</g>
	<g>
		<g>
			<g>
				<g>
					<g>
						<polygon style="fill:#8F7ECE;" points="473.349,119.431 448.241,119.34 477.994,21.17 505.816,30.812       "/>
						<polygon style="fill:#4D3D87;" points="492.653,66.737 512,38.15 504.793,33.61       "/>
						<path style="fill:#4D3D87;" d="M505.816,30.812c-0.636,1.84-7.383,1.17-15.067-1.492c-7.676-2.66-13.387-6.31-12.754-8.15        c0.636-1.837,7.38-1.17,15.062,1.492C500.743,25.328,506.454,28.972,505.816,30.812z"/>
					</g>
					<g>
						<polygon style="fill:#EFAD1B;" points="431.863,119.281 457.209,119.373 459.486,56.672 430.047,56.565       "/>
						<polygon style="fill:#EFAD1B;" points="431.146,94.646 421.778,61.443 430.081,59.544       "/>
						<path style="fill:#EFAD1B;" d="M430.047,56.565c-0.007,1.943,6.574,3.547,14.703,3.576c8.132,0.029,14.729-1.527,14.736-3.47        c0.007-1.945-6.579-3.547-14.711-3.576C436.646,53.066,430.054,54.62,430.047,56.565z"/>
						<polygon style="opacity:0.12;" points="431.146,94.646 421.778,61.443 430.081,59.544       "/>
						<path style="opacity:0.12;" d="M430.047,56.565c-0.007,1.943,6.574,3.547,14.703,3.576c8.132,0.029,14.729-1.527,14.736-3.47        c0.007-1.945-6.579-3.547-14.711-3.576C436.646,53.066,430.054,54.62,430.047,56.565z"/>
					</g>
					<g>
						<polygon style="fill:#FFFFFF;" points="465.061,109.797 474.501,88.84 469.015,86.585       "/>
						<polygon style="fill:#FFFFFF;" points="449.146,81.238 469.384,84.541 463.414,119.395 445.081,119.329       "/>
						<path style="fill:#FFFFFF;" d="M469.384,84.541c-0.219,1.336-4.924,1.684-10.511,0.771c-5.592-0.919-9.944-2.737-9.727-4.073        c0.216-1.342,4.927-1.679,10.516-0.771C465.251,81.386,469.597,83.204,469.384,84.541z"/>
						<polygon style="opacity:0.12;" points="465.061,109.797 474.501,88.84 469.015,86.585       "/>
						<path style="opacity:0.12;" d="M469.384,84.541c-0.219,1.336-4.924,1.684-10.511,0.771c-5.592-0.919-9.944-2.737-9.727-4.073        c0.216-1.342,4.927-1.679,10.516-0.771C465.251,81.386,469.597,83.204,469.384,84.541z"/>
					</g>
				</g>
				<g>
					<g>
						<polygon style="fill:#EFAD1B;" points="396.459,119.153 421.569,119.244 386.154,6.101 358.266,15.541       "/>
						<path style="fill:#EFAD1B;" d="M358.266,15.541c0.625,1.844,7.372,1.224,15.072-1.386c7.703-2.602,13.438-6.21,12.816-8.054        c-0.625-1.841-7.372-1.221-15.073,1.383C363.378,10.088,357.64,13.694,358.266,15.541z"/>
						<path style="opacity:0.12;" d="M358.266,15.541c0.625,1.844,7.372,1.224,15.072-1.386c7.703-2.602,13.438-6.21,12.816-8.054        c-0.625-1.841-7.372-1.221-15.073,1.383C363.378,10.088,357.64,13.694,358.266,15.541z"/>
					</g>
					<g>
						<polygon style="fill:#FFFFFF;" points="393.19,119.141 406.047,119.188 387.91,61.258 373.634,66.092       "/>
						<path style="fill:#FFFFFF;" d="M373.634,66.092c0.316,0.942,3.772,0.63,7.715-0.709c3.945-1.334,6.88-3.181,6.561-4.126        c-0.322-0.942-3.772-0.627-7.715,0.707C376.244,63.303,373.314,65.148,373.634,66.092z"/>
						<path style="opacity:0.25;" d="M373.634,66.092c0.316,0.942,3.772,0.63,7.715-0.709c3.945-1.334,6.88-3.181,6.561-4.126        c-0.322-0.942-3.772-0.627-7.715,0.707C376.244,63.303,373.314,65.148,373.634,66.092z"/>
					</g>
					<g>
						<polygon style="fill:#FF5000;" points="379.679,120.59 397.153,122.575 362.814,39.365 344.324,48.227       "/>
						<polygon style="fill:#FF5000;" points="356.433,73.004 340.617,53.794 345.249,50.082       "/>
						<path style="fill:#FF5000;" d="M344.324,48.227c0.583,1.22,5.198,0.229,10.303-2.216c5.108-2.447,8.774-5.422,8.187-6.646        c-0.582-1.223-5.199-0.226-10.306,2.219C347.399,44.03,343.737,47.003,344.324,48.227z"/>
						<polygon style="opacity:0.25;" points="356.433,73.004 340.617,53.794 345.249,50.082       "/>
						<path style="opacity:0.25;" d="M344.324,48.227c0.583,1.22,5.198,0.229,10.303-2.216c5.108-2.447,8.774-5.422,8.187-6.646        c-0.582-1.223-5.199-0.226-10.306,2.219C347.399,44.03,343.737,47.003,344.324,48.227z"/>
					</g>
					<g>
						<polygon style="fill:#4D3D87;" points="400.345,106.502 388.09,78.781 395.35,75.863       "/>
						<polygon style="fill:#8F7ECE;" points="421.598,68.996 394.881,73.165 402.421,119.174 426.599,119.262       "/>
						<path style="fill:#4D3D87;" d="M394.881,73.165c0.277,1.761,6.478,2.259,13.861,1.107c7.375-1.147,13.132-3.51,12.856-5.276        c-0.274-1.764-6.478-2.259-13.853-1.107C400.367,69.031,394.61,71.394,394.881,73.165z"/>
					</g>
				</g>
			</g>
			<path style="fill:#EFAD1B;" d="M376.596,123.178l-0.17,47.012c-0.008,2.257,1.822,4.103,4.082,4.111l93.049,0.337     c2.262,0.008,4.103-1.825,4.111-4.082l0.17-47.012c0.008-2.268-1.82-4.103-4.082-4.111l-93.048-0.337     C378.448,119.088,376.604,120.91,376.596,123.178z M395.015,126.162c0.004-1.216,0.991-2.19,2.204-2.186l21.616,0.078     c1.21,0.005,2.19,0.986,2.186,2.201c-0.004,1.211-0.991,2.19-2.202,2.186l-21.616-0.078     C395.99,128.359,395.01,127.372,395.015,126.162z"/>
			<path style="opacity:0.12;" d="M376.596,123.178l-0.17,47.012c-0.008,2.257,1.822,4.103,4.082,4.111l93.049,0.337     c2.262,0.008,4.103-1.825,4.111-4.082l0.17-47.012c0.008-2.268-1.82-4.103-4.082-4.111l-93.048-0.337     C378.448,119.088,376.604,120.91,376.596,123.178z M395.015,126.162c0.004-1.216,0.991-2.19,2.204-2.186l21.616,0.078     c1.21,0.005,2.19,0.986,2.186,2.201c-0.004,1.211-0.991,2.19-2.202,2.186l-21.616-0.078     C395.99,128.359,395.01,127.372,395.015,126.162z"/>
			<path style="opacity:0.12;" d="M440.107,170.42c-0.008,2.257,1.819,4.103,4.081,4.111l29.368,0.106     c2.262,0.008,4.103-1.825,4.111-4.082l0.17-47.012c0.008-2.268-1.82-4.103-4.082-4.111l-29.368-0.106     c-2.262-0.008-4.103,1.814-4.111,4.082L440.107,170.42z"/>
		</g>
		<g>
			<g>
				<g>
					<path style="fill:#8F7ECE;" d="M202.741,147.488l12.446-70.332c0.551-3.31,3.358-5.811,6.711-5.91l101.829-2.126       c2.074-0.084,4.074,0.748,5.481,2.268c1.4,1.521,2.073,3.582,1.829,5.641l-15.052,79.472c-0.399,3.378-3.11,5.932-6.385,6.232       c-0.381,0.037-0.76,0.034-1.149,0.01l-99.226-7.018c-1.994-0.14-3.827-1.12-5.066-2.685       C202.93,151.474,202.416,149.462,202.741,147.488"/>
					<polygon style="fill:#4D3D87;" points="210.116,141.304 308.659,149.099 322.617,77.988 221.649,78.918      "/>
				</g>
				<g>
					<path style="fill-rule:evenodd;clip-rule:evenodd;fill:#FFFFFF;" d="M310.696,98.685c0.53-0.936-0.163-1.77-0.777-2.575       c-0.481-0.615-1.163-1.353-1.974-1.372c-1.138-0.01-1.124,1.577-0.671,2.441c0.146,0.281,0.671,0.891,0.967,1.203       C308.882,99.039,310.116,99.715,310.696,98.685z"/>
					<path style="fill-rule:evenodd;clip-rule:evenodd;fill:#FFFFFF;" d="M308.973,90.235c0.632-1.257-0.268-2.259-1.123-3.03       c-1.094-0.994-2.795-2.132-4.229-3.043c-1.777-1.112-5.077-2.084-5.689,0.175c-0.657,2.366,3.65,4.499,5.817,5.663       C305.344,90.849,308.065,92.032,308.973,90.235z"/>
				</g>
			</g>
			<g>
				<g>
					<path style="fill:#8F7ECE;" d="M134.851,171.855c0.156,0.019,0.312,0.024,0.467,0.034l91.987,23.612l87.935-37.199       c0.148-0.021,0.291-0.063,0.433-0.097c0.422,0.768,0.722,1.608,0.835,2.518c0.412,3.146-1.333,6.175-4.245,7.417       l-82.122,34.906c-0.692,0.282-1.408,0.468-2.137,0.53c-0.844,0.079-1.714,0-2.546-0.236l-85.493-23.925       c-3.002-0.844-5.107-3.549-5.169-6.671C134.786,172.448,134.816,172.145,134.851,171.855"/>
					<polygon style="fill:#8F7ECE;" points="315.609,158.149 227.308,195.5 134.853,171.77 134.802,171.757 134.854,171.734        202.781,146.75      "/>
					<polygon style="opacity:0.46;fill:#FFFFFF;" points="315.609,158.149 227.308,195.5 134.853,171.77 134.802,171.757        134.854,171.734 202.781,146.75      "/>
				</g>
				<g>
					<path style="fill:#8F7ECE;" d="M233.883,175.734l2.028,0.373c1.404,0.249,2.328,1.58,2.06,2.948       c-0.209,1.137-1.165,1.945-2.289,2.064c-0.233,0.021-0.473,0.016-0.718-0.033l-2.032-0.364       c-1.402-0.254-2.326-1.576-2.062-2.947C231.135,176.397,232.482,175.493,233.883,175.734"/>
					<path style="fill:#8F7ECE;" d="M222.719,173.735l2.03,0.364c1.404,0.254,2.326,1.576,2.059,2.943       c-0.216,1.134-1.176,1.951-2.296,2.06c-0.228,0.025-0.472,0.02-0.717-0.025l-2.032-0.363c-1.403-0.258-2.32-1.581-2.061-2.957       C219.969,174.385,221.315,173.481,222.719,173.735"/>
					<path style="fill:#8F7ECE;" d="M245.049,177.746l2.033,0.373c1.4,0.254,2.328,1.575,2.062,2.943       c-0.215,1.138-1.175,1.955-2.292,2.064c-0.23,0.021-0.478,0.012-0.724-0.028l-2.032-0.364c-1.4-0.258-2.324-1.576-2.06-2.948       C242.301,178.414,243.653,177.505,245.049,177.746"/>
					<path style="fill:#8F7ECE;" d="M178.047,165.687l2.035,0.372c1.392,0.246,2.318,1.568,2.053,2.944       c-0.218,1.134-1.171,1.95-2.289,2.064c-0.235,0.021-0.477,0.017-0.72-0.033l-2.034-0.359c-1.406-0.253-2.319-1.576-2.062-2.948       C175.298,166.351,176.647,165.442,178.047,165.687"/>
					<path style="fill:#8F7ECE;" d="M163.864,165.716c0.262-1.381,1.619-2.281,3.02-2.032l2.028,0.368       c1.4,0.254,2.319,1.572,2.062,2.948c-0.219,1.125-1.18,1.951-2.294,2.06c-0.233,0.021-0.48,0.008-0.72-0.033l-2.034-0.368       C164.525,168.405,163.6,167.092,163.864,165.716"/>
					<path style="fill:#8F7ECE;" d="M189.182,167.694l1.691,0.303l0.366,0.072l0.009-0.001l10.219,1.839l0.945,0.169l13.737,2.473       c1.4,0.258,2.319,1.577,2.062,2.948c-0.221,1.13-1.178,1.955-2.303,2.061c-0.228,0.02-0.473,0.016-0.714-0.02l-2.567-0.471l0,0       l-0.182-0.029l-11.928-2.153l-1.091-0.198l0,0l-9.508-1.706l-1.655-0.293l-0.002,0l-0.035-0.01       c-1.395-0.254-2.316-1.572-2.057-2.948C186.435,168.353,187.779,167.449,189.182,167.694"/>
					<path style="fill:#8F7ECE;" d="M253.416,167.747l2.039,0.331c1.409,0.217,2.359,1.514,2.123,2.892       c-0.197,1.163-1.157,2.002-2.301,2.119c-0.213,0.019-0.441,0.017-0.674-0.025l-2.036-0.323       c-1.405-0.218-2.356-1.523-2.122-2.901C250.683,168.463,252.012,167.52,253.416,167.747"/>
					<path style="fill:#8F7ECE;" d="M222.426,165.383c-0.2,1.159-1.165,2.012-2.307,2.11c-0.214,0.024-0.445,0.026-0.667-0.016       l-2.039-0.327c-1.407-0.221-2.351-1.515-2.119-2.892c0.228-1.386,1.556-2.319,2.964-2.098l2.043,0.322       C221.709,162.704,222.667,164.005,222.426,165.383"/>
					<path style="fill:#8F7ECE;" d="M210.708,163.526c-0.203,1.155-1.171,1.999-2.304,2.11c-0.215,0.023-0.442,0.017-0.667-0.021       l-2.044-0.327c-1.41-0.221-2.353-1.515-2.115-2.897c0.231-1.382,1.567-2.325,2.97-2.085l2.038,0.318       C209.989,160.847,210.941,162.144,210.708,163.526"/>
					<path style="fill:#8F7ECE;" d="M265.134,169.604l2.043,0.327c1.401,0.222,2.355,1.519,2.12,2.905       c-0.195,1.158-1.166,1.999-2.304,2.11c-0.219,0.024-0.436,0.025-0.667-0.016l-2.034-0.327c-1.414-0.217-2.36-1.523-2.126-2.9       C262.401,170.329,263.729,169.382,265.134,169.604"/>
					<path style="fill:#8F7ECE;" d="M241.695,165.889l2.045,0.322c1.403,0.218,2.35,1.515,2.123,2.896       c-0.199,1.163-1.165,2.008-2.306,2.119c-0.213,0.019-0.443,0.017-0.667-0.025l-2.041-0.327       c-1.405-0.217-2.353-1.519-2.12-2.887C238.96,166.596,240.293,165.658,241.695,165.889"/>
					<path style="fill:#8F7ECE;" d="M180.14,158.663c0.23-1.377,1.559-2.315,2.971-2.094l2.037,0.327       c1.403,0.222,2.358,1.523,2.116,2.906c-0.189,1.153-1.161,2.003-2.294,2.105c-0.222,0.033-0.441,0.017-0.671-0.016       l-2.034-0.319C180.85,161.342,179.903,160.05,180.14,158.663"/>
					<path style="fill:#8F7ECE;" d="M229.98,164.022l2.041,0.327c1.403,0.218,2.355,1.519,2.119,2.896       c-0.19,1.162-1.165,2.008-2.301,2.123c-0.215,0.019-0.437,0.012-0.667-0.025l-2.041-0.327c-1.405-0.222-2.354-1.523-2.121-2.91       C227.241,164.739,228.575,163.8,229.98,164.022"/>
					<path style="fill:#8F7ECE;" d="M198.987,161.664c-0.193,1.154-1.164,2.003-2.294,2.118c-0.225,0.011-0.449,0.013-0.674-0.02       l-2.039-0.332c-1.41-0.226-2.354-1.523-2.125-2.905c0.236-1.382,1.567-2.32,2.97-2.085l2.04,0.318       C198.272,158.985,199.224,160.282,198.987,161.664"/>
					<path style="fill:#8F7ECE;" d="M212.795,157.008c-0.184,0.016-0.384,0.015-0.576-0.008l-2.049-0.254       c-1.413-0.168-2.409-1.432-2.225-2.822c0.182-1.381,1.477-2.369,2.895-2.193l2.048,0.245c1.405,0.177,2.407,1.442,2.225,2.836       C214.954,156.001,213.976,156.896,212.795,157.008"/>
					<path style="fill:#8F7ECE;" d="M225.089,158.52c-0.185,0.025-0.378,0.019-0.578-0.004l-2.049-0.254       c-1.412-0.177-2.41-1.441-2.226-2.827c0.182-1.385,1.473-2.368,2.893-2.193l2.047,0.255c1.413,0.172,2.411,1.437,2.223,2.827       C227.246,157.514,226.269,158.404,225.089,158.52"/>
					<path style="fill:#8F7ECE;" d="M200.503,155.495c-0.183,0.024-0.376,0.019-0.574-0.004l-0.434-0.056       c-1.417-0.171-2.416-1.445-2.232-2.826c0.186-1.385,1.481-2.373,2.895-2.193l0.429,0.056c1.414,0.176,2.416,1.44,2.228,2.826       C202.663,154.493,201.681,155.379,200.503,155.495"/>
					<path style="fill:#8F7ECE;" d="M284.593,160.797l2.049,0.259c1.413,0.167,2.411,1.436,2.228,2.822       c-0.16,1.195-1.141,2.094-2.313,2.201c-0.197,0.022-0.387,0.024-0.58-0.004l-2.049-0.254c-1.418-0.171-2.413-1.432-2.225-2.827       C281.884,161.609,283.18,160.625,284.593,160.797"/>
					<path style="fill:#8F7ECE;" d="M232.527,156.953c0.179-1.385,1.481-2.374,2.894-2.202l2.051,0.254       c1.406,0.168,2.41,1.432,2.225,2.822c-0.158,1.194-1.14,2.099-2.311,2.214c-0.191,0.012-0.382,0.006-0.579-0.017l-2.049-0.25       C233.345,159.603,232.347,158.338,232.527,156.953"/>
					<path style="fill:#8F7ECE;" d="M244.817,158.457c0.182-1.381,1.484-2.365,2.895-2.188l2.053,0.249       c1.413,0.172,2.414,1.436,2.23,2.822c-0.162,1.195-1.142,2.095-2.318,2.21c-0.184,0.011-0.38,0.006-0.576-0.013l-2.055-0.249       C245.637,161.115,244.639,159.851,244.817,158.457"/>
					<path style="fill:#8F7ECE;" d="M272.299,159.285l2.051,0.254c1.407,0.173,2.411,1.437,2.228,2.831       c-0.161,1.186-1.14,2.094-2.318,2.21c-0.185,0.007-0.38,0.005-0.578-0.022l-2.053-0.25c-1.409-0.172-2.405-1.437-2.226-2.827       C269.587,160.106,270.887,159.117,272.299,159.285"/>
					<path style="fill:#8F7ECE;" d="M260.006,157.777l2.048,0.25c1.418,0.18,2.414,1.441,2.231,2.835       c-0.161,1.182-1.144,2.081-2.32,2.197c-0.189,0.012-0.379,0.015-0.572-0.013l-2.05-0.245c-1.416-0.18-2.414-1.441-2.23-2.826       C257.295,158.584,258.592,157.601,260.006,157.777"/>
				</g>
			</g>
		</g>
		<g>
			<g>
				<g>
					<path style="fill-rule:evenodd;clip-rule:evenodd;fill:#FFFFFF;" d="M356.936,193.749c0.517,1.835,2.31,3.419,2.928,5.606       c0.462,1.62,0.684,3.554,0.483,5.365c-0.386,3.49-3.323,5.365-3.946,8.124c14.045,2.719,29.329,4.233,44.96,6.118       c4.529,0.544,12.264,1.563,15.878-0.806c3.578-2.347,4.82-11.251,0.843-14.913c-2.505-2.307-8.541-3.432-13.866-4.019       c-10.036-1.096-22.099-1.471-31.516-2.946C367.001,195.387,361.805,194.458,356.936,193.749z"/>
					<g>
						<path style="fill-rule:evenodd;clip-rule:evenodd;fill:#8F7ECE;" d="M369.923,201.902c0.244,1.673,43.446,6.627,43.736,4.765        c0.207-1.295-10.745-1.944-21.505-3.051C380.886,202.454,369.776,200.882,369.923,201.902z"/>
						<path style="fill-rule:evenodd;clip-rule:evenodd;fill:#8F7ECE;" d="M361.489,205.564c0.243,1.669,43.446,6.623,43.742,4.76        c0.203-1.291-10.75-1.939-21.509-3.05C372.45,206.112,361.342,204.54,361.489,205.564z"/>
					</g>
				</g>
				<g>
					<path style="fill-rule:evenodd;clip-rule:evenodd;fill:#4D3D87;" d="M414.493,203.459c3.42,2.44,4.39,9.429,1.179,12.208       c-17.258-1.428-35.125-3.594-53.151-4.32c-2.221-0.089-6.621-1.225-7.003,1.624c-0.397,2.928,4.304,2.643,6.47,2.981       c14.766,2.312,31.016,5.088,47.827,5.093c3.007,0.005,6.641,0.184,8.956-0.704c1.83-0.701,3.769-3.201,5.306-5       c7.488-8.744,15.096-19.226,21.453-28.781c2.42-3.632,6.227-8.594,6.933-12.484c1.453-7.992-4.44-9.813-11.014-11.371       c-4.724-1.118-9.43-1.49-13.564-1.946c-10.498-1.149-18.546-2.824-26.836-3.93c-6.261-0.838-12.039,5.689-15.938,8.664       c-8.502,6.482-14.195,10.819-22.376,18.352c-2.118,1.957-9.163,8.269-8.075,10.843c1.16,2.744,10.889,2.594,14.325,3.04       C384.331,199.71,399.4,201.724,414.493,203.459z"/>
					<path style="opacity:0.12;fill-rule:evenodd;clip-rule:evenodd;" d="M421.06,203.728c3.372,1.079,28.105-33.784,26.661-34.993       c-0.947-0.8-6.088,7.119-12.279,15.265C428.263,193.442,420.031,203.4,421.06,203.728z"/>
				</g>
			</g>
			<g>
				<path style="fill-rule:evenodd;clip-rule:evenodd;fill:#FFFFFF;" d="M439.966,162.92c-1.104-2.374-3.194-3.136-4.406-5.395      c-0.82-1.524-1.243-3.95-2.044-5.735c-2.238,0.572-3.731,4.361-5.052,6.77c-2.755,5.023-4.518,8.926-7.558,14.382      c-1.12,2.014-2.974,5.765-4.502,6.393c-3.427,1.408-10.015-0.26-13.981-0.676c-9.467-0.99-16.52-1.975-26.911-2.412      c-5.841-0.245-13.682,0.047-13.628,5.913c0.05,5.553,6.084,7.164,10.883,8.374c5.015,1.265,10.299,2.211,14.623,2.996      c4.654,0.844,9.334,1.96,15.167,2.615c4.804,0.538,11.948,1.803,16.306,0.035c2.465-0.996,4.98-5.271,6.444-7.58      C430.871,179.808,434.52,171.766,439.966,162.92z"/>
				<g>
					<path style="fill-rule:evenodd;clip-rule:evenodd;fill:#889922;" d="M440.527,160.485       c-1.591-0.865-12.291,18.046-17.045,25.969c-1.739,2.9-3.083,7.378-5.424,8.335c-3.068,1.257-11.61-0.454-14.618-0.884       c-9.79-1.39-17.389-2.636-26.964-4.819c-3.334-0.761-10.651-1.759-12.05-3.974c-0.828-1.321-1.417-3.77-0.69-4.728       c1.411-1.862,8.966-0.942,13.178-0.717c11.011,0.584,21.248,2.206,32.492,3.41c2.319,0.247,5.086,0.734,6.672,0.232       c2.52-0.794,4.031-4.887,5.555-7.45c4.778-8.03,13.589-22.272,12.387-24.748c-1.302-2.689-34.87-5.654-47.949-3.866       c-1.523,0.205-4.576,0.517-6.673,1.877c-6.265,4.073-11.985,15.174-15.389,22.767c-1.29,2.882-3.15,6.398-3.225,8.926       c-0.205,7.13,3.44,8.019,8.307,9.348c11.852,3.237,22.457,4.728,35.373,6.609c1.952,0.283,4.749,0.8,7.394,1.038       c2.694,0.24,6.02,0.559,8.112-0.28c2.281-0.914,4.329-5.946,5.716-8.382C429.327,182.761,441.841,161.201,440.527,160.485z"/>
					<path style="opacity:0.12;fill-rule:evenodd;clip-rule:evenodd;" d="M370.413,174.178c0.717,0.928,2.627-2.126,3.618-3.828       c1.894-3.271,6.2-9.15,8.16-13.119c1.162-2.347,3.423-6.7,2.267-7.276c-0.907-0.449-2.729,3.001-3.705,4.723       c-2.054,3.63-6.265,9.912-8.457,13.678C371.431,169.851,369.499,172.995,370.413,174.178z"/>
				</g>
				<g>
					<path style="fill:#8F7ECE;" d="M420.985,184.262c-1.25,1.77-2.431,3.569-3.71,5.219c-0.488,0.604-1.049,1.246-1.493,1.56       c-0.107,0.08-0.2,0.094-0.128,0.066c0.111-0.008-0.088,0-0.125-0.003l-0.253-0.01c-0.376-0.027-0.782-0.067-1.183-0.111       c-1.621-0.168-3.272-0.362-4.918-0.586c-3.3-0.379-6.605-0.779-9.935-1.051c-2.13-0.18-4.266-0.337-6.412-0.416       c-1.206-0.048-1.469,0.576-0.382,0.865c2.161,0.567,4.337,1.045,6.519,1.476c3.281,0.666,6.585,1.17,9.913,1.596       c1.667,0.174,3.33,0.366,5.035,0.457c0.431,0.019,0.853,0.039,1.317,0.032l0.372-0.016c0.175-0.013,0.183,0.003,0.499-0.06       c0.474-0.116,0.754-0.316,0.974-0.49c0.872-0.721,1.298-1.455,1.786-2.197c1.182-1.941,2.118-3.945,2.966-5.98       C422.272,183.554,421.667,183.289,420.985,184.262z"/>
					<path style="fill-rule:evenodd;clip-rule:evenodd;fill:#8F7ECE;" d="M366.928,181.378c0.244,1.673,43.446,6.627,43.736,4.765       c0.208-1.291-10.744-1.944-21.505-3.051C377.892,181.93,366.782,180.358,366.928,181.378z"/>
				</g>
			</g>
		</g>
	</g>
	<g>
		<g>
			<path style="fill:#4D3D87;" d="M233.032,366.579c4.513-0.283,11.521,2.026,13.298-1.449c1.465-2.873-1.204-9.394-2.402-12.73     c-2.823-7.841-7.877-16.618-14.975-19.898c-7.706-3.547-17.829-4.155-27.979-5.338c-10.586-1.236-21.231-3.042-30.086-3.101     c-1.679-1.157-1.475-3.428-2.077-5.249c-8.389-25.603-19.42-52.76-30.516-75.715c-6.328-13.092-12.701-24.725-22.977-33.397     c-10.264-8.655-24.868-12.845-42.294-13.995c-15.063-1.008-27.251,1.955-28.749,15.988c-1.174,11.024,2.736,22.843,5.484,32.205     c8.126,27.691,21.556,56.773,30.847,80.585c-14.66,0.268-13.258,19.981-12.371,34.762c1.163,1.496,3.066,2.214,5.943,1.892     c-4.634,35.898-25.71,129.509-25.987,131.54l8.028,0.029c0.166-1.492,23.982-95.07,29.861-131.149     c19.863,0.653,42.796,1.278,64.023,1.729c1.758,5.404,17.929,97.426,22.794,129.843l7.437,0.027     c-3.729-37.065-13.069-92.583-16.579-129.446c18.156-0.14,38.296,0.834,56.328,2.08c10.993,30.196,42.76,122.819,44.494,127.671     l7.615,0.027C261.011,457.369,244.124,402.967,233.032,366.579z M90.059,323.39c-6.364-16.906-13.659-34.084-21.148-53.219     c-4.848-12.382-10.897-27.32-13.842-42.346c-1.616-8.227-3.486-20.23,3.925-21.319c17.241,35.881,29.216,77.347,43.317,116.563     C98.012,322.946,94.527,323.698,90.059,323.39z M112.112,322.724c-14.177-39.385-25.909-81.351-43.669-116.937     c4.612-0.293,7.934,0.773,12.248,0.796c13.388,37.978,26.415,76.339,38.069,116.165L112.112,322.724z M128.555,322.784     c-8.272-29.196-18.196-58.659-27.684-86.184c-2.912-8.465-6.184-16.641-8.657-24.733c-0.21-0.689-1.885-2.316-0.338-3.003     c3.348,0.92,6.644,1.898,9.435,3.407c9.351,38.167,22.542,72.256,31.798,110.529L128.555,322.784z M142.909,322.836     c-8.653-35.429-20.774-69.171-30.084-102.663c11.655,13.419,19.222,30.86,26.774,48.382c7.65,17.728,14.344,36.44,21.148,54.724     C154.42,323.531,149.182,322.633,142.909,322.836z"/>
			<g>
				<path style="fill-rule:evenodd;clip-rule:evenodd;fill:#FFFFFF;" d="M96.088,335.644c-2.532-3.961,8.977-5.726,7.605-1.232      C102.979,336.756,98.142,336.424,96.088,335.644z"/>
				<path style="fill-rule:evenodd;clip-rule:evenodd;fill:#FFFFFF;" d="M89.003,332.095c0.922,0.249,2.683,1.284,2.079,3.225      c-0.781,2.537-5.688,3.652-7.547,4.49c-2.268,1.017-6.113,4.027-8.307,2.22c-3.129-2.58,3.242-6.069,5.476-7.17      c1.193-0.587,2.41-1.038,3.438-1.48C85.903,332.626,87.23,331.623,89.003,332.095z"/>
			</g>
		</g>
		<g>
			<g>
				<g>
					<g>
						<g>
							<path style="fill-rule:evenodd;clip-rule:evenodd;fill:#F7C4AD;" d="M262.394,432.054c0.386-1.432,8.052-0.88,8.443-2.31         c2.442-8.936,4.928-17.828,6.77-26.671c-10.962-1.958-23.627-6.29-33.629-6.658c-2.738,9.84-4.014,18.906-5.843,29.442         c-0.066,0.374-0.133,0.754-0.202,1.139c-0.395,2.19,6.516,4.562,6.111,7.05L262.394,432.054z"/>
							<path style="fill:#4D3D87;" d="M236.466,456.109c-1.784-3.612-1.11-10.78-0.657-15.495c0.468-4.963,1.396-9.575,2.118-13.619         l32.906,2.747c-0.983,3.605-1.956,7.212-2.885,10.827c-1.09,4.275-2.556,8.623-2.62,12.719         c-0.105,5.897,3.022,11.692,6.926,18.616c2.302,4.079,7.729,11.704,4.724,14.495c-2.071,1.918-7.332-0.843-10.513-2.716         c-7.616-4.5-13.995-10.423-20.491-16.661C242.452,463.625,238.333,459.883,236.466,456.109z"/>
						</g>
						<g>
							<path style="fill-rule:evenodd;clip-rule:evenodd;fill:#FFFFFF;" d="M252.488,465.606c0.39-0.986-0.41-1.704-1.125-2.402         c-0.552-0.536-1.318-1.178-2.11-1.074c-1.109,0.145-0.882,1.687-0.321,2.476c0.177,0.251,0.774,0.782,1.11,1.046         C250.758,466.197,252.059,466.694,252.488,465.606z"/>
							<path style="fill-rule:evenodd;clip-rule:evenodd;fill:#FFFFFF;" d="M249.637,457.582c0.455-1.307-0.566-2.17-1.5-2.802         c-1.21-0.824-3.023-1.699-4.55-2.392c-1.888-0.846-5.247-1.351-5.542,0.94c-0.311,2.41,4.183,3.901,6.467,4.738         C246.177,458.676,249.001,459.473,249.637,457.582z"/>
						</g>
					</g>
					<g>
						<path style="fill-rule:evenodd;clip-rule:evenodd;fill:#889922;" d="M234.388,413.346c0.139,0.045,0.277,0.088,0.415,0.14        c0.213,0.015,0.45,0.034,0.722,0.059c1.316,0.089,2.637,0.198,3.959,0.319c4.091,0.522,8.178,1.037,12.234,1.769        c6.554,1.18,13.068,2.549,19.546,4.112c3.318,0.799,6.642,1.655,9.95,2.518c1.902-5.95,3.686-11.955,5.485-17.965        c3.728-12.487,7.466-25.15,11.008-38.152c5.087-18.734,8.786-38.257,11.551-57.007c1.746-11.836,5.123-27.339-6.678-37.991        c-6.044-5.452-14.754-7.354-21.891-8.816c-6.202-1.264-12.57-2.005-18.146-2.672c-36.706-4.345-75.933-3.123-111.064,0.482        c-0.738,28.763-0.061,58.004,1.3,86.776c28.802-2.504,58.014-10.251,86.357-14.735c4.116-0.651,8.273-1.891,12.504-1.598        c-6.949,25.882-11.919,52.033-16.358,77.738C234.994,409.997,234.691,411.671,234.388,413.346z"/>
						<path style="opacity:0.12;fill-rule:evenodd;clip-rule:evenodd;" d="M234.388,413.346c0.139,0.045,0.277,0.088,0.415,0.14        c0.213,0.015,0.45,0.034,0.722,0.059c1.316,0.089,2.637,0.198,3.959,0.319c4.091,0.522,8.178,1.037,12.234,1.769        c6.554,1.18,13.068,2.549,19.546,4.112c3.318,0.799,6.642,1.655,9.95,2.518c1.902-5.95,3.686-11.955,5.485-17.965        c3.728-12.487,7.466-25.15,11.008-38.152c5.087-18.734,8.786-38.257,11.551-57.007c1.746-11.836,5.123-27.339-6.678-37.991        c-6.044-5.452-14.754-7.354-21.891-8.816c-6.202-1.264-12.57-2.005-18.146-2.672c-36.706-4.345-75.933-3.123-111.064,0.482        c-0.738,28.763-0.061,58.004,1.3,86.776c28.802-2.504,58.014-10.251,86.357-14.735c4.116-0.651,8.273-1.891,12.504-1.598        c-6.949,25.882-11.919,52.033-16.358,77.738C234.994,409.997,234.691,411.671,234.388,413.346z"/>
						<path style="opacity:0.12;" d="M234.388,413.346c0.139,0.045,0.277,0.088,0.415,0.14c0.213,0.015,0.45,0.034,0.722,0.059        c1.316,0.089,2.637,0.198,3.959,0.319c3.478,0.448,6.956,0.909,10.414,1.478c0.373-1.766,0.755-3.534,1.178-5.297        c3.609-15.299,8.54-30.781,12.457-46.163c1.306-5.178,2.013-10.553,2.888-15.554c0.804-4.63,2.069-9.555,1.952-15.55        c-0.101-4.985-0.387-12.109-5.121-15.581c-3.145-2.301-11.122-1.332-16.267-0.777c-6.061,0.656-11.834,1.108-16.275,1.585        c-22.733,2.46-42.266,6.762-65.341,7.978c-4.302,0.227-8.743,0.367-13.122,0.212c0.054,6.905,0.207,13.81,0.534,20.724        c28.802-2.504,58.014-10.251,86.357-14.735c4.116-0.651,8.273-1.891,12.504-1.598c-6.949,25.882-11.919,52.033-16.358,77.738        C234.994,409.997,234.691,411.671,234.388,413.346z"/>
						<g>
							<g>
								<path style="fill-rule:evenodd;clip-rule:evenodd;fill:#FFFFFF;" d="M302.319,300.985c-0.465-0.212-0.94-0.214-1.41-0.005          c-2.838-3.554-0.819-7.759-0.189-12.029c0.243-1.583,0.227-6.62,3.555-4.464c0.933,0.605,1.151,3.477,1.163,4.021          C305.568,292.146,304.803,298.296,302.319,300.985z"/>
								<path style="fill-rule:evenodd;clip-rule:evenodd;fill:#FFFFFF;" d="M299.677,312.998c-2.353-2.129-1.192-4.243,0.731-6.36          c3.606-0.638,3.292,4.001,0.923,6.129C300.782,312.68,300.231,312.924,299.677,312.998z"/>
							</g>
						</g>
					</g>
				</g>
				<g>
					<g>
						<g>
							<path style="fill-rule:evenodd;clip-rule:evenodd;fill:#F7C4AD;" d="M111.346,455.222c2.625,3.559,4.597,2.387,6.922,5.978         l1.359,2.266c1.788-1.036,3.312,0.095,5.106-0.929c8.045-4.597,16.09-9.132,23.645-14.089         c-6.377-9.131-12.278-21.143-19.092-28.471c-8.888,5.026-16.194,10.536-24.948,16.702c-0.307,0.216-0.62,0.435-0.937,0.656         c-1.02,0.71,2.074,4.444,0.971,5.211C108.065,447.786,107.541,450.063,111.346,455.222z"/>
							<path style="fill:#4D3D87;" d="M81.783,456.906c1.291-3.822,6.846-8.42,10.49-11.433c3.838-3.176,7.758-5.785,11.127-8.139         l21.332,25.2c-3.234,1.85-6.473,3.721-9.687,5.618c-3.795,2.253-7.91,4.305-10.846,7.155         c-4.242,4.091-6.121,10.407-8.257,18.061c-1.254,4.512-2.807,13.748-6.9,13.59c-2.816-0.102-4.592-5.771-5.515-9.348         c-2.211-8.571-2.541-17.259-2.721-26.271C80.709,466.45,80.437,460.888,81.783,456.906z"/>
						</g>
						<g>
							<path style="fill-rule:evenodd;clip-rule:evenodd;fill:#FFFFFF;" d="M86.405,474.942c0.977-0.427,0.926-1.499,0.915-2.499         c-0.012-0.767-0.108-1.757-0.739-2.25c-0.893-0.681-1.819,0.58-1.975,1.522c-0.055,0.307-0.004,1.106,0.049,1.53         C84.77,474.142,85.339,475.408,86.405,474.942z"/>
							<path style="fill-rule:evenodd;clip-rule:evenodd;fill:#FFFFFF;" d="M90.066,467.256c1.245-0.619,1.121-1.939,0.917-3.046         c-0.272-1.441-0.938-3.345-1.531-4.913c-0.731-1.931-2.755-4.655-4.587-3.251c-1.911,1.483,0.207,5.72,1.224,7.929         C86.84,465.581,88.281,468.138,90.066,467.256z"/>
						</g>
					</g>
					<g>
						<path style="fill-rule:evenodd;clip-rule:evenodd;fill:#889922;" d="M110.537,425.173c0.069,0.134,0.132,0.263,0.192,0.394        c0.143,0.159,0.296,0.343,0.478,0.551c0.863,0.998,1.725,1.999,2.568,3.021c2.527,3.266,5.05,6.517,7.409,9.904        c3.806,5.466,7.444,11.035,10.918,16.715c1.786,2.927,3.533,5.871,5.269,8.817c5.544-2.87,11.054-5.85,16.574-8.832        c11.461-6.202,23.052-12.514,34.747-19.215c16.84-9.653,33.254-20.852,48.466-32.166c9.598-7.14,22.944-15.716,22.121-31.598        c-0.426-8.127-5.235-15.623-9.262-21.709c-3.49-5.274-7.467-10.298-10.945-14.708c-22.896-29.014-51.518-55.874-78.918-78.148        c-20.851,19.818-41.033,40.986-60.399,62.307c22.143,18.582,48.276,33.741,71.499,50.607c3.377,2.45,7.19,4.51,9.97,7.703        c-23.203,13.399-45.2,28.392-66.498,43.436C113.336,423.233,111.937,424.203,110.537,425.173z"/>
						<path style="opacity:0.12;" d="M110.537,425.173c0.069,0.134,0.132,0.263,0.192,0.394c0.143,0.159,0.296,0.343,0.478,0.551        c0.863,0.998,1.725,1.999,2.568,3.021c2.148,2.772,4.276,5.557,6.325,8.413c1.508-0.989,3.031-1.969,4.579-2.919        c13.375-8.274,27.795-15.748,41.436-23.856c4.589-2.736,8.882-6.041,13.03-8.961c3.846-2.704,8.221-5.299,12.375-9.622        c3.453-3.596,8.283-8.847,7.388-14.644c-0.595-3.843-6.928-8.801-10.96-12.048c-4.753-3.819-9.154-7.581-12.634-10.378        c-17.822-14.325-34.681-25.09-51.87-40.535c-3.207-2.88-6.443-5.916-9.431-9.122c-4.844,4.922-9.618,9.921-14.26,15.04        c22.143,18.582,48.276,33.741,71.499,50.607c3.377,2.45,7.19,4.51,9.97,7.703c-23.203,13.399-45.2,28.392-66.498,43.436        C113.336,423.233,111.937,424.203,110.537,425.173z"/>
						<g>
							<g>
								<path style="fill-rule:evenodd;clip-rule:evenodd;fill:#FFFFFF;" d="M238.013,393.696c-0.186-0.478-0.517-0.816-1.001-1.003          c0.506-4.527,4.902-6.073,8.367-8.639c1.295-0.956,4.842-4.531,5.675-0.648c0.234,1.085-1.65,3.263-2.018,3.655          C246.56,389.735,241.671,393.551,238.013,393.696z"/>
								<path style="fill-rule:evenodd;clip-rule:evenodd;fill:#FFFFFF;" d="M227.649,400.326c-0.162-3.173,2.162-3.848,5.018-3.981          c2.992,2.092-0.504,5.153-3.691,4.983C228.652,400.876,228.093,400.659,227.649,400.326z"/>
							</g>
							<g>
								<path style="fill-rule:evenodd;clip-rule:evenodd;fill:#FFFFFF;" d="M178.232,286.444c-3.826,0.06-6.767-2.529-8.988-4.364          c-2.176-1.797-5.217-3.998-5.641-7.361c2.317-1.452,5.987,0.507,8.657,2.704          C174.99,279.659,179.926,283.369,178.232,286.444z"/>
								<path style="fill-rule:evenodd;clip-rule:evenodd;fill:#FFFFFF;" d="M178.196,296.45c-2.538,1.047-4.858-0.77-6.328-2.02          c-1.406-1.193-3.523-3.089-3.317-5.35C171.249,287.572,179.188,291.635,178.196,296.45z"/>
							</g>
						</g>
					</g>
				</g>
			</g>
			<g>
				<path style="fill-rule:evenodd;clip-rule:evenodd;fill:#4D3D87;" d="M168.384,166.025c-0.135,4.262,0.481,7.985,1.395,11.479      c-12.912,1.074-25.784,2.48-38.617,4.215c0.923-33.172-36.356-96.789,2.113-103.217l21.02-1.189      c2.015,5.227,4.477,9.874,7.187,14.309c4.244,6.956,9.501,13.074,12.59,20.912c3.516,8.911,3.547,19.568,1.307,28.461      C173.329,149.214,168.671,156.643,168.384,166.025z"/>
				<g>
					<g>
						<g>
							<path style="fill-rule:evenodd;clip-rule:evenodd;fill:#F7C4AD;" d="M258.785,133.193         c-9.217,5.185-17.797,10.683-25.957,16.023c7.475,8.833,11.261,12.868,18.617,21.021c4.842-3.839,12.212-4.774,16.625-8.736         c6.804-6.102,14.673-13.257,22.757-20.348c5.41-4.735,11.646-10.072,17.229-15.308c4.752-4.457,3.845-9.664-3.066-10.4         c-9.345-0.994-17.05,3.602-24.799,7.194C272.828,126.046,265.649,129.338,258.785,133.193z"/>
							<path style="fill-rule:evenodd;clip-rule:evenodd;fill:#F7C4AD;" d="M317.168,117.613c1.495,0.122,6.539-0.396,8.915,0.19         c0.915,0.228,1.941,0.76,1.914,1.595c-0.04,1.754-4.065,1.795-5.464,2.012c-2.423,0.359-4.08,0.753-6.157,0.999         c1.684,0.374,6.573-0.154,9.523,0.407c1.232,0.231,2.609,0.731,2.532,1.802c-0.097,1.361-3.392,1.776-4.494,1.94         c-5.323,0.836-11.241,1.811-15.324,3.309c-4.688,1.727-8.51,3.837-12.336,6.883c-0.919,0.732-2.582,2.688-3.761,2.637         c-0.56-0.021-1.731-0.903-2.109-1.294c-1.316-1.344-2.331-3.375-3.721-5.845c-0.533-0.94-1.099-1.858-1.591-3.129         c-0.41-1.037-1.306-2.726-1.274-3.259c0.037-0.85,1.407-2.367,2.238-3.254c2.416-2.59,6.087-5.958,8.141-8.05         c1.78-1.809,3.653-3.714,5.335-5.481c1.595-1.67,6.803-7.198,9.223-5.45c1.987,1.435-3.701,6.198-4.53,7.922         c3.025-1.4,8.278-2.893,13.867-3.119c1.467-0.058,4.547-0.342,4.854,0.916c0.422,1.716-2.019,2.027-3.112,2.386         c-1.507,0.496-2.576,1.014-3.946,1.206c2.021,0.271,6.554-0.31,8.9,0.351c0.759,0.208,1.595,0.746,1.613,1.407         c0.014,1.498-2.422,1.514-4.011,1.829c-2.175,0.426-3.555,0.84-5.061,1.102C317.285,117.62,317.232,117.62,317.168,117.613z"/>
						</g>
					</g>
					<g>
						<g>
							<g>
								<path style="fill-rule:evenodd;clip-rule:evenodd;fill:#FF5000;" d="M189.698,154.339          c13.956-6.169,30.712-13.387,46.106-19.769c2.093-0.862,4.948-2.233,7.739-3.295c2.4-0.915,6.522-2.386,8.782-2.031          c3.184,0.508,8.487,9.282,10.382,12.032c1.677,2.43,2.925,4.848,4.257,7.041c1.545,2.554,3.982,5.023,4.319,8.678          c0.403,4.403-3.108,6.653-6.512,8.821c-9.932,6.348-19.249,10.773-30.153,16.441c-14.048,7.298-27.034,16.082-46.948,15.532          c-9.631-0.264-20.555-3.784-29.914-7.883c-17.53-7.676-32.755-18.488-46.656-30.141c-3.245-2.708-6.603-6.34-9.631-9.759          c-5.352-6.041-13.313-15.378-10.046-26.824c2.383-8.349,9.291-10.904,19.964-9.087c13.959,2.382,26.624,8.483,36.43,14.165          C162.11,136.534,175.348,145.542,189.698,154.339z"/>
								<path style="opacity:0.26;fill-rule:evenodd;clip-rule:evenodd;" d="M189.698,154.339          c13.956-6.169,30.712-13.387,46.106-19.769c2.093-0.862,4.948-2.233,7.739-3.295c2.4-0.915,6.522-2.386,8.782-2.031          c3.184,0.508,8.487,9.282,10.382,12.032c1.677,2.43,2.925,4.848,4.257,7.041c1.545,2.554,3.982,5.023,4.319,8.678          c0.403,4.403-3.108,6.653-6.512,8.821c-9.932,6.348-19.249,10.773-30.153,16.441c-14.048,7.298-27.034,16.082-46.948,15.532          c-9.631-0.264-20.555-3.784-29.914-7.883c-17.53-7.676-32.755-18.488-46.656-30.141c-3.245-2.708-6.603-6.34-9.631-9.759          c-5.352-6.041-13.313-15.378-10.046-26.824c2.383-8.349,9.291-10.904,19.964-9.087c13.959,2.382,26.624,8.483,36.43,14.165          C162.11,136.534,175.348,145.542,189.698,154.339z"/>
							</g>
							<path style="opacity:0.26;" d="M176.918,157.503c1.028,2.669,5.87,0.241,8.501-1.029c1.395-0.679,2.957-1.368,4.246-2.155         c-2.304-1.414-4.579-2.835-6.834-4.256c-0.679,0.565-1.374,1.23-2.205,2.021C179.54,153.113,176.174,155.559,176.918,157.503         z"/>
						</g>
						<path style="fill-rule:evenodd;clip-rule:evenodd;fill:#FF5000;" d="M262.212,126.039c3.027,2.405,6.244,7.16,9.03,11.606        c1.371,2.193,2.703,4.278,4.157,6.412c1.362,1.985,3.752,5.19,3.803,7.188c0.063,2.758-5.288,8.751-8.945,8.145        c-2.727-0.456-8.201-11.657-9.518-13.917c-1.588-2.734-2.494-4.018-4.578-7.159c-1.221-1.844-4.054-5.281-3.445-7.985        C253.419,127.192,259.233,126.589,262.212,126.039z"/>
					</g>
				</g>
				<g>
					<path style="fill-rule:evenodd;clip-rule:evenodd;fill:#FF5000;" d="M284.964,93.606c2.089,0.095,3.683,1.554,5.387,2.392       c5.007,2.475,10.468,5.081,15.835,7.698c6.987,3.41,14.262,6.569,20.897,10.602c13.453,8.184,27.755,15.094,42.017,21.057       c-0.155,2.711-2.008,4.939-3.086,7.385c-1.066,2.437-1.962,4.949-3.091,7.395c-6.566,14.279-11.992,29.412-19.134,43.846       c-13.305-5.271-25.432-13.373-38.088-20.971c-6.223-3.717-12.523-7.548-18.808-11.374c-6.589-4.023-13.093-7.991-19.251-12.59       C273.198,130.528,278.693,111.995,284.964,93.606"/>
					<path style="fill-rule:evenodd;clip-rule:evenodd;fill:#FFFFFF;" d="M286.967,98.828c7.803,6.701,16.917,10.673,26.644,13.058       c2.675,0.656,6.462,0.436,8.068,1.522c1.921,1.314,3.044,3.791,4.619,5.277c9.269,8.819,22.261,14.724,33.662,17.039       c0.827,0.168,2.142-0.31,2.668,0.629c-4.68,9.452-8.371,19.034-11.566,28.75c-3.206,9.77-7.964,19.014-11.93,28.681       c-7.16-0.802-14.073-3.028-20.596-6.042c-6.69-3.093-12.659-8.018-17.921-16.126c-2.641-0.393-5.104-0.467-7.669-0.893       c-2.516-0.413-4.799-0.928-7.282-2.329c-4.59-2.619-9.878-6.993-13.339-11.428c-0.777-0.976-1.844-2.354-2.12-3.361       c-0.368-1.331,1.051-4.893,1.68-7.056c4.022-13.779,8.292-27.315,12.548-40.992C285.13,103.313,285.063,100.648,286.967,98.828       "/>
					<g>
						<path style="fill-rule:evenodd;clip-rule:evenodd;fill:#8F7ECE;" d="M300.143,169.841c-0.188-0.221-0.185-0.407-0.037-0.57        c4.477-13.828,10.217-27.78,15.358-41.653c1.263-3.418,2.284-6.904,3.717-10.482c0.414-1.025,0.525-2.65,2.08-2.864        c0.651,1.229-0.542,2.488-0.963,3.608c-6.242,16.876-12.559,34.623-18.973,51.787        C300.789,170.223,300.596,169.545,300.143,169.841"/>
						<g>
							<path style="fill-rule:evenodd;clip-rule:evenodd;fill:#8F7ECE;" d="M282.211,131.709c2.126,0.128,5.437,2.227,6.589,4.283         C286.381,135.841,283.426,134.06,282.211,131.709"/>
							<path style="fill-rule:evenodd;clip-rule:evenodd;fill:#8F7ECE;" d="M284.771,123.473c1.742-0.949,3.141,0.966,4.265,1.652         c2.544,1.544,5.151,2.765,7.978,3.957c1.221,0.512,3.249,0.923,3.494,2.451c-2.934-0.08-5.758-1.674-8.401-3.083         C289.527,127.09,286.353,125.869,284.771,123.473"/>
							<path style="fill-rule:evenodd;clip-rule:evenodd;fill:#8F7ECE;" d="M285.904,113.508c1.111-1.197,2.14,0.407,2.785,0.839         c5.633,3.8,11.625,6.737,17.616,9.499c0.847,0.386,2.058,0.806,2.376,1.705c-0.783,1.295-2.108-0.016-2.764-0.265         c-2.717-1.024-5.647-2.408-8.563-3.866c-3.927-1.963-7.678-4.312-11.151-6.917         C286.012,114.156,285.594,113.772,285.904,113.508"/>
							<path style="fill-rule:evenodd;clip-rule:evenodd;fill:#8F7ECE;" d="M288.283,108.066c1.636-0.875,2.67,0.925,3.547,1.534         c5.755,3.983,13.474,7.061,20.292,8.62c1.13,0.259,2.708,0.179,3.414,1.31c-1.93,1.3-4.797-0.11-6.947-0.763         c-6.591-1.998-14.154-5.175-20.003-9.702C288.211,108.689,288.386,108.406,288.283,108.066"/>
						</g>
						<g>
							<path style="fill-rule:evenodd;clip-rule:evenodd;fill:#8F7ECE;" d="M306.946,164.758c1.858-0.453,2.892,1.33,3.944,2.161         c6.898,5.474,15.607,9.989,23.618,12.369c1.206,0.362,3.088,0.02,3.557,1.523c-2.74,0.452-5.597-0.719-8.194-1.728         c-5.177-1.995-10.32-4.256-15.343-7.428C311.615,169.816,308.566,167.571,306.946,164.758"/>
							<path style="fill-rule:evenodd;clip-rule:evenodd;fill:#8F7ECE;" d="M309.713,154.304c1.821-1.057,2.909,1.294,3.95,2.16         c7.252,6.084,16.352,10.903,24.774,13.694c1.259,0.416,3.109,0.672,3.814,1.949c-1.305,1.012-2.994-0.143-4.192-0.511         c-9.343-2.861-19.654-9.168-27.911-16.077C310.225,155.58,309.237,154.5,309.713,154.304"/>
							<path style="fill-rule:evenodd;clip-rule:evenodd;fill:#8F7ECE;" d="M314.429,146.435c1.954-0.105,2.85,1.811,3.983,2.732         c7.176,5.833,16.677,9.645,25.031,12.032c1.427,0.419,3.167,0.576,4.273,1.652c-1.267,1.281-2.999,0.222-4.293-0.147         c-7.16-2.05-13.724-4.678-20.919-9.098c-2.793-1.725-6.212-3.416-7.736-5.605         C314.568,147.707,313.874,147.069,314.429,146.435"/>
							<path style="fill-rule:evenodd;clip-rule:evenodd;fill:#8F7ECE;" d="M318.187,136.529c1.961-0.078,2.655,1.86,3.746,2.88         c6.685,6.182,15.318,10.203,23.304,12.879c1.175,0.397,3.05,0.74,3.354,2.244c-1.522,0.682-2.783-0.447-4.097-0.859         c-9.199-2.978-18.139-7.521-26.232-16.002C317.889,137.233,317.818,136.843,318.187,136.529"/>
							<path style="fill-rule:evenodd;clip-rule:evenodd;fill:#8F7ECE;" d="M321.726,128.839c1.547-0.753,2.66,1.545,3.847,2.522         c6.858,5.583,14.947,9.492,22.964,11.317c1.312,0.298,2.965,0.573,3.905,1.587c-1.172,0.933-3.02,0.506-4.383,0.217         c-6.423-1.389-12.783-4.528-18.758-8.749C326.419,133.696,323.23,132.014,321.726,128.839"/>
						</g>
					</g>
				</g>
				<g>
					<g>
						<path style="fill-rule:evenodd;clip-rule:evenodd;fill:#FF5000;" d="M101.07,319.57        c-8.289-10.151-15.484-21.261-17.753-37.653c-2.227-16.083-1.238-33.504-0.609-51.223c0.575-16.117,0.662-34.717,0.689-51.608        c0.022-18.201,0.698-34.018,6.519-45.948c4.648-9.52,14.144-17.695,28.888-15.398c6.252,0.98,12.331,3.998,17.392,7.127        c15.288,9.426,23.01,28.306,25.26,51.451c1.17,11.987,0.078,24.289-0.361,36.477c-0.216,5.933-0.448,11.985-0.537,17.763        c-0.091,6.199-0.541,12.107-0.532,17.761c0.005,2.733,0.805,6.319,0.373,8.522c-0.492,2.544-4.878,5.67-7.196,8.203        C136.166,283.652,117.704,301.865,101.07,319.57z"/>
						<path style="fill:#FF5000;" d="M87.935,135.111c-5.816,11.92-6.487,27.742-6.519,45.943        c-0.027,16.891-0.114,35.489-0.684,51.608c-0.634,17.719-1.618,35.135,0.609,51.221c2.27,16.39,9.459,27.502,17.749,37.651        c4.622-4.921,9.39-9.88,14.226-14.878c-5.569-5.197-10.542-10.927-13.345-17.353c-4.784-10.979-5.466-25.583-6.695-40.108        c-1.261-15.061-1.406-30.301-1.972-44.926c-0.553-14.24-0.139-28.822,0.749-42.734c0.888-13.789,2.049-27.651,6.553-37.736        c0.187-0.416,0.383-0.793,0.584-1.162C94.099,125.577,90.355,130.158,87.935,135.111z"/>
						<path style="opacity:0.26;" d="M87.935,135.111c-5.816,11.92-6.487,27.742-6.519,45.943        c-0.027,16.891-0.114,35.489-0.684,51.608c-0.634,17.719-1.618,35.135,0.609,51.221c2.27,16.39,9.459,27.502,17.749,37.651        c4.622-4.921,9.39-9.88,14.226-14.878c-5.569-5.197-10.542-10.927-13.345-17.353c-4.784-10.979-5.466-25.583-6.695-40.108        c-1.261-15.061-1.406-30.301-1.972-44.926c-0.553-14.24-0.139-28.822,0.749-42.734c0.888-13.789,2.049-27.651,6.553-37.736        c0.187-0.416,0.383-0.793,0.584-1.162C94.099,125.577,90.355,130.158,87.935,135.111z"/>
					</g>
					<g>
						<path style="fill-rule:evenodd;clip-rule:evenodd;fill:#FFFFFF;" d="M96.486,275.022c-4.299,3.258-6.943-10.463-1.824-9.059        C97.335,266.689,97.24,272.513,96.486,275.022z"/>
						<path style="fill-rule:evenodd;clip-rule:evenodd;fill:#FFFFFF;" d="M92.913,283.72c0.223-1.12,1.284-3.294,3.498-2.674        c2.886,0.802,4.424,6.625,5.468,8.818c1.281,2.667,4.875,7.111,2.975,9.842c-2.713,3.898-6.998-3.555-8.362-6.176        c-0.721-1.396-1.3-2.835-1.856-4.048C93.684,287.411,92.486,285.876,92.913,283.72z"/>
					</g>
				</g>
				<g>
					<g>
						<g>
							<path style="fill-rule:evenodd;clip-rule:evenodd;fill:#F7C4AD;" d="M261.111,186.505         c-10.384,1.999-20.269,4.504-29.695,6.984c4.292,10.741,8.255,19.513,12.652,29.577c5.805-2.113,11.45-4.416,16.886-6.767         c8.388-3.641,18.113-7.937,28.033-12.098c6.621-2.785,14.233-5.87,21.191-9.08c5.91-2.714,6.703-7.944,0.38-10.834         c-8.551-3.902-17.312-1.975-25.807-1.026C276.69,184.172,268.843,185.018,261.111,186.505z"/>
							<path style="fill-rule:evenodd;clip-rule:evenodd;fill:#F7C4AD;" d="M321.422,190.2c1.372,0.59,6.332,1.692,8.393,3         c0.802,0.5,1.603,1.336,1.313,2.117c-0.596,1.649-4.42,0.422-5.813,0.176c-2.415-0.425-4.12-0.575-6.159-0.997         c1.473,0.885,6.283,1.935,8.903,3.399c1.094,0.623,2.241,1.521,1.828,2.511c-0.516,1.262-3.778,0.615-4.883,0.426         c-5.297-0.891-11.233-1.848-15.574-1.71c-4.985,0.15-9.294,0.938-13.88,2.619c-1.108,0.408-3.305,1.735-4.4,1.314         c-0.53-0.204-1.359-1.4-1.591-1.901c-0.812-1.691-1.145-3.936-1.681-6.717c-0.206-1.065-0.455-2.106-0.528-3.476         c-0.059-1.113-0.369-2.993-0.168-3.491c0.3-0.795,2.082-1.798,3.151-2.378c3.11-1.699,7.658-3.731,10.264-5.069         c2.265-1.149,4.642-2.363,6.794-3.503c2.055-1.081,8.738-4.679,10.483-2.252c1.425,1.993-5.478,4.708-6.813,6.085         c3.319-0.368,8.77-0.124,14.152,1.425c1.402,0.405,4.415,1.122,4.308,2.405c-0.148,1.761-2.567,1.282-3.702,1.278         c-1.593-0.006-2.768,0.144-4.131-0.107c1.829,0.898,6.318,1.786,8.329,3.15c0.656,0.446,1.277,1.222,1.085,1.845         c-0.454,1.431-2.774,0.674-4.382,0.467c-2.196-0.283-3.638-0.327-5.152-0.552C321.524,190.244,321.475,190.222,321.422,190.2         z"/>
						</g>
					</g>
					<g>
						<path style="fill-rule:evenodd;clip-rule:evenodd;fill:#FF5000;" d="M187.9,188.121c15.191-1.438,33.374-2.98,50.001-4.158        c2.252-0.163,5.4-0.558,8.382-0.686c2.563-0.098,6.938-0.194,8.971,0.858c2.859,1.482,5.113,11.492,6.047,14.698        c0.813,2.836,1.237,5.529,1.798,8.023c0.671,2.914,2.195,6.027,1.359,9.6c-1.009,4.308-5.057,5.324-8.968,6.311        c-11.44,2.884-21.671,4.126-33.809,6.05c-15.633,2.481-30.737,6.702-49.454-0.123c-9.05-3.299-18.306-10.095-25.882-16.943        c-14.199-12.835-25.214-27.91-34.721-43.361c-2.218-3.601-4.253-8.098-6.045-12.307c-3.164-7.419-7.766-18.787-1.041-28.624        c4.893-7.168,12.274-7.41,21.815-2.301c12.482,6.678,22.57,16.478,30.077,24.968        C167.365,162.499,177.073,175.232,187.9,188.121z"/>
						<path style="opacity:0.19;fill-rule:evenodd;clip-rule:evenodd;fill:#FFFFFF;" d="M187.9,188.121        c15.191-1.438,33.374-2.98,50.001-4.158c2.252-0.163,5.4-0.558,8.382-0.686c2.563-0.098,6.938-0.194,8.971,0.858        c2.859,1.482,5.113,11.492,6.047,14.698c0.813,2.836,1.237,5.529,1.798,8.023c0.671,2.914,2.195,6.027,1.359,9.6        c-1.009,4.308-5.057,5.324-8.968,6.311c-11.44,2.884-21.671,4.126-33.809,6.05c-15.633,2.481-30.737,6.702-49.454-0.123        c-9.05-3.299-18.306-10.095-25.882-16.943c-14.199-12.835-25.214-27.91-34.721-43.361c-2.218-3.601-4.253-8.098-6.045-12.307        c-3.164-7.419-7.766-18.787-1.041-28.624c4.893-7.168,12.274-7.41,21.815-2.301c12.482,6.678,22.57,16.478,30.077,24.968        C167.365,162.499,177.073,175.232,187.9,188.121z"/>
						<path style="opacity:0.26;" d="M174.784,187.077c0.126,2.858,5.483,2.088,8.383,1.714c1.535-0.199,3.236-0.359,4.714-0.699        c-1.742-2.069-3.449-4.137-5.142-6.199c-0.824,0.319-1.683,0.732-2.728,1.22C178.654,183.749,174.689,185.001,174.784,187.077        z"/>
					</g>
					<path style="fill-rule:evenodd;clip-rule:evenodd;fill:#FF5000;" d="M266.429,183.058c2.102,3.25,3.651,8.771,4.895,13.881       c0.605,2.497,1.205,4.906,1.912,7.385c0.659,2.319,1.922,6.114,1.33,8.027c-0.809,2.633-7.78,6.622-11.053,4.89       c-2.451-1.293-4.101-13.646-4.633-16.213c-0.642-3.089-1.089-4.596-2.08-8.234c-0.572-2.138-2.17-6.295-0.743-8.667       C257.719,181.368,263.425,182.643,266.429,183.058z"/>
					<g>
						<path style="fill-rule:evenodd;clip-rule:evenodd;fill:#FFFFFF;" d="M190.033,227.292c-1.718,2.291-9.658,0.586-9.648-2.066        C180.406,220.595,191.23,223.834,190.033,227.292z"/>
						<path style="fill-rule:evenodd;clip-rule:evenodd;fill:#FFFFFF;" d="M175.243,221.704c-1.456,5.02-12.609-2.474-11.454-5.313        C165.46,212.302,174.462,219.604,175.243,221.704z"/>
					</g>
				</g>
				<g>
					<g>
						<path style="fill:#F7C4AD;" d="M97.948,116.099c10.841,0.289,19.783,4.391,28.14,9.948c0.213-1.704,0.201-8.393,0.136-10.556        l0.042-11.711l-34.015-0.123l0.075,13.274C93.986,116.358,95.846,116.043,97.948,116.099z"/>
						<path style="fill:#F7C4AD;" d="M89.823,87.177c0.01-0.078-2.845-11.726-9.535-16.276c2.031-10.666,6.58-28.511,14.869-33.103        c12.199-6.752,30.312-2.615,38.324,5.847c6.878,7.266,12.912,23.211,13.043,38.957c0.117,15.932-6.44,29.032-25.257,22.801        c-1.953,4.347-2.406,10.214-4.057,14.868c0.014,0.003,0.032,0.016,0.046,0.019c-9.111,10.961-28.478,0.891-34.31-2.532        c1.982-3.555,1.664-4.426,2.595-7.971C86.425,106.431,89.611,91.192,89.823,87.177z"/>
						<g>
							<g>
								<g>
									<path style="fill-rule:evenodd;clip-rule:evenodd;fill:#FFFFFF;" d="M116.683,72.869c1.581-1.905,3.187-2.846,4.66-3.23           c3.53,0.28,4.499,1.242,4.499,1.242s-0.042,1.031-2.266,2.845c-0.347,0.12-0.721,0.229-1.123,0.32           C119.665,74.691,116.683,72.869,116.683,72.869"/>
									<path style="fill-rule:evenodd;clip-rule:evenodd;fill:#4D3D87;" d="M127.497,70.881c0,0-2.683-2.13-6.152-1.236           c-0.088,0.275-0.292,0.841-0.289,1.146c0.022,1.38,1.083,2.536,2.519,2.931C126.466,72.718,127.497,70.881,127.497,70.881"/>
								</g>
								<path style="fill:#4D3D87;" d="M127.56,67.175c-2.113-0.931-8.046-1.604-11.903,2.482l-1.331-1.258          c4.17-4.408,10.679-4.352,13.97-2.897L127.56,67.175z"/>
							</g>
							<g>
								<g>
									<path style="fill-rule:evenodd;clip-rule:evenodd;fill:#FFFFFF;" d="M136.261,70.552c1.464-1.764,2.954-2.634,4.322-2.989           c3.077,0.248,4.136,1.344,4.136,1.344s0.005,0.767-2.066,2.448c-0.324,0.113-0.673,0.216-1.048,0.303           C139.014,72.259,136.261,70.552,136.261,70.552"/>
									<path style="fill-rule:evenodd;clip-rule:evenodd;fill:#4D3D87;" d="M146.293,68.709c0,0-2.499-1.971-5.711-1.147           c-0.079,0.261-0.274,0.786-0.27,1.069c0.018,1.285,1.001,2.359,2.341,2.724C145.332,70.411,146.293,68.709,146.293,68.709"/>
								</g>
								<path style="fill:#4D3D87;" d="M146.319,65.347c-1.943-0.872-7.417-1.496-10.975,2.285l-1.327-1.269          c3.894-4.113,9.972-4.049,13.042-2.698L146.319,65.347z"/>
							</g>
							<g>
								<g>
									<g>
										<path style="opacity:0.26;fill-rule:evenodd;clip-rule:evenodd;" d="M132.869,70.391            c1.057-0.345,5.181,9.319,5.049,10.413c-0.179,1.372-4.756,2.62-5.167,2.123            C131.571,81.518,131.279,70.908,132.869,70.391"/>
										<path style="opacity:0.26;" d="M141.068,89.384c-5.016,3.342-10.897,0.895-14.248-2.788l1.565-1.408            c2.753,3.037,7.538,5.097,11.518,2.452L141.068,89.384z"/>
									</g>
									<path style="opacity:0.26;" d="M124.33,79.431c1.493,2.126,0.982,5.065-1.139,6.565c-2.131,1.484-5.062,0.98-6.56-1.146           c-1.493-2.128-0.982-5.069,1.148-6.56C119.901,76.798,122.832,77.307,124.33,79.431"/>
									<path style="opacity:0.26;" d="M142.406,81.206c0.968,1.376,2.54,2.059,4.106,1.977c0.001-0.193,0.015-0.388,0.011-0.583           c-0.026-2.934-0.254-5.884-0.657-8.77c-0.804,0.068-1.608,0.32-2.317,0.818C141.428,76.149,140.917,79.08,142.406,81.206z"/>
								</g>
							</g>
						</g>
					</g>
					<g>
						<path style="fill:#4D3D87;" d="M30.017,159.619c3.336-16.218,19.859-25.672,25.422-39.281        c2.686-6.58,2.203-12.627,2.401-19.198c0.01-0.076,0.01-0.163,0.01-0.248c0.015-0.321,0.03-0.659,0.045-0.989        c0.366-7.291,3.197-13.152,6.846-18.108c3.335-4.537,8.026-8.032,9.876-13.132c1.655-4.605,0.058-8.409,0.241-11.929        c1.022-21.033,19.356-27.469,38.595-23.678c4.904,0.97,11.137,2.553,15.233,4.592c6.053,3.02,11.144,8.111,14.904,13.181        c3.915,5.268,6.778,11.905,7.404,19.107c11.204,7.92,17.087,21.151,13.574,39.525l-25.395-2.463        c14.068-16.062,4.417-56.17-4.215-58.195c-4.838,6.113-11.923,9.243-21.8,8.719c0.207,6.044,0.222,12.239-0.358,18.882        l-3.926,0.3c0.021-5.759-1.27-13.055-7.033-13.772c-3.285-0.404-6.824,1.855-7.453,5.667        c-0.892,5.375,3.478,9.191,7.521,12.155c4.331,3.172,8.856,5.929,11.871,8.864c6.482,6.31,9.053,12.599,9.538,20.639l0,0        c0,0.014,0,0.03,0,0.046c0.991,8.866-1.142,14.715-2.204,17.874c-3.763,11.199-11.358,15.507-16.228,24.166        c-1.391,2.485-2.739,5.976-2.792,9.169c-0.08,5.655,2.45,10.592,3.878,15.404c1.81,6.087,1.892,11.384,0.989,16.047        l-77.248-20.457C29.427,167.923,29.241,163.442,30.017,159.619z"/>
						<g>
							<g>
								<path style="fill-rule:evenodd;clip-rule:evenodd;fill:#FFFFFF;" d="M45.682,147.765c-1.549,1.826-2.188,5.811-2.569,9.766          c-0.162,1.689-0.388,4.433,1.117,4.753c1.789,0.383,2.539-2.692,2.805-3.793c0.83-3.484,1.125-7.864,0.602-10.24          C47.293,147.801,46.311,147.596,45.682,147.765z"/>
								<path style="fill-rule:evenodd;clip-rule:evenodd;fill:#FFFFFF;" d="M39.305,156.926c-3.543-1.51-5.487,6.707-2.307,7.088          c1.377,0.17,3.8-3.452,3.592-5.525C40.514,157.743,39.928,157.187,39.305,156.926z"/>
							</g>
							<g>
								<path style="fill-rule:evenodd;clip-rule:evenodd;fill:#FFFFFF;" d="M108.875,121.075c3.918-0.443,0.467,9.155-2.227,6.363          C105.24,125.985,107.47,122.369,108.875,121.075z"/>
								<path style="fill-rule:evenodd;clip-rule:evenodd;fill:#FFFFFF;" d="M114.366,116.948c-0.558,0.618-2.035,1.583-3.192,0.374          c-1.518-1.58-0.31-5.806-0.156-7.572c0.201-2.15-0.404-6.279,1.812-7.288c3.15-1.437,3.063,4.84,2.94,6.995          c-0.064,1.147-0.238,2.267-0.342,3.231C115.257,114.344,115.436,115.753,114.366,116.948z"/>
							</g>
						</g>
					</g>
				</g>
			</g>
		</g>
	</g>
</g>















</svg>
