<?xml version="1.0" encoding="UTF-8"?>
<!-- Generator: Adobe Illustrator 25.2.3, SVG Export Plug-In . SVG Version: 6.00 Build 0)  -->
<svg xmlns="http://www.w3.org/2000/svg" xmlns:xlink="http://www.w3.org/1999/xlink" version="1.1" id="Capa_1" x="0px" y="0px" viewBox="0 0 512 512" style="enable-background:new 0 0 512 512;" xml:space="preserve" width="512" height="512">
<g>
	<g>
		<g>
			<g>
				<path style="fill:#8F7ECE;" d="M351.26,217.005l0.634,3.852c0.914,5.545-2.84,10.785-8.39,11.7l-285.86,47.064      c-5.55,0.914-10.789-2.845-11.698-8.392l-0.636-3.85L351.26,217.005z"/>
				<path style="fill:#8F7ECE;" d="M13.014,71.246c-0.909-5.549,2.847-10.789,8.395-11.701l285.86-47.065      c5.547-0.912,10.789,2.844,11.7,8.395l32.291,196.131L45.31,267.379L13.014,71.246z"/>
				<path style="opacity:0.75;fill:#FFFFFF;" d="M343.355,218.268l-31.1-188.916c-0.871-5.262-5.839-8.826-11.102-7.96      L30.059,66.027c-5.263,0.864-8.824,5.834-7.958,11.095L53.206,266.04L343.355,218.268z"/>
			</g>
			<path style="fill:#FFFFFF;" d="M114.866,168.579c-7.008-12.609-17.262-15.625-26.368-16.912     c-6.95-0.981-13.368-0.112-19.017,2.576c-1.825,0.87-3.503,1.824-5.285,3.003c-7.469,4.947-12.201,12.256-14.065,21.72     c-0.885,4.476-1.078,8.357-0.603,11.869c1.989,14.624,13.901,21.548,20.825,24.375c6.77,2.76,15.285,2.592,23.359-0.464     c0.716-0.273,1.439-0.574,2.146-0.887c8.52-3.821,14.991-9.546,18.706-16.557C116.954,192.798,121.764,180.985,114.866,168.579z      M106.751,199.402c-0.152,0.359-0.494,0.699-1.02,1.17c-0.161,0.147-0.323,0.291-0.472,0.44     c-2.517,2.472-5.924,4.779-9.444,6.408c-0.46-1.036-0.94-2.006-1.403-2.952c-0.265-0.528-0.528-1.067-0.791-1.617l0.415-0.175     c1.302-0.55,2.652-1.116,3.988-1.625C100.671,200.05,103.981,198.998,106.751,199.402z M106.664,176.236     c2.049-0.909,4.091-1.868,5.721-3.106c0.316,0.845,0.636,1.761,0.909,2.654c-0.788,0.809-1.521,1.653-2.232,2.472     c-0.894,1.031-1.748,2.018-2.705,2.94c-0.082-0.257-0.157-0.517-0.236-0.781C107.706,179.028,107.279,177.603,106.664,176.236z      M106.684,188.377c0.379,1.581,0.383,3.21,0.388,4.799c-0.003,0.457-0.003,0.921,0.01,1.385c-2.784-0.25-6.16,0.391-10.273,1.949     c-1.567,0.596-3.221,1.309-5.15,2.227c-0.014-0.031-0.029-0.066-0.041-0.098C97.185,195.849,102.132,192.483,106.684,188.377z      M54.479,193.195c-0.089-0.338-0.154-0.664-0.217-1.01c2.223-3.145,5.07-6.016,7.869-8.789c0.043,0.265,0.087,0.539,0.128,0.814     c0.289,1.859,0.615,3.926,1.109,5.946c-2.691,0.798-5.603,1.795-8.867,3.03L54.479,193.195z M59.812,167.684     c0.931,0.75,1.948,1.081,2.903,1.277c-0.477,3.079-0.868,6.4-0.817,10.011c-3.059,2.64-5.625,5.613-8.06,8.559     C53.83,180.393,55.795,173.868,59.812,167.684z M80.188,168.14c-0.248-0.776-0.542-1.572-0.841-2.365     c0.084-0.034,0.178-0.069,0.268-0.101c4.651-1.762,8.221-3.657,10.897-5.781c1.615,0.958,3.064,2.618,4.547,4.439     C89.829,165.284,84.945,166.534,80.188,168.14z M84.721,181.472c-0.352-1.031-0.726-2.073-1.092-3.091     c-0.796-2.21-1.615-4.482-2.141-6.531c5.632-2.068,11.196-3.317,16.565-3.717c1.116,1.699,2.235,3.594,3.339,5.658     c-3.443,1.79-7.189,3.446-10.825,5.053C88.641,179.7,86.652,180.578,84.721,181.472z M99.487,163.772     c-1.531-2.288-3.24-3.934-4.896-5.526c-0.337-0.327-0.68-0.656-1.022-0.991c4.045,0.984,8.686,3.495,12.151,6.508     c-0.106-0.011-0.215-0.022-0.321-0.036c-0.552-0.061-1.121-0.126-1.704-0.136c-0.984-0.017-1.974,0.045-2.932,0.107     C100.338,163.726,99.909,163.752,99.487,163.772z M105.556,183.803c-4.94,4.53-10.056,7.814-15.994,10.265     c-0.227-0.564-0.453-1.126-0.682-1.687c-0.895-2.205-1.82-4.476-2.693-6.841c2.654-1.263,5.446-2.477,8.158-3.652     c2.987-1.296,6.071-2.633,8.978-4.048C104.16,179.707,105.025,182.013,105.556,183.803z M83.188,186.792     c0.128,0.262,0.27,0.641,0.35,0.857c0.07,0.182,0.128,0.35,0.188,0.485c0.369,0.875,0.74,1.82,1.119,2.775     c0.583,1.462,1.179,2.963,1.774,4.303c-5.198,1.958-10.56,3.091-16.363,3.457c-0.962-1.771-1.808-3.849-2.536-5.805     C72.917,191.193,78.614,188.959,83.188,186.792z M76.239,166.893c0.065,0.188,0.13,0.379,0.195,0.57     c0.236,0.7,0.468,1.375,0.656,2.017c-5.065,1.99-8.988,4.573-12.204,7.012c0.026-2.563,0.287-5.024,0.781-7.346     C69.108,169.046,72.746,168.018,76.239,166.893z M64.968,180.856c3.44-2.689,7.688-5.667,13.267-7.788     c0.557,1.784,1.22,3.63,1.866,5.429c0.516,1.425,1.042,2.892,1.505,4.307c-3.742,1.78-7.98,3.549-13.602,5.678l-0.003,0.001     c-0.54,0.204-1.087,0.41-1.637,0.612c-0.815-2.728-1.061-5.105-1.328-7.606C65.014,181.278,64.993,181.068,64.968,180.856z      M88.679,199.886c0.055,0.101,0.106,0.197,0.164,0.286c0.003,0.01,0.007,0.017,0.012,0.025c-4.455,2.41-8.865,5.135-11.333,9.136     c-1.676-1.843-3.151-3.764-4.47-5.809C78.12,203.329,83.537,202.078,88.679,199.886z M68.893,203.514     c1.794,3.097,3.773,5.827,5.904,8.149c-0.979-0.194-2.006-0.579-2.963-0.937l-0.079-0.029c-2.473-0.927-8.156-3.472-12.546-8.608     C62.276,202.947,65.521,203.424,68.893,203.514z M84.451,208.106c1.379-1.025,3.03-1.969,4.619-2.885     c0.554-0.318,1.106-0.633,1.63-0.942c0.788,1.617,1.625,3.045,2.44,4.437c-0.333,0.131-0.663,0.261-0.998,0.386     c-3.047,1.156-5.977,1.983-8.469,2.395c-0.256,0.041-0.519,0.094-0.784,0.147c-0.752,0.147-1.519,0.299-2.16,0.212     C81.553,210.386,83.043,209.151,84.451,208.106z M113.994,181.261c0.005,3.839-0.923,7.579-2.85,11.595     c-0.13,0.277-0.256,0.569-0.386,0.865c-0.055,0.139-0.118,0.277-0.176,0.413c-0.077-2.528-0.345-5.242-1.08-8.223     c0.465-0.474,0.947-0.947,1.42-1.402C111.983,183.48,113.065,182.431,113.994,181.261z M102.209,167.74     c1.451-0.041,2.842,0.128,4.289,0.299c1.07,0.13,2.174,0.26,3.305,0.304c0.121,0.167,0.232,0.323,0.338,0.47     c0.106,0.144,0.207,0.276,0.294,0.407c-2.163,0.823-3.978,1.831-5.721,2.839c-0.603-1.216-1.249-2.267-1.876-3.29     C102.626,168.422,102.417,168.082,102.209,167.74z M77.729,161.144c-0.511-1.377-0.916-2.689-1.343-4.064     c-0.067-0.221-0.135-0.442-0.205-0.662c1.128-0.276,2.567-0.504,3.901-0.609l0.689-0.058c1.29-0.11,2.756-0.234,3.498-0.064     c0.779,0.179,1.526,0.757,2.254,1.345C83.93,158.629,80.81,159.915,77.729,161.144z M66.49,198.77     c-3.64-0.125-7.184-0.683-10.55-1.66c-0.097-0.217-0.2-0.405-0.297-0.573c1.782-0.448,3.602-1.011,5.369-1.557     c1.167-0.36,2.36-0.731,3.539-1.065C64.983,195.318,65.629,196.94,66.49,198.77z M74.262,160.422     c0.162,0.553,0.323,1.108,0.475,1.656c-2.375,0.827-4.831,1.48-7.729,2.057c0.176-0.626,0.378-1.268,0.639-1.914     c0.103-0.262,0.212-0.562,0.325-0.88c0.343-0.935,0.805-2.217,1.249-2.631c0.328-0.309,0.733-0.547,1.27-0.752     c0.501-0.189,1.058-0.324,1.644-0.47c0.4-0.1,0.812-0.201,1.222-0.322C73.631,158.246,73.951,159.346,74.262,160.422z      M64.093,163.692c-0.101,0.282-0.202,0.565-0.304,0.848c-0.564,0.017-1.104,0.006-1.591-0.088     c0.328-0.445,0.81-0.848,1.307-1.262c0.236-0.201,0.477-0.401,0.704-0.61c0.14-0.128,0.282-0.255,0.422-0.38     C64.443,162.699,64.267,163.198,64.093,163.692z"/>
			<g>
				<path style="fill:#FFFFFF;" d="M264.379,79.861c-0.728-2.639-1.521-5.653-2.307-8.65c-0.914-3.468-1.811-6.906-2.596-9.688      c-1.96-7.002-4.012-17.871-4.998-23.094l-0.101-0.572c-0.256-1.492-0.639-3.753-2.466-3.456      c-0.446,0.074-0.923,0.31-1.459,0.724c-0.094,0.071-0.161,0.164-0.205,0.274c-0.615,1.667-0.246,3.368,0.111,5.009      c0.087,0.412,0.176,0.822,0.253,1.231l0.427,2.439c0.928,5.359,1.893,10.897,3.284,16.303      c-2.355,0.713-8.643,2.208-11.006,2.749c-0.824-3.254-1.519-6.36-2.252-9.636c-0.61-2.739-1.225-5.511-1.936-8.409      c-0.082-0.343-0.157-0.735-0.232-1.14c-0.354-1.845-0.829-4.379-2.912-4.078c-0.569,0.096-1.032,0.388-1.338,0.848      c-0.878,1.319-0.299,3.766,0.01,5.081c0.053,0.201,0.092,0.369,0.113,0.49c2.787,14.595,6.606,28.739,9.622,39.428l0.169,0.637      c0.557,2.082,1.311,4.933,3.662,4.552c0.13-0.022,0.272-0.056,0.41-0.097c0.718-0.229,1.179-0.575,1.415-1.063      c0.383-0.8,0.024-1.712-0.345-2.677c-0.123-0.302-0.246-0.624-0.354-0.957c-1.618-4.975-2.91-10.287-4.055-14.973      c-0.364-1.508-0.719-2.957-1.066-4.309c2.51-0.662,8.754-2.166,11.042-2.641c1.622,6.354,3.209,12.28,4.723,17.625l0.111,0.415      c0.473,1.755,1.191,4.407,3.443,4.043c0.241-0.041,0.494-0.114,0.75-0.228c1.926-0.843,0.945-3.657,0.362-5.337      C264.541,80.373,264.445,80.083,264.379,79.861z"/>
				<path style="fill:#FFFFFF;" d="M203.987,78.338c-0.412-1.01-0.596-2.366-0.791-3.803c-0.106-0.798-0.217-1.619-0.374-2.422      c-0.943-4.902-2.801-12.392-4.544-17.212c-1.345-3.711-3.117-7.637-6.673-6.664c-3.134,0.851-4.159,5.185-4.834,8.05      c-0.087,0.353-0.164,0.686-0.243,0.986c-0.752,2.95-1.285,5.995-1.615,9.31c-0.444,4.273-0.398,8.416-0.347,12.42      c0.024,2.697,0.058,5.241-0.063,7.691c-0.007,0.076,0.003,0.151,0.027,0.222c0.523,1.587,0.571,3.385,0.637,5.468      c0.022,0.876,0.046,1.794,0.111,2.748c0.022,0.319,0.036,0.698,0.051,1.115c0.053,1.348,0.118,2.889,0.439,4.148      c-1.129-0.552-2.638-0.771-3.903-0.943c-0.61-0.086-1.181-0.159-1.622-0.266c-7.194-1.708-13.882-4.617-19.381-8.421      c4.472-4.736,9.497-13.24,9.634-22.504c0.065-4.141-1.324-9.381-4.53-11.1c-1.044-0.558-2.242-0.736-3.551-0.523      c-2.623,0.426-5.287,2.395-6.56,4.117c-3.113,4.173-4.54,11.537-3.732,19.222c0.738,6.838,3.016,14.104,5.215,21.13l0.812,2.606      c0.279,0.91,0.475,1.842,0.663,2.741c0.468,2.264,0.914,4.398,2.638,5.579c0.128,0.092,0.292,0.123,0.451,0.101      c0.015-0.005,0.031-0.008,0.046-0.012c0.921-0.229,1.589-0.699,1.989-1.401c0.902-1.576,0.222-3.862-0.376-5.879      c-0.14-0.458-0.265-0.893-0.364-1.291c-0.181-0.701-0.494-1.635-0.832-2.627c-0.407-1.196-0.854-2.51-1.165-3.709      c5.06,2.842,11.08,5.068,18.815,6.969l0.448,0.119c1.16,0.321,3.315,0.914,4.889,0.658c1.316-0.213,2.033-1.043,2.028-2.259      c0.364,0.149,0.755,0.23,1.237,0.153c0.003-0.001,0.003,0,0.007-0.001c2.486-0.492,2.033-3.671,1.702-5.99      c-0.082-0.592-0.162-1.142-0.183-1.575l-0.005-0.158c-0.116-2.619-0.212-4.903-0.116-6.966c2.905-1.144,6.886-2.528,9.882-3.285      c0.4,1.757,0.706,3.647,0.998,5.479c0.133,0.841,0.273,1.678,0.415,2.5c0.13,0.715,0.212,1.445,0.294,2.172      c0.26,2.238,0.528,4.555,1.975,6.144c0.101,0.112,0.246,0.184,0.391,0.199c0.441,0.046,0.841,0.038,1.189-0.018      c0.743-0.121,1.304-0.463,1.675-1.019c0.945-1.41,0.371-3.79-0.178-6.094c-0.179-0.743-0.35-1.457-0.446-2.078      c-0.219-1.367-0.383-2.634-0.535-3.794c-0.258-1.959-0.48-3.657-0.844-5.053c0.036-0.223,0.147-0.394,0.292-0.617      c0.268-0.424,0.636-1.004,0.427-2.037c-0.145-0.743-0.528-1.096-0.873-1.405C204.409,79.012,204.178,78.799,203.987,78.338z       M199.1,79.808c-3.284,1.047-6.42,2.152-9.371,3.298c-0.374-8.649-0.304-19.423,2.871-28.588      c3.086,6.427,4.651,15.092,6.042,22.776C198.794,78.151,198.948,78.991,199.1,79.808z M164.694,72.426      c-1.106,5.662-3.194,10.068-6.372,13.429c-1.685-7.898-2.032-17.606,1.869-22.377c0.822-1.007,1.688-1.554,2.715-1.721      c0.166-0.025,0.342-0.043,0.521-0.048C166.165,64.901,165.285,69.417,164.694,72.426z"/>
				<path style="fill:#FFFFFF;" d="M223.715,41.609c-1.092-0.533-2.336-0.692-3.715-0.467c-2.823,0.456-5.719,2.489-7.124,4.255      c-3.414,4.274-5.08,11.742-4.349,19.492c0.665,6.917,2.987,14.234,5.232,21.31l0.815,2.574c0.282,0.911,0.473,1.847,0.661,2.752      c0.458,2.281,0.894,4.439,2.739,5.601c0.13,0.082,0.279,0.113,0.432,0.089c0.017-0.002,0.034-0.007,0.051-0.011      c1.01-0.249,1.738-0.761,2.172-1.514c0.909-1.607,0.236-3.86-0.362-5.846c-0.137-0.462-0.27-0.902-0.371-1.302      c-0.113-0.458-0.408-1.392-0.781-2.562c-0.82-2.582-2.71-8.517-2.459-9.839c5.244-5.013,11.413-14.092,11.731-23.378      C228.53,48.57,227.127,43.293,223.715,41.609z M217.406,48.113c0.907-1.042,1.9-1.632,3.028-1.815      c0.181-0.031,0.374-0.049,0.564-0.058c2.669,2.914,2.049,6.922,1.174,10.786c-1.299,5.783-3.648,10.298-7.175,13.766      C213.322,62.844,213.127,53.021,217.406,48.113z"/>
				<path style="fill:#FFFFFF;" d="M106.023,125.402c0.745,0.069,1.485,0.047,2.194-0.069c4.038-0.655,6.668-4.208,7.782-7.318      c2.563-7.188,1.43-18.569-2.811-28.465c1.35-1.017,2.548-2.066,4.101-3.812l0.417-0.456c1.237-1.336,3.32-3.579,1.577-5.428      c-0.721-0.754-1.461-0.816-1.958-0.738c-1.172,0.194-2.175,1.357-2.895,2.205l-0.747,0.846c-1.01,1.132-1.782,1.993-2.867,2.727      c-2.536-5.52-8.85-10.803-14.419-9.901c-2.16,0.352-4.019,1.566-5.523,3.611c-2.937,3.989-3.862,11.147-2.531,19.636      c1.704,10.924,6.524,20.667,12.271,24.828C102.067,124.112,104.304,125.24,106.023,125.402z M94.538,82.763      c0.728-1.547,1.702-2.429,2.898-2.621c3.204-0.521,7.38,3.781,8.954,7.204C101.252,87.972,97.373,86.472,94.538,82.763z       M92.961,88.133c3.578,2.855,7.789,5.169,13.87,4.181c0.62-0.099,1.263-0.234,1.91-0.401c2.811,6.706,3.956,14.023,3.149,20.159      c-0.379,2.836-0.943,7.127-3.973,8.021c-2.85,0.864-5.943-2.515-7.481-4.524C95.809,109.51,91.724,96.542,92.961,88.133z"/>
				<path style="fill:#FFFFFF;" d="M66.509,127.65c1.596,5.653,6.741,9.274,11.958,8.429l0.026-0.004      c4.45-0.73,7.129-3.093,9.959-5.593c0.417-0.369,0.839-0.743,1.273-1.114c0.492-0.424,1.039-0.845,1.596-1.267      c2.495-1.914,5.333-4.088,3.906-7.265c-0.067-0.146-0.19-0.265-0.34-0.322c-0.779-0.312-1.574-0.406-2.358-0.278      c-1.791,0.289-3.221,1.649-4.603,2.97c-0.412,0.393-0.817,0.781-1.222,1.126c-0.533,0.447-1.063,0.935-1.608,1.436      c-1.763,1.615-3.585,3.286-5.796,4.108c-0.497,0.188-0.986,0.319-1.451,0.397c-1.43,0.23-2.669-0.065-3.689-0.88      c-1.509-1.203-2.476-3.497-2.647-6.297c-0.499-7.816,4.315-13.775,6.408-15.973c0.318-0.342,0.66-0.672,0.988-0.987      c1.531-1.489,3.107-3.028,2.112-4.964c-0.815-1.574-2.751-1.263-3.582-1.128c-0.446,0.074-0.914,0.174-1.401,0.276      c-0.738,0.156-1.519,0.319-2.295,0.396c-2.312,0.236-4.299,0.272-5.171-1.65c-1.073-2.337,0.559-6.398,2.276-9.167      c0.277-0.441,0.991-1.212,1.738-2.026c2.599-2.817,4.528-5.095,3.833-6.685c-0.511-1.163-1.955-1.492-3.091-1.312      c-0.624,0.103-1.172,0.351-1.586,0.722c-4.532,4.023-10.931,12.974-8.771,19.839c1.056,3.414,3.841,5.492,8.06,6.051      l-0.104,0.184C67.7,112.447,64.045,118.995,66.509,127.65z M78.366,135.467L78.366,135.467v0.003V135.467z"/>
				<path style="fill:#FFFFFF;" d="M49.604,139.384c1.673,0.935,3.259,1.29,4.711,1.056c1.647-0.269,3.069-1.266,4.217-2.959      c2.481-3.65,3.023-9.491,2.322-13.432c1.297-0.457,1.902-1.15,2.184-1.684c0.34-0.646,0.393-1.397,0.137-2.108      c-0.46-1.267-1.5-1.778-3.108-1.52c-1.053,0.171-2.285,0.65-3.582,1.155c-0.709,0.275-1.435,0.559-2.16,0.802      c-0.465,0.153-0.924,0.291-1.372,0.421c-1.714,0.517-3.202,0.96-3.78,2.05c-0.282,0.525-0.311,1.139-0.087,1.83      c0.68,2.13,2.567,1.833,3.204,1.731c0.005-0.001,0.005,0,0.01-0.002c0.458-0.073,0.947-0.203,1.434-0.331      c0.451-0.117,0.911-0.24,1.355-0.312c0.311,3.239,0.258,6.436-1.591,8.512c-6.145-2.99-11.302-15.7-13.525-26.449      c-0.972-4.715-1.902-12.796,2.736-13.963c2.604-0.67,5.548,1.983,6.763,4.797c0.272,0.626,0.415,1.385,0.569,2.183      c0.333,1.737,0.704,3.701,2.601,4.546c0.116,0.056,0.268,0.072,0.379,0.042c1.116-0.241,1.917-0.793,2.384-1.638      c1.044-1.887,0.051-4.617-0.429-5.929l-0.094-0.262c-2.033-5.773-8.318-10.112-13.441-9.283      c-2.375,0.387-4.412,1.828-5.89,4.161c-3.252,5.174-2.72,14.219,1.589,26.893C39.601,126.936,44.346,136.441,49.604,139.384z"/>
				<path style="fill:#FFFFFF;" d="M137.495,116.183c1.678,0.934,3.262,1.291,4.718,1.056c1.647-0.268,3.069-1.266,4.217-2.961      c2.476-3.648,3.026-9.487,2.312-13.43c1.307-0.458,1.912-1.154,2.191-1.686c0.342-0.647,0.388-1.396,0.135-2.107      c-0.458-1.266-1.497-1.779-3.1-1.519c-1.061,0.174-2.293,0.651-3.597,1.156c-0.702,0.273-1.427,0.556-2.153,0.798      c-0.46,0.154-0.926,0.293-1.372,0.424c-1.714,0.512-3.201,0.957-3.775,2.047c-0.282,0.526-0.311,1.14-0.092,1.831      c0.678,2.129,2.568,1.832,3.204,1.731c0.003-0.001,0.005-0.001,0.007-0.002c0.458-0.074,0.945-0.201,1.439-0.328      c0.453-0.12,0.909-0.241,1.353-0.318c0.311,3.242,0.26,6.439-1.584,8.514c-6.145-2.989-11.305-15.697-13.527-26.451      c-0.969-4.711-1.905-12.791,2.736-13.96c2.608-0.657,5.548,1.981,6.758,4.795c0.27,0.628,0.417,1.382,0.567,2.184      c0.333,1.735,0.706,3.703,2.601,4.545c0.123,0.052,0.268,0.073,0.381,0.041c1.119-0.24,1.921-0.788,2.384-1.636      c1.046-1.882,0.053-4.613-0.419-5.923l-0.101-0.269c-2.035-5.774-8.32-10.11-13.438-9.279c-2.382,0.386-4.419,1.824-5.892,4.161      c-3.255,5.165-2.722,14.213,1.586,26.89C127.502,103.736,132.249,113.244,137.495,116.183z"/>
				<path style="fill:#FFFFFF;" d="M286.979,30.755c-0.46-0.348-1.01-0.483-1.676-0.375c-0.003,0.001-0.005,0.001-0.005,0.001      c-0.88,0.174-1.531,0.577-1.943,1.204c-0.861,1.303-0.456,3.196-0.099,4.868c0.094,0.458,0.19,0.895,0.246,1.289      c1.09,7.372,0.911,13.321-0.571,19.142c-3.59-2.817-6.685-8.24-9.685-13.492c-0.583-1.016-1.157-2.019-1.726-2.992l-0.48-0.837      c-1.232-2.169-2.621-4.625-4.508-4.742c-0.239-0.071-0.513-0.081-0.815-0.033c-1.097,0.179-2.753,1.302-2.71,2.254      c-0.152,1.305,0.675,2.316,1.401,3.206c0.229,0.278,0.449,0.549,0.634,0.823c1.111,1.668,2.153,3.546,3.163,5.364      c1.152,2.08,2.346,4.228,3.674,6.137l0.687,0.999c2.134,3.108,5.154,7.505,8.662,8.666c1.36,5.704,2.652,11.619,3.91,18.025      c0.347,1.768,0.776,3.966,3.057,3.597c0.106-0.017,0.215-0.038,0.333-0.067c2.842-0.728,1.931-4.422,1.259-7.122      c-0.135-0.54-0.26-1.052-0.35-1.502c-0.991-5.027-1.972-9.62-2.97-13.966c1.996-1.662,2.36-4.324,2.618-6.368l0.092-0.695      c0.863-6.181,0.984-9.374,0.01-16.096c-0.034-0.243-0.07-0.534-0.106-0.864C288.833,35.07,288.464,31.88,286.979,30.755z"/>
			</g>
		</g>
		<g>
			<path style="fill-rule:evenodd;clip-rule:evenodd;fill:#FFFFFF;" d="M24.786,67.895c2.247-3.029,17.368-5.619,17.927-0.422     c0.451,4.235-12.946,6.214-16.676,3.796C25.063,70.644,24.666,69.957,24.786,67.895z"/>
			<path style="fill-rule:evenodd;clip-rule:evenodd;fill:#FFFFFF;" d="M43.355,77.788c-2.071-4.629,5.54-5.621,6.724-2.83     C51.673,78.706,45.173,81.875,43.355,77.788z"/>
			<path style="fill-rule:evenodd;clip-rule:evenodd;fill:#FFFFFF;" d="M49.16,65.69c-1.058-4.689,10.533-6.107,10.94-1.715     c0.171,1.849-1.027,2.473-3.25,3.313C53.572,68.525,49.901,68.967,49.16,65.69z"/>
		</g>
	</g>
	<g>
		<g>
			<path style="fill-rule:evenodd;clip-rule:evenodd;fill:#8F7ECE;" d="M400.891,61.635c-0.287-0.182-1.48-0.581-2.047-0.705     c-2.124-0.459-4.431-0.43-6.748-0.434c-11.396-0.018-20.7-0.039-32.274,0.202c-2.011,0.04-3.821,0.021-6.386,0.191     c-2.259,0.151-4.602,0.638-5.121,2.26c-0.605,1.892,1.292,3.907,2.385,5.158c3.896,4.447,8.621,8.088,12.823,12.172     c4.053,3.931,7.869,8.236,12.52,12.352c1.319,1.163,3.395,3.274,5.468,3.116c2.478-0.193,4.6-6.766,5.695-9.495     c1.27-3.163,2.401-5.498,3.447-8.539c0.328-0.966,0.292-2.134,0.738-3.093c0.381-0.838,1.844-1.831,2.881-2.758     c2.039-1.829,3.749-3.57,5.523-5.585C400.601,65.567,402.925,62.945,400.891,61.635z"/>
			<path style="fill-rule:evenodd;clip-rule:evenodd;fill:#8F7ECE;" d="M400.891,61.635c-0.287-0.182-1.48-0.581-2.047-0.705     c-2.124-0.459-4.431-0.43-6.748-0.434c-11.396-0.018-20.7-0.039-32.274,0.202c-2.011,0.04-3.821,0.021-6.386,0.191     c-2.259,0.151-4.602,0.638-5.121,2.26c-0.605,1.892,1.292,3.907,2.385,5.158c3.896,4.447,8.621,8.088,12.823,12.172     c4.053,3.931,7.869,8.236,12.52,12.352c1.319,1.163,3.395,3.274,5.468,3.116c2.478-0.193,4.6-6.766,5.695-9.495     c1.27-3.163,2.401-5.498,3.447-8.539c0.328-0.966,0.292-2.134,0.738-3.093c0.381-0.838,1.844-1.831,2.881-2.758     c2.039-1.829,3.749-3.57,5.523-5.585C400.601,65.567,402.925,62.945,400.891,61.635z"/>
			<path style="opacity:0.42;fill-rule:evenodd;clip-rule:evenodd;fill:#FFFFFF;" d="M400.891,61.635     c-0.287-0.182-1.48-0.581-2.047-0.705c-2.124-0.459-4.431-0.43-6.748-0.434c-11.396-0.018-20.7-0.039-32.274,0.202     c-2.011,0.04-3.821,0.021-6.386,0.191c-2.259,0.151-4.602,0.638-5.121,2.26c-0.605,1.892,1.292,3.907,2.385,5.158     c3.896,4.447,8.621,8.088,12.823,12.172c4.053,3.931,7.869,8.236,12.52,12.352c1.319,1.163,3.395,3.274,5.468,3.116     c2.478-0.193,4.6-6.766,5.695-9.495c1.27-3.163,2.401-5.498,3.447-8.539c0.328-0.966,0.292-2.134,0.738-3.093     c0.381-0.838,1.844-1.831,2.881-2.758c2.039-1.829,3.749-3.57,5.523-5.585C400.601,65.567,402.925,62.945,400.891,61.635z"/>
			<path style="fill-rule:evenodd;clip-rule:evenodd;fill:#8F7ECE;" d="M394.415,83.324c0.492-1.086-0.244-2.056-0.506-2.915     c-0.277-0.912-0.453-1.86-0.784-2.858c-0.521-1.62-1.104-4.244-2.343-5.28c-0.516-0.426-1.955-0.961-2.809-1.313     c-3.142-1.302-6.722-1.843-10.225-2.601c-8.677-1.875-18.217-4.365-27.026-5.325c-0.574-0.064-1.707-0.398-1.885,0.133     c-0.282,0.849,1.136,1.351,2.016,1.751c13.27,6.019,28.116,11.176,40.782,17.494C392.479,82.835,393.335,83.674,394.415,83.324z"/>
			<path style="fill-rule:evenodd;clip-rule:evenodd;fill:#8F7ECE;" d="M394.415,83.324c0.492-1.086-0.244-2.056-0.506-2.915     c-0.277-0.912-0.453-1.86-0.784-2.858c-0.521-1.62-1.104-4.244-2.343-5.28c-0.516-0.426-1.955-0.961-2.809-1.313     c-3.142-1.302-6.722-1.843-10.225-2.601c-8.677-1.875-18.217-4.365-27.026-5.325c-0.574-0.064-1.707-0.398-1.885,0.133     c-0.282,0.849,1.136,1.351,2.016,1.751c13.27,6.019,28.116,11.176,40.782,17.494C392.479,82.835,393.335,83.674,394.415,83.324z"/>
		</g>
		<g>
			<path style="fill:#4D3D87;" d="M405.124,111.729c-0.135-1.135-1.169-1.947-2.303-1.813c-3.587,0.428-7.167,1.337-10.352,2.617     l-0.207,0.083c-1.063,0.44-1.557,1.653-1.121,2.71c0.376,0.897,1.295,1.393,2.216,1.258c0.166-0.025,0.332-0.069,0.492-0.136     l0.161-0.066c2.852-1.148,6.073-1.964,9.301-2.347C404.444,113.908,405.257,112.866,405.124,111.729z"/>
			<path style="fill:#4D3D87;" d="M442.064,141.53c-0.046-0.332-0.099-0.662-0.154-0.994c-0.195-1.129-1.263-1.878-2.399-1.69     c-1.128,0.192-1.885,1.264-1.69,2.394c0.051,0.298,0.094,0.595,0.145,0.893c0.427,2.934,0.506,5.92,0.222,8.882     c-0.108,1.139,0.728,2.153,1.866,2.259c0.171,0.02,0.34,0.015,0.504-0.011c0.919-0.136,1.666-0.884,1.755-1.854     C442.628,148.116,442.546,144.793,442.064,141.53z"/>
			<path style="fill:#4D3D87;" d="M409.343,137.53c-0.87-0.74-2.182-0.631-2.917,0.242c-2.283,2.693-4.757,4.6-7.353,5.673     c-1.058,0.438-1.562,1.649-1.124,2.709c0.369,0.897,1.297,1.396,2.216,1.261c0.164-0.025,0.328-0.069,0.489-0.135     c3.219-1.327,6.218-3.624,8.932-6.826C410.327,139.581,410.218,138.27,409.343,137.53z"/>
			<path style="fill:#4D3D87;" d="M390.389,143.872c-2.763-0.92-5.27-2.902-6.886-5.441c-0.61-0.965-1.895-1.251-2.862-0.639     c-0.965,0.612-1.249,1.895-0.637,2.861c2.115,3.33,5.425,5.938,9.075,7.156c0.321,0.104,0.648,0.13,0.957,0.083     c0.75-0.109,1.41-0.628,1.666-1.396C392.064,145.41,391.476,144.235,390.389,143.872z"/>
			<path style="fill:#4D3D87;" d="M436.996,133.113c0.207-0.03,0.415-0.094,0.612-0.192c1.029-0.503,1.451-1.744,0.945-2.775     c-1.603-3.264-3.652-6.302-6.097-9.03c-0.762-0.853-2.073-0.925-2.927-0.159c-0.853,0.763-0.926,2.075-0.164,2.927     c2.194,2.447,4.031,5.167,5.468,8.089C435.241,132.806,436.126,133.24,436.996,133.113z"/>
			<path style="fill:#4D3D87;" d="M416.962,118.441c-1.131-0.195-2.201,0.559-2.399,1.685c-0.528,2.969-1.582,6.291-2.98,9.353     c-0.475,1.043-0.017,2.271,1.022,2.747c0.376,0.173,0.781,0.222,1.162,0.166c0.673-0.097,1.285-0.526,1.586-1.191     c1.565-3.422,2.7-7.005,3.291-10.356C418.845,119.716,418.087,118.642,416.962,118.441z"/>
			<path style="fill:#4D3D87;" d="M381.994,130.036c0.576-2.817,2.054-5.622,4.275-8.114c0.759-0.857,0.685-2.166-0.171-2.927     c-0.854-0.762-2.163-0.687-2.929,0.17c-2.698,3.035-4.508,6.503-5.237,10.032c-0.231,1.124,0.494,2.218,1.613,2.451     c0.246,0.049,0.487,0.054,0.721,0.022C381.102,131.545,381.811,130.912,381.994,130.036z"/>
			<path style="fill:#4D3D87;" d="M424.081,114.097c-1.15-0.703-2.339-1.337-3.534-1.887c-0.661-0.301-1.343-0.576-2.047-0.829     c0.301-0.412,0.446-0.933,0.376-1.477c-0.024-0.215-0.058-0.423-0.089-0.632c-0.482-3.314-1.425-6.633-2.799-9.872     c-0.446-1.054-1.663-1.544-2.719-1.098c-1.051,0.445-1.546,1.662-1.097,2.718c1.232,2.911,2.081,5.89,2.517,8.855     c0.017,0.152,0.041,0.305,0.063,0.458c-0.33-0.07-0.67-0.131-1.006-0.194c-1.131-0.196-2.203,0.557-2.401,1.685     c-0.198,1.128,0.557,2.205,1.688,2.4c2.1,0.368,4.045,0.961,5.784,1.757c1.051,0.48,2.095,1.038,3.105,1.653     c0.427,0.264,0.921,0.353,1.379,0.284c0.588-0.088,1.135-0.424,1.468-0.971C425.368,115.971,425.06,114.693,424.081,114.097z"/>
			<path style="fill:#4D3D87;" d="M407.282,92.448c0.472,0.646,1.239,0.94,1.982,0.832c0.321-0.047,0.636-0.17,0.911-0.375     c0.928-0.674,1.131-1.972,0.46-2.895c-2.078-2.856-4.492-5.553-7.172-8.016c-0.844-0.775-2.155-0.72-2.929,0.122     c-0.774,0.844-0.718,2.156,0.12,2.932C403.138,87.325,405.363,89.815,407.282,92.448z"/>
			<path style="fill:#4D3D87;" d="M438.727,159.396c-1.051-0.454-2.276,0.029-2.729,1.081c-0.687,1.591-1.502,2.733-2.418,3.398     c-0.93,0.672-1.143,1.966-0.47,2.895c0.47,0.648,1.241,0.946,1.989,0.837c0.313-0.047,0.627-0.168,0.906-0.371     c1.538-1.111,2.816-2.832,3.802-5.116C440.263,161.069,439.778,159.849,438.727,159.396z"/>
		</g>
	</g>
	<g>
		<g>
			<g>
				<path style="fill-rule:evenodd;clip-rule:evenodd;fill:#4D3D87;" d="M344.515,108.032c-0.14-4.383,4.098-4.989,6.302-6.766      c-38.133-1.957-69.831,11.499-94.104,36.614c-1.176,1.216-3.602,3.969-5.892,2.934c-4.819-2.179,3.648-9.865,5.584-11.647      c10.164-9.389,22.416-16.851,34.533-22.169c17.409-7.632,35.324-11.71,56.882-10.207c-2.136-2.259-5.69-3.742-6.671-6.631      c0.096-0.329,0.193-0.662,0.289-0.991c0.294,0.018,0.432-0.234,0.767-0.135c2.686,0.95,5.639,2.886,9.229,5.23      c2.51,1.631,6.823,4.213,6.866,5.969c0.094,3.251-3.833,4.747-6.104,6.108C349.667,107.857,347.331,109.916,344.515,108.032z"/>
				<g>
					<g>
						<path style="fill-rule:evenodd;clip-rule:evenodd;fill:#4D3D87;" d="M264.842,68.46c-24.649,3.391-46.53,8.166-66.196,16.214        c-29.077,11.897-52.012,29.987-70.303,53.487c-18.069,23.221-31.291,51.704-33.612,90.765        c-3.183,53.59,17.621,93.436,43.916,120.168c27.701,28.154,67.068,43.486,116.559,49.312c0.945,18.786,0.063,35.1,1.15,53.118        c0.4,6.6,0.6,12.677,5.586,12.375c4.168-0.254,4.393-6.009,4.839-11.34c2.57-30.569,1.608-61.215-0.528-90.732        c-0.412-5.713-0.711-10.915-4.971-10.79c-5.241,0.156-4.764,10.677-5.186,16.081c-0.538,6.833-0.176,14.771-0.796,19.594        c-46.846-1.588-81.452-20.072-107.11-45.127c-12.288-12-23.308-27.765-30.922-45.457        c-7.688-17.873-12.802-40.183-11.488-64.58c1.239-23.196,7.879-43.217,16.604-60.242        c8.684-16.928,20.534-31.504,33.552-43.035c27.303-24.206,61.827-39.99,109.712-42.416c0.444,6.56,0.214,10.551,0.817,16.757        c0.42,4.359,1.066,11.66,5.912,11.745c5.904,0.104,5.936-9.581,6.449-16.07c1.15-14.388,0.851-28.979-0.603-42.681        c-0.569-5.35-1.632-17.586-6.497-17.751c-5.646-0.195-5.779,6.858-6.423,12.59C264.568,57.119,264.384,63.386,264.842,68.46z"/>
						<path style="fill-rule:evenodd;clip-rule:evenodd;fill:#4D3D87;" d="M170.574,484.64c1.208-3.669,2.03-6.122,4.429-8.223        c6.143-5.391,19.931-3.666,24.863-10.162c2.163-2.852,2.686-6.326,4.475-8.853c1.512-2.133,4.161-4.751,6.777-5.826        c4.231-1.741,12.544-1.358,18.188-1.474c1.801-0.04,7.594-0.187,8.267-0.148c0.777,0.041,17.252,0.331,24.704,0.475        c7.45-0.022,14.947-0.088,22.359-0.013c0.784-0.024,8.805,0.154,10.61,0.222c5.644,0.21,13.957-0.037,18.159,1.771        c2.597,1.12,5.208,3.778,6.69,5.936c1.748,2.554,2.203,6.038,4.327,8.924c4.819,6.574,18.641,5.074,24.695,10.565        c2.358,2.14,3.141,4.607,4.289,8.295c-30.218-0.638-60.877-0.797-91.411-1.081        C231.454,484.834,200.807,484.493,170.574,484.64z"/>
						<g>
							<path style="fill-rule:evenodd;clip-rule:evenodd;fill:#FFFFFF;" d="M200.207,471.049c2.833-1.426,8.161-0.99,13.371-0.241         c2.223,0.317,5.829,0.893,5.767,2.916c-0.07,2.432-4.262,2.431-5.757,2.428c-4.749-0.028-10.48-1.01-13.373-2.43         C199.744,473.137,199.787,471.808,200.207,471.049z"/>
							<path style="fill-rule:evenodd;clip-rule:evenodd;fill:#FFFFFF;" d="M213.99,465.724c-0.829-5.043,10.355-4.968,9.851-0.752         c-0.222,1.829-5.639,3.807-8.243,2.891C214.662,467.524,214.137,466.601,213.99,465.724z"/>
							<path style="fill-rule:evenodd;clip-rule:evenodd;fill:#FFFFFF;" d="M313.017,475.937c-0.48-1.748,1.594-3.366,4.118-4.111         c2.027-0.598,6.177-0.822,6.092,1.609c-0.029,1.076-1.521,2.592-3.602,3.262         C317.187,477.491,313.631,478.192,313.017,475.937z"/>
						</g>
					</g>
					<g>
						<path style="fill-rule:evenodd;clip-rule:evenodd;fill:#8F7ECE;" d="M395.647,287.189        c-4.456,12.197-20.712,29.316-20.712,29.316l-23.721,32.548c-16.265,12.989-35.229,22.248-55.434,27.098l-43.42-1.687        c0,0-39.638-3.672-40.497-4.005c-21.637-8.376-40.069-21.534-54.528-37.818l-16.822-36.206l-18.802-52.067        c-0.723-17.902,1.968-36.241,8.494-54.114c2.299-6.294,4.998-12.326,8.059-18.077l16.464-13.803l7.42-18.732        c23.93-24.309,56.041-39.227,90.054-41.836c0,0,35.6,7.188,55.168,14.334c40.361,14.74,87.919,77.15,87.919,77.15        C406.678,219.742,407.672,254.255,395.647,287.189z"/>
						<g>
							<path style="fill-rule:evenodd;clip-rule:evenodd;fill:#CAD309;" d="M209.296,171.144         c5.653-1.268,12.452-11.807,20.671-9.613c5.193,1.386,7.939,6.109,4.952,12.241c0.863,1.557,2.654,2.119,4.021,2.815         c1.606,0.817,3.356,1.989,5.232,2.247c5.077,0.701,9.212-6.389,13.783-6.408c3.257-0.012,7.626,3.452,11.582,4.23         c4.482,0.88,8.911-3.257,14.157-1.9c4.009,1.044,6.676,4.67,7.172,8.007c0.427,2.913-0.945,5.873-1.145,8.666         c-0.253,3.354,0.552,7.608,2.606,10.377c1.818,2.441,4.899,3.86,7.339,5.706c4.812,3.651,8.718,7.98,12.647,12.359         c1.767,1.969,4.243,5.155,6.637,5.789c3.156,0.839,6.073-2.188,8.698-3.551c2.695-1.403,6.914-3.308,9.829-1.121         c3.691,2.759-1.027,8.501-3.713,11.095c-3.421,3.303-6.984,5.236-10.538,4.899c-2.828-0.265-5.403-2.604-8.604-3.145         c-2.712-0.454-6.427,1.75-8.795,2.852c-2.946,1.373-6.447,2.94-7.642,5.284c-3.113,6.056,1.584,12.265,4.137,16.319         c3.264,5.186,7.676,11.208,4.265,18.718c-3.421,7.53-10.803,9.419-16.654,16.128c-3.028,3.466-5.142,8.063-8.014,10.875         c-2.72,2.673-5.914,4.525-8.563,5.955c-2.862,1.537-6.172,2.072-9.14,4.742c-2.671,2.405-4.947,6.812-8.361,9.059         c-2.522,1.668-6.529,2.704-9.342,1.638c-7.775-2.953-3.652-11.238-4.159-19.018c-0.555-8.356-8.566-16.051-9.798-24.781         c-0.95-6.746,1.504-12.873,5.453-19.545c1.608-2.711,3.71-5.379,3.631-8.096c-0.205-7.329-15.753-9.192-23.533-12.969         c-3.402-1.653-5.865-4.589-9.335-5.764c-11.235-3.821-20.165,6.09-30.871,2.522c-10.092-3.362-15.811-16.535-14.47-25.811         c0.217-1.474,1.227-4.78,2.085-6.638c3.804-8.244,10.155-12.583,16.671-19.829         C189.249,177.613,194.028,162.101,209.296,171.144z"/>
							<path style="fill-rule:evenodd;clip-rule:evenodd;fill:#FFFFFF;" d="M327.046,254.18c3.874,0.417,4.564,5.427,3.091,10.886         c-2.206,8.189-8.298,19.659-14.584,16.884c-4.73-2.092-2.358-6.722,0.453-12.286c1.36-2.689,2.339-5.788,3.327-8.207         C320.972,257.506,323.497,253.79,327.046,254.18z"/>
							<path style="fill:#CAD309;" d="M244.668,101.934c-2.768,1.975-4.8,4.698-8.004,7.174c-2.845,2.194-7.276,3.27-8.002,7.171         c-0.33,1.739,0.335,4.361,3.035,5.485c4.544,1.885,9.465-2.819,12.385-6.244c2.549-2.995,7.792-10.023,12.296-6.953         c1.994,1.356,0.996,3.269,0.673,4.62c-2.341,9.566-14.446,7.872-20.63,11.313c-3.698,2.062-6.28,6.635-9.376,6.336         c-1.256-0.122-2.052-1.056-2.857-1.383c-3.672-1.487-6.22-0.909-8.243,1.366c-2.411,2.714-1.782,6.342-3.366,9.205         c-1.835,3.335-4.438,3.025-6.512,4.015c-1.893,0.904-4.636,1.643-5.948,5.23c-1.557,4.272,0.784,7.705,5.261,8.649         c5.2,1.099,10.543-3.989,15.205-7.57c5.222-3.991,11.96-9.831,19.73-7.939c7.262,1.774,4.424,5.58,4.901,10.54         c0.178,1.834,1.061,5.186,3.607,6.703c5.367,3.2,14.27-0.186,19.639-1.242c6.596-1.296,13.865-3.316,20.311-0.324         c3.913,1.82,4.528,4.185,6.493,7.084c1.596,2.352,2.922,3.676,3.238,5.891c0.557,3.943-0.371,7.453-0.207,10.695         c0.292,5.827,2.493,12.354,6.43,16.486c1.27,1.326,4.448,2.879,7.264,5.006c3.469,2.622,4.786,5.612,9.709,6.576         c5.892,1.15,14.74-3.592,17.358-8.808c4.178-8.349-2.585-13.007-6.702-17.591c-1.989-2.205-6.02-6.407-0.829-9.723         c5.622,3.204,3.935,7.177,8.416,10.14c2.929,1.939,7.317,2.182,11.008,3.012c3.619,0.806,8.05,1.8,10.181,4.388         c1.958,2.381,0.998,6.536,0.822,9.723c-0.227,3.902,0.181,8.045,0.718,10.021c0.82,3.028,2.112,6.278,3.554,8.706         c1.225,2.066,3.688,5.824,7.602,6.813c1.941,0.49,6.254-0.434,7.671-2.583c3.554-5.381,0.161-11.013-1.975-14.857         c-0.93-1.672-1.878-3.707-3.016-6.485c-0.605-1.463-2.346-5.28-1.398-7.237c1.524-3.114,10.965-3.432,13.219-3.925         c2.37-0.523,4.769-1.17,6.951-2.124c-13.959-37.319-43.528-68.547-83.886-83.287c-19.569-7.146-39.698-9.691-59.192-8.197         C249.613,98.892,247.098,100.195,244.668,101.934z"/>
							<path style="fill:#CAD309;" d="M141.184,171.496c4.094,1.155,1.909,8.539,7.524,9.816c3.262,0.735,8.535-3.731,10.844-8.495         c1.661-3.422,2.191-8.189,4.041-11.985c2.56-5.263,6.594-7.975,7.471-13.088c0.661-3.859-1.524-9.817-6.23-9.677         c-0.909,0.459-1.808,1.004-2.681,1.579c-9.325,9.475-17.404,20.38-23.877,32.536         C139.009,171.538,139.858,171.12,141.184,171.496z"/>
							<path style="fill:#CAD309;" d="M379.545,289.167c-5.277,2.31-8.036,8.199-13.706,14.51         c-5.046,5.621-11.211,8.774-14.282,13.297c-2.44,3.594-3.553,8.098-3.115,11.311c0.456,3.38,5.367,6.629,4.815,9.838         c-0.632,3.665-6.276,8.472-2.042,10.931c18.12-14.477,32.882-33.59,42.287-56.388         C390.162,288.448,384.364,287.069,379.545,289.167z"/>
							<path style="fill:#CAD309;" d="M160.326,318.144c-1.234-4.265-2.218-7.001-3.612-10.404         c-2.346-5.762-8.168-14.135-6.285-21.48c1.324-5.141,4.935-8.682,7.221-11.494c6.124-7.527,10.487-15.967,5.063-23.056         c-1.589-2.077-6.104-4.323-10.391-7.497c-3.78-2.796-5.803-5.409-10.521-6.197c-7.392-1.236-13.46,3.042-18.967,5.857         c-0.412,0.213-0.783,0.366-1.109,0.494c1.314,32.714,14.041,63.974,35.611,88.273         C163.137,331.147,161.466,322.117,160.326,318.144z"/>
							<path style="fill:#CAD309;" d="M292.881,372.609c-6.338-3.557-9.995,0.817-15.883-0.752         c-0.945-6.051-0.024-12.804-8.973-15.054c-7.968-2.008-15.62,2.282-21.669,5.885c-4.81,2.868-9.557,6.772-14.996,6.972         c-4.595,0.17-16.148-6.077-18.846-1.837c-0.508,0.793-0.682,1.693-0.648,2.629c0.866,0.335,1.726,0.668,2.592,0.983         c27.086,9.892,55.231,10.971,81.322,4.71C295.268,374.675,294.325,373.419,292.881,372.609z"/>
						</g>
						<path style="opacity:0.07;" d="M236.522,359.009c-73.295-26.764-111.014-107.886-84.253-181.181        c10.454-28.626,29.196-51.823,52.531-67.875c-33.444,15.098-61.017,43.117-74.595,80.3        c-26.761,73.297,10.955,154.416,84.253,181.181c44.671,16.314,92.25,8.674,128.657-16.373        C310.639,369.723,272.634,372.197,236.522,359.009z"/>
					</g>
					<g>
						<g>
							<path style="fill-rule:evenodd;clip-rule:evenodd;fill:#FFFFFF;" d="M343.302,321.668         c3.942,8.531,19.251-10.397,10.227-12.435C348.818,308.164,344.199,317.193,343.302,321.668z"/>
							<path style="fill-rule:evenodd;clip-rule:evenodd;fill:#FFFFFF;" d="M341.675,337.972c0.574-1.905,0.726-6.114-3.185-6.975         c-5.101-1.136-12.235,6.562-15.639,9.075c-4.142,3.056-13.315,6.947-12.635,12.708c0.981,8.215,13.667,0.258,17.923-2.655         c2.264-1.555,4.323-3.294,6.172-4.698C337.465,343.013,340.576,341.637,341.675,337.972z"/>
						</g>
						<g>
							<path style="fill-rule:evenodd;clip-rule:evenodd;fill:#FFFFFF;" d="M169.403,150.832c4.969-0.46,11.71-5.494,18.033-10.839         c2.712-2.29,7.035-6.067,5.258-8.718c-2.124-3.186-7.72,0.323-9.704,1.579c-6.316,3.997-13.139,10.105-15.813,14.414         C167.045,148.435,168.21,150.177,169.403,150.832z"/>
							<path style="fill-rule:evenodd;clip-rule:evenodd;fill:#FFFFFF;" d="M198.645,139.326c3.115,7.42,17.959-2.027,13.776-7.229         c-1.825-2.255-10.707-0.369-13.421,3.034C198.039,136.357,198.107,138.034,198.645,139.326z"/>
							<path style="fill-rule:evenodd;clip-rule:evenodd;fill:#FFFFFF;" d="M224.827,117.161c0.824,2.734,4.947,3.157,8.93,2.049         c3.202-0.898,8.928-4.067,6.787-7.239c-0.94-1.41-4.192-2.189-7.529-1.347C229.099,111.604,223.766,113.632,224.827,117.161z         "/>
						</g>
					</g>
				</g>
				<path style="fill-rule:evenodd;clip-rule:evenodd;fill:#4D3D87;" d="M258.598,284.401c3.785,0.944,9.887-2.414,12.484,0.723      c-1.596,5.538-11.375,4.923-18.781,6.185c-5.957,1.015-17.824,5.808-20.321,1.06c-2.582-4.927,6.206-11.993,8.911-14.935      c4.402-4.784,8.17-10.624,14.188-10.387c2.38,5.192-4.007,9.263-5.991,13.512c74.06-26.598,125.004-65.661,158.199-114.296      c0.569-0.263,0.935-0.158,1.172,0.207c-0.357,3.555-2.406,7.16-4.2,10.181c-5.311,8.97-13.089,17.832-20.589,26.243      C354.185,235.969,310.806,263.097,258.598,284.401z"/>
				<path style="fill:#FF5000;" d="M345.684,143.159c-0.248-10.801-9.47-19.452-20.9-19.727v-0.003      c-0.007,0-0.015,0.001-0.027,0.001c-0.005,0-0.014-0.001-0.021-0.001v0.003c-11.428,0.275-20.649,8.926-20.895,19.727      c-0.439,18.629,18.397,48.283,20.895,48.718v0.017c0.005,0,0.017-0.007,0.021-0.01c0.012,0.002,0.022,0.01,0.027,0.01v-0.017      C327.287,191.441,346.118,161.787,345.684,143.159z M315.037,145.155c0.094-5.051,4.405-9.262,9.721-9.262      c5.326,0,9.632,4.211,9.726,9.262c0.096,5.146-4.241,9.588-9.726,9.588C319.28,154.743,314.943,150.301,315.037,145.155z"/>
			</g>
		</g>
		<path style="fill:#4D3D87;" d="M222.51,292.796c-1.07,1.309-2.3,2.467-3.57,3.581c-1.268,1.12-2.611,2.142-3.99,3.123    c-2.765,1.948-5.706,3.639-8.761,5.115c-6.119,2.932-12.691,4.954-19.41,6.049c-6.714,1.096-13.578,1.246-20.295,0.465    c-6.712-0.804-13.303-2.49-19.386-5.367c6.721,0.054,13.195,0.193,19.608-0.083c6.401-0.25,12.717-0.852,18.966-1.86    c6.246-1.01,12.423-2.428,18.542-4.267C210.337,297.703,216.403,295.533,222.51,292.796z"/>
	</g>
	<g>
		<g>
			<g>
				<g>
					<path style="fill-rule:evenodd;clip-rule:evenodd;fill:#4D3D87;" d="M85.965,322.535c-0.065,0.012-0.154-0.023-0.21,0       c-1.685,0.517-2.276,4.358-3.052,6.466c-2.58,6.998-4.595,14.917-3.923,24.26c0.362,5.042,2.676,10.254,4.571,14.357       c0.598,1.278,1.531,2.76,1.741,3.843c0.407,2.052,0.087,4.531,0.222,6.673c0.388,6.171,0.979,13.077,1.304,19.206       c-15.883-2.302-41.414-9.442-59.04-10.124c-0.991,0.849-1.3,2.233-1.745,3.436c-1.271,3.467-2.387,7.817-2.826,12.335       c0.981,0.93,2.394,1.495,3.698,2.021c9.168,3.686,28.593,11.347,37.923,15.383c5.14,2.226,10.434,4.384,15.895,6.267       c5.543,1.914,11.57,4.161,17.635,4.652c10.261,0.827,13.86-4.201,16.336-10.919c2.377-6.461,3.108-13.727,3.701-22.24       c0.263-3.802,0.842-8.764,0-12.333c-0.333-1.404-1.338-2.634-1.965-4.041c-4.055-9.172-9.055-18.895-13.713-27.5       c-5.656-10.44-11.683-20.037-16.114-31.139C86.413,322.794,86.24,322.616,85.965,322.535z"/>
					<g>
						<path style="opacity:0.19;" d="M88.578,401.387c0.453,1.779,1.495,4.478,0,5.456c-2.618-0.779-3.809-3.724-5.227-5.862        c-1.02-1.55-2.216-3.137-3.103-4.59c2.117,0.323,4.243,0.64,6.37,0.951c-0.026-0.486-0.051-0.985-0.087-1.48        c0.099,0.023,0.205,0.043,0.309,0.064C87.315,397.439,88.082,399.466,88.578,401.387z"/>
						<path style="fill-rule:evenodd;clip-rule:evenodd;fill:#FFFFFF;" d="M101.43,427.669c2.447,0.975,4.716-1.102,6.095-2.628        c0.875-0.973,1.772-2.252,1.955-3.439c-0.195-0.146-0.326-0.368-0.429-0.606c-0.149,0-0.294,0-0.441,0        c-1.545,0.682-2.874,1.827-4.137,2.833C103.294,424.767,101.512,425.822,101.43,427.669z"/>
						<path style="fill-rule:evenodd;clip-rule:evenodd;fill:#FFFFFF;" d="M92.067,426.051c0.169,1.831,4.195,1.664,5.658,1.01        c-0.019-0.286-0.034-0.568,0.215-0.605C97.648,424.712,92.923,424.863,92.067,426.051z"/>
					</g>
				</g>
				<g>
					<g>
						<path style="fill-rule:evenodd;clip-rule:evenodd;fill:#FF5000;" d="M13.412,405.877c-1.726,2.628-3.495,5.06-5.619,7.012        c-0.224,0.205-0.801,0.062-1.032,0.256c-0.292,0.245-0.241,0.824-0.547,1.05c-0.42,0.31-0.853,0.602-1.303,0.874        c-1.051,0.638-2.531,1.577-3.783,0.979c-1.659-0.794-1.147-3.972-0.605-6.609c1.14-5.547,2.618-10.586,4.523-16.14        c1.55-4.488,3.296-8.417,6.473-9.022c1.74-0.332,3.64-0.078,5.593,0.299c0.286,0.055,0.425,0.528,0.713,0.587        c0.283,0.058,0.714-0.298,0.998-0.239c0.089,0.019,0.178,0.037,0.268,0.056c2.623,0.551,5.14,1.367,8.035,2.74        c-0.627,4.001-1.934,9.184-3.629,14.078c3.033,0.858,3.597,2.943,2.869,6.126c-0.251,1.091-0.924,2.842-1.618,3.121        C23.352,411.617,15.032,407.011,13.412,405.877z"/>
						<path style="fill:#FFFFFF;" d="M11.539,399.718c-3.546,1.923-6.112,6.988-5.716,12.099c0.055,0.659,0.142,1.584,0.391,2.376        c0.547-0.404,1.068-0.85,1.572-1.314c-0.084-0.27-0.159-0.538-0.19-0.8c-0.174-1.49-0.082-3.334,0.605-5.363        c2.473-7.368,9.038-6.927,15.733-4.756c0.234,0.074,0.463,0.176,0.69,0.281c-0.33-0.17-0.699-0.324-1.124-0.444        c0.184-0.541,0.364-1.087,0.545-1.636c-0.463-0.136-0.899-0.259-1.273-0.363C18.412,398.543,14.67,398.021,11.539,399.718z"/>
						<path style="fill:#FFFFFF;" d="M18.672,385.887c0.063-0.293,0.121-0.624,0.152-0.963c-0.572-0.117-1.14-0.238-1.712-0.348        c0.012,0.29,0.029,0.585-0.026,0.857c-0.986,5.01-4.648,6.039-8.243,5.692c-0.971-0.093-2.141-0.433-2.883-0.278        c-0.169,0.428-0.34,0.866-0.504,1.314c0.723,0.738,3.062,0.772,4.038,0.802C13.687,393.111,17.597,391.472,18.672,385.887z"/>
						<path style="fill:#4D3D87;" d="M10.625,384.56c-2.621,1.11-4.181,4.69-5.579,8.738c-1.904,5.553-3.382,10.592-4.523,16.14        c-0.487,2.36-0.945,5.141,0.159,6.273L10.625,384.56z"/>
					</g>
					<g>
						<path style="fill:#4D3D87;" d="M20.447,412.84c-0.128,0.128-0.28,0.245-0.46,0.345c-0.4,0.232-0.882,0.23-1.425-0.018        c-1.989-0.902-4.65-5.068-5.111-6.732c-0.046-0.162-0.01-0.338,0.092-0.463c0.099-0.125,0.26-0.186,0.408-0.16        c1.155,0.187,6.148,3.199,6.823,5.435C20.951,411.847,20.835,412.414,20.447,412.84L20.447,412.84 M14.723,407.142        c0.882,1.819,2.852,4.511,4.19,5.111c0.277,0.123,0.49,0.15,0.641,0.066c0.104-0.063,0.186-0.13,0.246-0.193l0,0        c0.106-0.115,0.195-0.26,0.097-0.581C19.458,410.095,16.384,407.98,14.723,407.142"/>
						<path style="fill:#4D3D87;" d="M16.623,415.359c-0.296,0.322-0.714,0.458-1.23,0.417c-0.451-0.034-0.853-0.312-1.201-0.834        c-1.246-1.895-1.454-6.94-1.027-8.604c0.043-0.166,0.154-0.291,0.311-0.34c0.142-0.054,0.309-0.018,0.429,0.094        c0.822,0.761,3.098,5.164,3.178,7.669C17.108,414.476,16.956,415.012,16.623,415.359L16.623,415.359 M13.899,407.674        c-0.138,2.049,0.21,5.431,1.044,6.706c0.174,0.259,0.345,0.401,0.509,0.421c0.248,0.011,0.424-0.035,0.528-0.144        c0.145-0.143,0.21-0.445,0.195-0.865C16.117,412.051,14.769,409.134,13.899,407.674"/>
						<polygon style="fill:#4D3D87;" points="10.709,413.144 14.012,406.704 13.209,406.229 9.904,412.673       "/>
					</g>
				</g>
			</g>
			<g>
				<g>
					<g>
						<path style="fill-rule:evenodd;clip-rule:evenodd;fill:#8F7ECE;" d="M139.879,411.715        c-9.084,15.965-11.765,37.879-14.234,59.98c0.306,0.799,1.449,0.754,2.124,0.991c3.674,1.29,8.036,2.561,12.445,3.703        c1.184,0.307,2.56,0.535,3.701,0.834c5.347-11.548,9.588-22.683,14.663-34.731c3.392-8.03,7.421-17.364,9.988-26.829        c0.907-3.341,1.784-7.026,1.697-10.456c-0.092-3.809-1.719-7.113-3.607-10.264c-5.15-8.583-11.717-16.817-17.428-24.463        c-3.836-5.141-7.794-10.595-11.686-16.184c-4.909-7.024-11.312-14.84-8.715-26.237c-12.872-1.908-27.209-3.173-39.948-4.537        c-0.465-0.051-0.533-0.315-1.275-0.199c-1.208,0.193-0.918,0.827-1.275,2.168c-1.507,5.736-2.553,12.947-2.129,20.124        c0.511,8.472,5.019,15.328,9.144,21.117C105.249,383.441,123.929,399.527,139.879,411.715z"/>
					</g>
					<g>
						<g>
							<path style="fill-rule:evenodd;clip-rule:evenodd;fill:#FFFFFF;" d="M159.371,396.407c-0.808,1.441,0.263,4.95,1.172,7.1         c0.366,0.873,0.687,2.024,1.63,2.345c1.28-0.517,0.572-2.369,0.318-3.61c-0.4-1.972-0.88-3.765-2.085-5.625         c-0.186-0.21-0.48-0.136-0.653-0.371C159.627,396.3,159.497,396.354,159.371,396.407z"/>
							<path style="opacity:0.19;fill-rule:evenodd;clip-rule:evenodd;" d="M157.247,405.348c-0.133,0.056-0.258,0.113-0.388,0.166         c-1.177,0.761-0.162,2.988,0.812,4C159.66,409.361,158.653,406.258,157.247,405.348z"/>
							<path style="fill-rule:evenodd;clip-rule:evenodd;fill:#FFFFFF;" d="M162.855,413.378c1.107-0.922,1.343-4.611-0.685-4.702         C161.126,409.701,160.975,412.753,162.855,413.378z"/>
						</g>
						<g>
							<path style="fill-rule:evenodd;clip-rule:evenodd;fill:#FFFFFF;" d="M137.75,429.079c1.049-0.018,1.483-1.619,1.922-2.962         c0.475-1.473,1.627-4.218,0-4.54C138.143,421.282,135.016,427.793,137.75,429.079z"/>
							<path style="opacity:0.19;fill-rule:evenodd;clip-rule:evenodd;" d="M140.518,431.443c-1.497,0.095-1.77,2.261-1.275,3.553         C140.687,434.859,141.292,432.404,140.518,431.443z"/>
							<path style="fill-rule:evenodd;clip-rule:evenodd;fill:#FFFFFF;" d="M135.2,433.419c-1.343,0.786-2.498,5.06-0.844,6.116         c1.521-0.024,2.03-5.123,1.275-6.116C135.484,433.419,135.344,433.419,135.2,433.419z"/>
						</g>
						<path style="opacity:0.19;" d="M148.587,416.253c-2.683-1.842-6.1-3.718-9.13-5.327c-0.229-0.04-0.323,0.056-0.436,0.126        c0.289,0.219,0.579,0.446,0.858,0.662c-0.914,1.606-1.745,3.287-2.539,5.006c4.118,1.037,8.843,2.19,13.378,2.096        C150.878,417.561,149.489,416.868,148.587,416.253z"/>
					</g>
				</g>
				<g>
					<g>
						<path style="fill-rule:evenodd;clip-rule:evenodd;fill:#FF5000;" d="M143.98,486.292c2.517,1.753,4.842,3.546,6.688,5.67        c0.293,0.337-0.148,0.642,0.119,0.996c0.134,0.177,0.986,0.397,1.113,0.579c0.291,0.417,0.564,0.848,0.817,1.294        c0.593,1.041,1.471,2.514,0.854,3.715c-0.822,1.598-3.908,1.016-6.471,0.413c-5.376-1.263-10.254-2.841-15.618-4.852        c-4.335-1.632-8.12-3.44-8.626-6.557c-0.276-1.708,0.024-3.553,0.445-5.448c0.054-0.243,1.02-0.261,1.077-0.506        c0.072-0.31-0.763-0.847-0.69-1.158c0.02-0.085,0.04-0.169,0.06-0.254c0.61-2.547,1.473-4.977,2.891-7.763        c3.889,0.717,8.908,2.134,13.636,3.922c0.923-2.939,2.97-3.434,6.056-2.634c1.054,0.275,2.746,0.976,3.001,1.661        C149.846,476.751,145.133,484.739,143.98,486.292z"/>
						<path style="fill:#FFFFFF;" d="M137.919,487.95c1.784,3.513,6.652,6.154,11.647,5.904c0.648-0.034,1.555-0.097,2.334-0.317        c-0.383-0.544-0.803-1.062-1.242-1.567c-0.265,0.076-0.526,0.141-0.786,0.163c-1.458,0.13-3.252-0.008-5.215-0.733        c-6.941-2.549-6.537-8.689-4.381-14.995l-0.002-0.062c-0.523-0.198-1.051-0.389-1.584-0.577        c-0.145,0.441-0.275,0.869-0.383,1.227C136.962,481.215,136.35,484.848,137.919,487.95z"/>
						<path style="fill:#FFFFFF;" d="M124.621,480.614c-0.28-0.064-0.603-0.135-0.933-0.176c-0.13,0.558-0.265,1.111-0.388,1.663        c0.285-0.003,0.572-0.008,0.837,0.048c4.863,1.1,5.765,4.699,5.328,8.199c-0.118,0.945-0.475,2.075-0.352,2.8        c0.415,0.181,0.837,0.357,1.275,0.529c0.735-0.684,0.829-2.963,0.89-3.915C131.533,485.673,130.043,481.815,124.621,480.614z"/>
						<path style="fill:#4D3D87;" d="M123.109,488.434c1.012,2.584,4.463,4.202,8.373,5.674c5.364,2.011,10.241,3.589,15.618,4.852        c2.295,0.539,4.993,1.058,6.128,0.017L123.109,488.434z"/>
					</g>
					<g>
						<path style="fill:#4D3D87;" d="M150.965,479.616c0.12,0.131,0.234,0.282,0.321,0.459c0.217,0.398,0.205,0.869-0.056,1.39        c-0.931,1.92-5.072,4.4-6.709,4.803c-0.157,0.041-0.325,0-0.441-0.1c-0.118-0.1-0.178-0.258-0.147-0.405        c0.21-1.117,3.286-5.907,5.485-6.506C150.012,479.099,150.559,479.224,150.965,479.616L150.965,479.616 M145.251,485.048        c1.798-0.816,4.477-2.664,5.099-3.951c0.128-0.265,0.156-0.476,0.082-0.623c-0.058-0.103-0.123-0.185-0.178-0.246l0,0        c-0.111-0.11-0.251-0.199-0.566-0.112C148.26,480.505,146.116,483.447,145.251,485.048"/>
						<path style="fill:#4D3D87;" d="M153.315,483.414c0.304,0.299,0.429,0.709,0.376,1.213c-0.046,0.439-0.328,0.823-0.844,1.145        c-1.883,1.171-6.813,1.231-8.421,0.772c-0.164-0.043-0.284-0.16-0.325-0.313c-0.048-0.142-0.012-0.301,0.101-0.418        c0.767-0.779,5.123-2.88,7.57-2.89C152.467,482.918,152.99,483.083,153.315,483.414L153.315,483.414 M145.745,485.865        c1.992,0.191,5.304-0.055,6.57-0.836c0.263-0.164,0.402-0.327,0.427-0.485c0.017-0.244-0.024-0.417-0.125-0.521        c-0.135-0.143-0.427-0.215-0.836-0.211C150.077,483.818,147.194,485.051,145.745,485.865"/>
						<polygon style="fill:#4D3D87;" points="150.998,489.127 144.802,485.729 144.32,486.5 150.514,489.898       "/>
					</g>
				</g>
			</g>
		</g>
		<g>
			<path style="fill-rule:evenodd;clip-rule:evenodd;fill:#FCD2C0;" d="M12.932,192.703c-0.861-0.245-3.537-1.542-4.983-1.724     c-0.559-0.076-1.246-0.008-1.422,0.434c-0.366,0.924,1.842,1.771,2.575,2.164c1.254,0.686,2.088,1.232,3.18,1.787     c-1.017-0.154-3.607-1.428-5.369-1.738c-0.738-0.134-1.606-0.153-1.806,0.423c-0.26,0.725,1.476,1.617,2.047,1.931     c2.751,1.519,5.81,3.237,7.727,4.852c2.209,1.862,3.85,3.742,5.273,6.109c0.345,0.573,0.82,1.934,1.49,2.148     c0.313,0.101,1.157-0.116,1.459-0.243c1.027-0.435,2.056-1.281,3.385-2.281c0.501-0.383,1.024-0.743,1.591-1.305     c0.461-0.454,1.333-1.151,1.442-1.436c0.176-0.452-0.246-1.524-0.501-2.154c-0.747-1.844-2.013-4.349-2.683-5.856     c-0.572-1.309-1.17-2.68-1.712-3.945c-0.504-1.199-2.131-5.142-3.862-4.73c-1.432,0.344,0.639,3.984,0.711,5.055     c-1.365-1.344-3.927-3.198-6.975-4.464c-0.798-0.332-2.437-1.107-2.888-0.516c-0.624,0.811,0.656,1.472,1.177,1.88     c0.728,0.565,1.196,1.053,1.909,1.437c-1.176-0.276-3.558-1.5-4.995-1.639c-0.473-0.046-1.061,0.067-1.215,0.398     c-0.352,0.78,0.991,1.291,1.801,1.778c1.106,0.664,1.775,1.168,2.551,1.612C12.864,192.684,12.891,192.695,12.932,192.703z"/>
			<path style="fill-rule:evenodd;clip-rule:evenodd;fill:#FCD2C0;" d="M175.047,194.865c-0.191,1.614-0.67,4.352-0.849,6.314     c-0.055,0.675-0.14,1.813,0.159,2.199c0.188,0.251,1.234,0.695,1.813,1.012c0.675,0.38,1.258,0.588,1.832,0.815     c1.987-1.439,4.316-2.46,6.806-2.963c0.651-1.912,1.521-3.656,2.736-5.473c1.367-2.043,3.802-4.475,5.996-6.638     c0.458-0.452,1.866-1.749,1.403-2.379c-0.364-0.502-1.198-0.258-1.868,0.049c-1.603,0.754-3.71,2.641-4.641,3.047     c0.882-0.81,1.521-1.552,2.529-2.53c0.579-0.567,2.459-1.946,1.83-2.734c-0.301-0.381-0.979-0.27-1.495-0.059     c-1.292,0.528-3.356,2.33-4.178,2.863l-0.017,0.016c-0.024,0.018-0.055,0.031-0.082,0.048c0.027-0.017,0.072-0.051,0.099-0.064     c0.603-0.623,1.099-1.269,1.96-2.184c0.632-0.675,1.777-1.504,1.203-2.165c-0.241-0.283-0.841-0.24-1.278-0.076     c-1.348,0.5-3.269,2.288-4.33,2.852c0.571-0.552,0.887-1.137,1.413-1.869c0.381-0.53,1.42-1.489,0.579-2.106     c-0.615-0.457-1.96,0.708-2.628,1.227c-2.553,1.994-4.47,4.429-5.379,6.074c-0.253-1.045,0.656-5.077-0.815-5.04     c-1.791,0.041-2.191,4.249-2.322,5.529C175.384,191.981,175.213,193.459,175.047,194.865z"/>
			<g>
				<path style="fill-rule:evenodd;clip-rule:evenodd;fill:#FF5000;" d="M174.986,195.332c2.751,0.847,8.607,2.726,11.218,3.672      c-3.093,8.75-8.46,28.133-11.495,35.655c-3.064,7.61-4.598,12.417-10.326,17.537c-11.073,9.899-19.123,14.369-23.393,25.207      c-3.365,8.545-0.439,43.673,1.389,64.121c-13.089,1.631-52.682,5.398-68.773,3.441c0.518-11.641,2.633-55.542-1.302-63.89      c-2.628-5.567-14.075-16.423-17.281-18.582c-6.36-4.278-12.645-9.02-17.469-14.835c-5.075-6.113-16.809-29.614-20.329-44.609      c3.072-2.059,6.707-3.153,10.403-4.467c7.144,12.979,15.239,28.827,27.318,38.192c11.912,9.229,23.402,17.449,41.689,22.63      c7.645,1.453,11.213,1.267,15.787-0.8c11.979-7.157,27.103-12.467,38.429-20.304      C162.313,230.369,174.986,195.332,174.986,195.332z"/>
				<g>
					<path style="fill:#FFFFFF;" d="M162.182,245.109c1.034,1.786,7.305-4.278,6.464-5.75       C168.414,238.951,160.651,242.483,162.182,245.109z"/>
					<path style="fill:#FFFFFF;" d="M157.281,250.633c0.882,1.292,3.874-0.931,3.392-2.453       C160.14,246.501,156.664,249.728,157.281,250.633z"/>
					<path style="fill:#FFFFFF;" d="M49.587,241.135c-1.08-0.909-2.457-2.887-3.472-1.827c-1.292,1.352,3.373,5.73,5.333,4.278       C52.531,242.786,50.443,241.843,49.587,241.135z"/>
					<path style="fill:#FFFFFF;" d="M56.873,259.662c-2.331,1.451,4.149,5.342,5.817,3.926       C64.006,262.472,58.421,258.7,56.873,259.662z"/>
					<path style="fill:#FFFFFF;" d="M64.204,265.796c0.299,0.898,2.285,2.359,3.093,1.376       C68.148,266.144,63.377,263.329,64.204,265.796z"/>
					<path style="fill:#FFFFFF;" d="M83.132,276.329c-1.811,0.139-0.523,2.974-0.169,4.45c0.357,1.455,0.583,3.402,1.996,3.078       C87.672,283.232,84.89,276.194,83.132,276.329z"/>
					<path style="fill:#FFFFFF;" d="M86.98,289.987c1.222-0.291,0.728-2.536-0.002-3.254       C85.239,285.051,84.721,290.52,86.98,289.987z"/>
				</g>
			</g>
			<g>
				<path style="fill-rule:evenodd;clip-rule:evenodd;fill:#FCD2C0;" d="M111.098,253.062c5.528-0.565,8.846-2.986,8.296-9.179      c-0.193-2.243-0.94-5.388-1.389-8.368c-0.824-5.451-1.965-9.314-5.063-12.005c-2.056-1.784-4.932-2.725-7.392-3.188      c-2.505-0.466-6.326,0.282-8.226,1.029c-5.029,1.983-9.197,8.249-7.498,14.969c0.668,2.631,1.936,4.904,3.221,6.854      c2.088,3.174,2.604,5.814,3.084,10.026c0.205,1.76,0.391,5.676,0.391,5.676c0.041,3.771,5.581,9.323,9.757,8.631      c2.526-0.414,5.203-3.523,4.848-7.281L111.098,253.062"/>
				<g>
					<path style="fill-rule:evenodd;clip-rule:evenodd;fill:#4D3D87;" d="M99.09,244.57c0.21,2.478-0.805,4.436-3.631,4.85       c-4.484,0.663-14.097-10.916-13.212-18.38c0.297-2.56,1.859-4.596,4.482-6.045c1.507-4.129,2.684-6.467,8.168-8.557       c7.211-2.747,19.81-5.036,22.267-0.786c2.131,3.69-0.789,7.583-2.843,9.314c-1.167,0.982-3.173,2.082-4.836,2.858       c-1.895,0.891-4.32,1.267-5.514,2.355c-1.01,0.932-1.09,3.368-0.969,5.228c0.084,1.226,1.189,4.447-0.967,5.23       c-2.823,1.02-3.833-4.154-6.75-3.392c-2.667,0.704-1.958,4.322-0.14,6.156C96.344,244.613,97.689,244.454,99.09,244.57z"/>
					<g>
						<path style="fill-rule:evenodd;clip-rule:evenodd;fill:#FFFFFF;" d="M86.372,230.387c-1.133-1.192-2.565,2.475-1.389,2.943        c1.369,0.542,1.782-1.995,1.488-2.822C86.454,230.454,86.413,230.429,86.372,230.387z"/>
						<path style="fill-rule:evenodd;clip-rule:evenodd;fill:#FFFFFF;" d="M87.399,234.293c-1.051-0.839-2.44,2.186-1.041,2.465        C87.416,236.972,88.125,234.873,87.399,234.293z"/>
					</g>
					<g>
						<path style="fill-rule:evenodd;clip-rule:evenodd;fill:#FFFFFF;" d="M110.575,215.099c-0.345-1.558,3.67-0.417,3.368,0.733        c-0.35,1.348-2.787,0.125-3.32-0.588C110.592,215.192,110.594,215.151,110.575,215.099z"/>
						<path style="fill-rule:evenodd;clip-rule:evenodd;fill:#FFFFFF;" d="M113.331,218.206c-0.101-1.286,3.344-0.498,2.741,0.706        C115.616,219.83,113.386,219.095,113.331,218.206z"/>
					</g>
				</g>
				<g>
					<g>
						<g>
							<g>
								<path style="fill-rule:evenodd;clip-rule:evenodd;fill:#FFFFFF;" d="M109.623,232.829c0.753-1.033,1.573-1.584,2.351-1.85          c1.853-0.015,2.275,0.394,2.275,0.394s0.196,0.474-0.612,1.452c-0.242,0.117-0.513,0.227-0.818,0.322          C111.334,233.611,109.623,232.829,109.623,232.829"/>
								<path style="fill-rule:evenodd;clip-rule:evenodd;fill:#4D3D87;" d="M115.387,231.3c0,0-1.582-0.938-3.414-0.323          c-0.029,0.151-0.111,0.441-0.089,0.598c0.079,0.697,0.716,1.227,1.521,1.351C114.922,232.278,115.387,231.3,115.387,231.3"/>
							</g>
							<path style="fill:#4D3D87;" d="M108.675,231.766c1.456-2.475,4.655-2.903,5.895-2.717l0.169-0.987         c-1.951-0.295-5.415,0.514-7.011,3.228L108.675,231.766z"/>
						</g>
						<path style="fill-rule:evenodd;clip-rule:evenodd;fill:#FCD2C0;" d="M116.745,230.597c-0.936,0.05,0.581,5.916,1.646,8.115        c1.21,0.089,2.698-0.466,2.893-1.414C121.689,235.42,117.627,230.548,116.745,230.597"/>
						<path style="opacity:0.13;fill-rule:evenodd;clip-rule:evenodd;" d="M116.745,230.597c-0.936,0.05,0.581,5.916,1.646,8.115        c1.21,0.089,2.698-0.466,2.893-1.414C121.689,235.42,117.627,230.548,116.745,230.597"/>
						<path style="opacity:0.13;" d="M105.753,237.766c0.036,1.641,1.495,2.94,3.264,2.904c1.755-0.035,3.153-1.396,3.119-3.03        c-0.039-1.636-1.497-2.934-3.259-2.9C107.113,234.777,105.712,236.129,105.753,237.766"/>
					</g>
					<path style="opacity:0.13;" d="M112.651,241.696l-0.754,0.914c2.016,1.421,5.027,2.152,7.45,0.843       c-0.041-0.403-0.092-0.823-0.162-1.269C117.181,243.591,114.442,242.963,112.651,241.696z"/>
					<path style="opacity:0.13;fill-rule:evenodd;clip-rule:evenodd;" d="M111.098,253.062c0,0-5.533-0.215-9.342-2.073       c0,0,2.309,6.657,9.446,6.724L111.098,253.062z"/>
				</g>
				<g>
					<path style="fill-rule:evenodd;clip-rule:evenodd;fill:#FFFFFF;" d="M95.632,277.376c2.743,0.551,11.758-7.693,11.396-9.482       c-0.398-1.92-8.491-11.851-10.034-12.162c-2.341-0.123-2.464,3.051-2.734,5.145c-0.46,3.545-0.444,7.26-0.219,11.036       C94.157,273.986,93.766,277.006,95.632,277.376z"/>
					<path style="fill-rule:evenodd;clip-rule:evenodd;fill:#FFFFFF;" d="M106.39,267.993c0.422,2.72,7.917,7.43,9.578,6.605       c1.748-0.873-2.044-16.567-4.542-16.859C109.141,258.723,106.021,265.633,106.39,267.993z"/>
				</g>
			</g>
		</g>
	</g>
	<g>
		<g>
			<g>
				<g>
					<path style="fill-rule:evenodd;clip-rule:evenodd;fill:#FCD2C0;" d="M380.976,290.771c0,0-10.162,0.895-10.277,1.338       c-1.829,7.037-3.322,13.509-3.782,16.038c-4.364-11.565-9.798-27.185-12.84-41.043c-0.039,0.012-0.067,0.024-0.104,0.035       c-0.145-0.945-0.287-1.83-0.374-2.523c-0.193-1.462-0.386-3.005-0.547-4.417c-0.15-1.337-0.613-5.733-2.413-5.754       c-1.478-0.018-0.499,4.187-0.74,5.283c-0.931-1.708-2.895-4.229-5.485-6.278c-0.678-0.535-2.047-1.734-2.652-1.249       c-0.836,0.656,0.227,1.651,0.608,2.194c0.543,0.757,0.868,1.369,1.449,1.935c-1.07-0.574-3.021-2.416-4.381-2.923       c-0.444-0.165-1.044-0.207-1.283,0.096c-0.562,0.702,0.591,1.553,1.242,2.25c0.873,0.944,1.379,1.615,1.994,2.253       c0.031,0.02,0.072,0.054,0.101,0.067c-0.029-0.013-0.058-0.029-0.08-0.047c-0.01-0.006-0.017-0.012-0.022-0.02       c-0.827-0.546-2.934-2.401-4.231-2.933c-0.518-0.215-1.205-0.316-1.495,0.082c-0.622,0.835,1.28,2.256,1.871,2.836       c1.03,1.013,1.678,1.772,2.58,2.607c-0.94-0.409-3.086-2.354-4.701-3.118c-0.677-0.315-1.516-0.558-1.871-0.031       c-0.453,0.667,0.969,2.005,1.437,2.475c2.237,2.232,4.711,4.743,6.112,6.86c1.097,1.655,1.912,3.26,2.56,4.974       c3.539,19.254,4.436,39.115,11.208,55.27c2.756,6.566,7.884,14.242,16.288,9.289c7.839-4.62,13.849-27.929,15.918-37.904       C387.362,296.988,380.671,293.061,380.976,290.771z"/>
					<path style="fill:#8F7ECE;" d="M399.172,255.865c-7.384,2.791-13.921,3.215-20.693,12.565c-1.951,2.695-5.2,13.751-7.78,23.679       l16.375,6.272c0.292-1.412,0.506-2.553,0.632-3.333C387.313,293.076,391.119,266.659,399.172,255.865z"/>
					<g>
						<g>
							<g>
								<path style="fill-rule:evenodd;clip-rule:evenodd;fill:#FFFFFF;" d="M359.807,330.826c0.094,1.863,1.244,2.36,2.758,2.394          C364.036,331.625,361.333,329.231,359.807,330.826z"/>
								<path style="fill-rule:evenodd;clip-rule:evenodd;fill:#FFFFFF;" d="M365.147,335.854c2.886,0.541,6.234-1.62,6.664-4.096          c-0.299-0.281-0.627-0.521-0.981-0.721c-1.167,0.45-2.777,1.208-3.887,2.018          C366.109,333.665,364.713,334.674,365.147,335.854z"/>
							</g>
							<path style="opacity:0.13;fill:#FFFFFF;" d="M371.977,315.919c0.2,1.621,1.174,4.658-0.632,4.77         c-1.504,0.092-2.064-2.734-2.666-4.747c-0.663-2.232-1.394-5.159-1.83-7.958c0.024,0.053,0.046,0.111,0.068,0.164         c0.47-2.584,1.073-5.115,1.673-7.581C370.041,304.779,371.319,310.598,371.977,315.919z"/>
						</g>
					</g>
				</g>
				<path style="opacity:0.42;fill:#FFFFFF;" d="M399.172,255.865c-7.384,2.791-13.921,3.215-20.693,12.565      c-1.951,2.695-5.2,13.751-7.78,23.679l16.375,6.272c0.292-1.412,0.506-2.553,0.632-3.333      C387.313,293.076,391.119,266.659,399.172,255.865z"/>
			</g>
			<g>
				<path style="fill-rule:evenodd;clip-rule:evenodd;fill:#FFFFFF;" d="M378.007,277.297c0.193,0.305,0.514,0.579,0.769,0.54      c0.993-0.139,2.334-3.455,1.36-4.181c-0.8-0.609-1.406,0.218-1.837,1.445C377.966,276.017,377.63,276.725,378.007,277.297z"/>
				<path style="fill-rule:evenodd;clip-rule:evenodd;fill:#FFFFFF;" d="M381.189,270.741c0.644,1.231,1.478,0.135,2.442-1.049      c0.894-1.088,1.724-1.99,1.102-2.841c-0.142-0.205-0.453-0.463-0.762-0.453c-1.01,0.026-2.948,3.014-2.994,3.695      C380.967,270.3,381.109,270.59,381.189,270.741z"/>
			</g>
		</g>
		<g>
			<g>
				<path style="fill-rule:evenodd;clip-rule:evenodd;fill:#4D3D87;" d="M443.088,399.712c0.017,0.228,0.034,0.455,0.067,0.671      c-1.389-0.659-2.866-1.883-4.648-1.445c-2.225,0.547-1.413,3.844-0.899,5.217c-1.152-0.612-2.396-1.346-3.742-1.161      c-2.676,0.372-2.678,4.267-1.647,6.526h-0.149c-1.186-0.805-2.71-2.103-4.34-1.74c-2.293,0.509-1.42,4.158-1.049,6.234      c-1.589-1.032-3.055-3.358-5.393-2.9c-2.167,0.429-1.934,3.797-1.644,6.382c-1.442-1.12-3.293-3.65-5.388-2.466      c-1.422,0.8-1.316,2.968-1.35,5.367c-1.454-1.255-2.042-3.338-4.947-3.188c-1.184,0.833-1.538,2.469-1.492,4.493      c-1.107-0.899-1.931-2.665-3.597-2.465c-2.138,0.26-2.023,4.027-1.794,6.526c-1.586-1.192-2.97-4.422-5.69-3.627      c-1.714,0.501-1.357,3.332-1.948,5.219c-0.547-1.188-1.577-3.374-2.698-4.349c-2.676-2.328-4.014,0.8-4.193,3.626      c-0.566-1.164-1.032-2.416-2.396-2.466c-1.654-0.052-2.526,1.772-3.067,3.725c0.316,0.919,0.492,1.892,0.492,2.904      c0,0.421-0.036,0.84-0.096,1.245c6.406,2.639,16.394,0.651,22.891-0.33c3.45-0.526,6.721-1.035,9.728-1.888      c5.846-1.656,11.039-4.316,15.577-7.394c7.99-5.428,13.672-15.121,15.268-22.026      C444.764,400.413,444.462,400.458,443.088,399.712z"/>
				<g>
					<g>
						<path style="fill-rule:evenodd;clip-rule:evenodd;fill:#4D3D87;" d="M486.846,388.079c4.858,0.594,15.02-3.718,18.219-1.654        c1.468,0.95,4.639,4.807,6.497,3.262c1.196-0.992-0.311-3.341-1.495-5.183c-1.89-2.93-4.156-6.555-6.531-7.629        c-3.308-1.496-6.237-0.239-9.479-0.767c2.336-1.662,4.072-3.416,6.473-5.068c-0.851-1.15-1.705-2.3-2.558-3.455        c-3.944,2.352-13.301,6.699-16.621,12.04L486.846,388.079z"/>
						<path style="fill-rule:evenodd;clip-rule:evenodd;fill:#FCD2C0;" d="M439.477,409.312        c10.543-11.517,24.61-20.169,41.874-29.687c15.866,1.358,15.379,4.859,6.423,8.063        c-15.266,15.579-28.104,37.391-41.291,42.417c-7.761,2.952-23.156-8.43-25.283-10.419l16.929-12.534L439.477,409.312z"/>
					</g>
					<g>
						<path style="fill-rule:evenodd;clip-rule:evenodd;fill:#FFFFFF;" d="M454.296,401.024c-1.953-0.989-5.251,2.522-7.252,5.039        c-0.82,1.037-1.726,2.423-1.668,3.082c-0.118,0.34,0.205,0.74,0.362,0.876C447.879,411.869,455.316,402.861,454.296,401.024z"/>
						<path style="fill-rule:evenodd;clip-rule:evenodd;fill:#FFFFFF;" d="M458.8,398.982c1.401-0.205,4.504-3.121,3.58-4.536        C460.861,393.373,456.102,397.381,458.8,398.982z"/>
					</g>
				</g>
				<g>
					<g>
						<path style="fill-rule:evenodd;clip-rule:evenodd;fill:#4D3D87;" d="M398.613,478.926c-3.221,3.567-5.215,14.136-8.766,15.549        c-1.637,0.647-6.71,1.039-6.427,3.397c0.176,1.512,3.035,1.618,5.27,1.693c3.563,0.123,7.934,0.332,10.189-0.972        c3.122-1.822,3.689-4.872,5.96-7.183c0.116,2.799,0.639,5.179,0.709,8.031c1.463-0.045,2.932-0.08,4.39-0.127        c0.19-4.473,1.702-14.427-1.015-20.074L398.613,478.926z"/>
						<path style="fill-rule:evenodd;clip-rule:evenodd;fill:#FCD2C0;" d="M403.769,419.686c7.264,17.543,6.98,36.304,5.152,59.553        c-10.031,11.976-12.756,9.633-10.492,0.648c-4.807-20.969-10.584-33.804-13.229-56.867        C391.546,422.158,397.742,420.372,403.769,419.686z"/>
					</g>
					<g>
						<path style="fill-rule:evenodd;clip-rule:evenodd;fill:#FFFFFF;" d="M400.076,423.069c-1.885,1.103-0.489,5.656,0.702,8.613        c0.492,1.217,1.242,2.687,1.856,2.979c0.236,0.276,0.759,0.217,0.959,0.154C406.337,433.996,402.226,423.172,400.076,423.069z        "/>
						<path style="fill-rule:evenodd;clip-rule:evenodd;fill:#FFFFFF;" d="M400.599,418.278c0.547-1.268-0.427-5.345-2.155-5.316        C396.713,413.67,397.79,419.689,400.599,418.278z"/>
					</g>
				</g>
			</g>
			<g>
				<path style="fill-rule:evenodd;clip-rule:evenodd;fill:#FF5000;" d="M444.945,400.402      c-11.355,12.262-25.184,21.957-44.02,27.261c-6.138,1.724-12.602,3.228-19.463,4.348c-0.603-5.993-1.724-12.081-2.551-18.412      c-0.81-6.28-1.174-12.751-1.495-19.434c-0.634-13.302,0.812-26.646,2.994-38.572c1.099-5.974,2.676-11.572,3.891-17.111      c2.488-11.306,5.249-23.697,3.894-37.124c-0.313-3.094-0.892-5.922-1.647-8.846c-0.67-2.611-2.02-5.072-2.693-7.828      c-1.56-6.392,2.64-9.101,5.69-12.761c6.14-7.353,8.532-19.475,17.665-23.636c5.69-2.589,13.39,0.885,16.77,4.203      c6.934,6.785,6.973,21.475,4.651,33.064c-0.914,4.517-2.044,8.844-3.3,13.05c-1.258,4.23-2.845,8.866-2.845,13.341      c0,6.914,4.708,11.781,7.192,17.255c2.768,6.131,4.168,12.396,3.592,20.737c-0.335,4.765-2.177,9.446-3.592,13.776      c-1.01,3.09-2.112,6.395-3.296,9.72c-0.437,1.219-1.071,2.276-1.051,3.187c0.017,0.606,0.318,0.891,0.902,1.597      C432.341,385.601,439.221,392.93,444.945,400.402z"/>
				<g>
					<g>
						<path style="fill-rule:evenodd;clip-rule:evenodd;fill:#FFFFFF;" d="M421.991,289.554c-1.63,0.229-2.838,3.656-3.558,6.973        c-0.449,2.047-1.22,5.658,0.029,6.083c2.066,0.708,2.377-4.435,2.919-7.122C421.906,292.92,423.025,290.907,421.991,289.554z"/>
						<path style="fill-rule:evenodd;clip-rule:evenodd;fill:#FFFFFF;" d="M418.008,306.192c-0.805,1.376-1.382,3.882-0.299,4.707        c0.229-0.116,0.535-0.106,0.902-0.005C419.527,309.865,420.53,305.717,418.008,306.192z"/>
					</g>
					<g>
						<path style="fill-rule:evenodd;clip-rule:evenodd;fill:#FFFFFF;" d="M428.457,342.77c-1.355,1.141-1.748,5.014-1.748,7.486        c0,0.998-0.174,2.259,0.6,2.923c1.432-0.047,1.502-2.152,1.762-3.473c0.412-2.108,0.69-4.061,0.289-6.35        c-0.094-0.271-0.403-0.313-0.473-0.607C428.741,342.753,428.597,342.764,428.457,342.77z"/>
						<path style="fill-rule:evenodd;clip-rule:evenodd;fill:#FFFFFF;" d="M422.815,350.887c-0.145,0.007-0.285,0.017-0.427,0.024        c-1.437,0.327-1.369,2.909-0.848,4.268C423.488,355.756,423.792,352.303,422.815,350.887z"/>
						<path style="fill-rule:evenodd;clip-rule:evenodd;fill:#FFFFFF;" d="M424.925,360.91c1.418-0.513,3.134-4.091,1.244-4.924        C424.758,356.626,423.374,359.604,424.925,360.91z"/>
					</g>
				</g>
			</g>
			<g>
				<path style="fill:#4D3D87;" d="M424.05,318.856c-0.646-1.468-1.14-3.011-1.386-4.66c-11.606-0.263-23.152-0.388-34.336,0.319      c-0.101,1.417-0.231,2.821-0.393,4.213C400.013,318.872,411.834,318.406,424.05,318.856z"/>
				<path style="fill:#FFFFFF;" d="M403.514,320.781l-5.4,0.104c-1.565,0.024-2.869-1.227-2.893-2.795l-0.06-3.175      c-0.029-1.567,1.227-2.865,2.794-2.894l5.396-0.097c1.569-0.028,2.871,1.224,2.898,2.792l0.06,3.173      C406.332,319.458,405.081,320.756,403.514,320.781z M397.993,314.192c-0.374,0.006-0.668,0.311-0.658,0.683l0.053,3.176      c0.01,0.367,0.316,0.666,0.682,0.657l5.403-0.095c0.374-0.011,0.668-0.315,0.661-0.685l-0.058-3.175      c-0.005-0.371-0.313-0.67-0.685-0.664L397.993,314.192z"/>
			</g>
		</g>
		<g>
			<g>
				<path style="fill-rule:evenodd;clip-rule:evenodd;fill:#FCD2C0;" d="M463.072,228.852c-0.557-4.272-2.994-8.471-5.282-12.129      c-4.528-7.228-18.487-25.144-21.303-28.138c-0.441-0.858-0.839-1.755-1.193-2.73c-0.76-2.081-1.223-5.093-1.606-7.796      c-0.082-0.565-0.277-2.241-0.991-2.298c-0.574-0.046-0.851,0.646-0.988,1.271c-0.328,1.495-0.099,3.982-0.309,4.834      c-0.108-1.054-0.304-1.902-0.473-3.137c-0.101-0.707-0.082-2.746-1.017-2.787c-0.446-0.016-0.74,0.499-0.868,0.964      c-0.323,1.16-0.123,3.57-0.181,4.418c0,0.007,0.007,0.016,0.007,0.025c-0.007,0.024-0.01,0.051-0.012,0.078      c0.002-0.028,0.002-0.071,0.005-0.103c-0.128-0.756-0.335-1.457-0.533-2.552c-0.157-0.81-0.135-2.043-0.94-2.043      c-0.347-0.002-0.646,0.422-0.764,0.808c-0.371,1.181-0.104,3.487-0.27,4.513c-0.092-0.698-0.362-1.243-0.603-2.014      c-0.181-0.553-0.325-1.795-1.239-1.594c-0.677,0.148-0.557,1.71-0.538,2.455c0.072,2.841,0.81,5.516,1.531,7.064      c-0.916-0.435-3.392-3.355-4.176-2.354c-0.955,1.216,1.938,3.896,2.809,4.719c0.928,0.865,1.924,1.828,2.869,2.744      c0.089,0.082,0.178,0.177,0.273,0.268c6.256,7.946,17.498,32.96,17.664,36.063c0.196,3.782-5.373,9.417-10.997,14.041      c-1.447,1.19,1.577,10.48,3.272,13.192c0.723,0.791,9.399,3.223,10.043,2.479c4.573-5.284,8.824-10.582,11.178-14.453      C461.013,240.431,463.921,235.215,463.072,228.852z"/>
				<g>
					<g>
						<path style="fill-rule:evenodd;clip-rule:evenodd;fill:#FFFFFF;" d="M458.552,226.685c0.043,1.264,0.118,2.49,1.114,2.716        C461.544,229.027,460.068,225.078,458.552,226.685z"/>
						<path style="fill-rule:evenodd;clip-rule:evenodd;fill:#FFFFFF;" d="M457.313,238.424c1.528,0.353,2.001-1.53,2.531-2.548        c0.603-1.145,1.398-2.568,1.302-3.96c-0.325-0.059-0.904-0.823-1.162-0.306c-1.174,0.562-1.242,2.096-1.724,3.24        C457.807,235.914,456.654,237.159,457.313,238.424z"/>
					</g>
				</g>
				<path style="fill:#8F7ECE;" d="M422.731,251.412c-15.825,12.134-6.818,33.722,5.762,27.77      c0.156,0.031,10.048-9.992,18.771-20.068l-13.318-15.673C428.777,247.689,423.565,251.089,422.731,251.412z"/>
				<path style="opacity:0.42;fill:#FFFFFF;" d="M422.731,251.412c-15.825,12.134-6.818,33.722,5.762,27.77      c0.156,0.031,10.048-9.992,18.771-20.068l-13.318-15.673C428.777,247.689,423.565,251.089,422.731,251.412z"/>
			</g>
			<g>
				<path style="fill-rule:evenodd;clip-rule:evenodd;fill:#FCD2C0;" d="M415.911,225.531c0.138-7.246-5.405-12.805-10.806-13.798      c-2.039-0.377-5.967-0.355-8.322,0.644c-2.31,0.978-4.918,2.541-6.531,4.795c-2.435,3.402-2.662,7.594-2.223,13.359      c0.241,3.15,0.301,6.516,0.555,8.865c0.494,4.505,1.712,7.633,7.688,6.731l2.105,10.714c1.49,5.936,15.152-1.203,15.152-6.656      l-2.066-9.818c0.415-2.612,1.854-4.34,2.864-7.144C415.146,230.956,415.867,228.365,415.911,225.531z"/>
				<path style="fill:#4D3D87;" d="M388.665,239.854c-0.207-2.02,0.342-4.251,0.224-6.279c-0.111-1.989,0.405-3.842,0.33-5.75      c-0.171-4.184,0.202-8.027,1.914-10.129c2.507,2.736,6.025,4.019,10.791,3.514c0.07,2.838,0.227,5.74,0.69,8.842l1.914,0.036      c-0.166-2.698,0.26-6.153,3.028-6.646c1.577-0.275,3.354,0.693,3.761,2.463c0.581,2.498-1.432,4.403-3.308,5.902      c-2.011,1.602-4.125,3.01-5.511,4.467c-2.961,3.13-4.036,6.15-4.046,9.93v0.023c-0.224,3.921,0.803,6.513,1.43,8.022      c10.75-1.457,21.541-2.58,32.286-4.065c-0.205-0.343-0.403-0.691-0.578-1.047c-1.476-3.015-1.41-5.862-1.688-8.938      c-0.003-0.037-0.005-0.076-0.01-0.118c-0.015-0.151-0.031-0.307-0.046-0.462c-0.378-3.409-1.909-6.081-3.809-8.31      c-1.74-2.04-4.106-3.556-5.142-5.897c-0.928-2.116-0.26-3.941-0.444-5.59c-1.068-9.834-10.123-12.371-19.33-10.082      c-2.355,0.583-5.328,1.496-7.259,2.556c-2.842,1.579-5.171,4.101-6.854,6.573c-1.753,2.577-2.951,5.764-3.067,9.163      c-5.207,4.012-7.688,10.369-5.487,18.894l12.223-1.829C389.625,244.249,388.988,243.048,388.665,239.854z"/>
				<g>
					<g>
						<g>
							<path style="fill-rule:evenodd;clip-rule:evenodd;fill:#FFFFFF;" d="M397.417,226.719c-1.115,0.751-2.103,1.004-2.939,0.991         l-2.043-1.425l1.36-0.979c0.23-0.019,0.478-0.026,0.743-0.015C396.11,225.355,397.417,226.719,397.417,226.719"/>
							<path style="fill-rule:evenodd;clip-rule:evenodd;fill:#4D3D87;" d="M391.406,226.203c0,0,1.109,1.469,3.072,1.505         c0.089-0.133,0.279-0.388,0.32-0.55c0.191-0.707-0.198-1.454-0.902-1.856C392.214,225.409,391.406,226.203,391.406,226.203"/>
						</g>
						<path style="fill:#4D3D87;" d="M397.899,225.066c-2.336-1.925-5.511-1.238-6.594-0.626l-0.538-0.91        c1.716-0.967,5.285-1.377,7.836,0.734L397.899,225.066z"/>
					</g>
					<g>
						<path style="fill-rule:evenodd;clip-rule:evenodd;fill:#FCD2C0;" d="M389.516,225.968c0.921-0.136,0.786,6.189,0.236,8.667        c-1.174,0.341-2.756,0.077-3.17-0.854C385.76,231.939,388.622,226.107,389.516,225.968"/>
						<g>
							<path style="fill-rule:evenodd;clip-rule:evenodd;fill:#FF5000;" d="M392.016,236.527c0.451,2.214-2.625,4.471-3.257,3.744         c-0.342-0.399-0.468-1.277-0.215-1.701C389.969,238.364,391.028,237.932,392.016,236.527"/>
							<path style="fill-rule:evenodd;clip-rule:evenodd;fill:#FF5000;" d="M392.016,236.527c-0.704,1.145-2.927,1.494-3.542,1.512         C387.426,234.974,390.543,237.08,392.016,236.527"/>
						</g>
						<path style="opacity:0.13;fill-rule:evenodd;clip-rule:evenodd;" d="M389.516,225.968c0.921-0.136,0.786,6.189,0.236,8.667        c-1.174,0.341-2.756,0.077-3.17-0.854C385.76,231.939,388.622,226.107,389.516,225.968"/>
						<path style="opacity:0.13;" d="M401.04,232.243c0.345,1.691-0.793,3.321-2.536,3.65c-1.743,0.33-3.431-0.771-3.768-2.459        c-0.337-1.688,0.798-3.318,2.539-3.651C399.017,229.456,400.7,230.558,401.04,232.243"/>
					</g>
				</g>
			</g>
		</g>
	</g>
</g>















</svg>
