<?xml version="1.0" encoding="UTF-8"?>
<!-- Generator: Adobe Illustrator 25.2.3, SVG Export Plug-In . SVG Version: 6.00 Build 0)  -->
<svg xmlns="http://www.w3.org/2000/svg" xmlns:xlink="http://www.w3.org/1999/xlink" version="1.1" id="Capa_1" x="0px" y="0px" viewBox="0 0 512 512" style="enable-background:new 0 0 512 512;" xml:space="preserve" width="512" height="512">
<g>
	<g>
		<g>
			<g>
				<path style="fill:#8F7ECE;" d="M510.776,239.629l0.916,3.517c1.32,5.067-1.718,10.246-6.788,11.566l-261.07,67.999      c-5.068,1.319-10.247-1.719-11.567-6.786l-0.913-3.517L510.776,239.629z"/>
				<path style="fill:#8F7ECE;" d="M184.695,133.282c-1.32-5.067,1.72-10.246,6.79-11.564l261.068-68      c5.068-1.319,10.247,1.719,11.567,6.787l46.656,179.125l-279.422,72.779L184.695,133.282z"/>
				<path style="opacity:0.75;fill:#FFFFFF;" d="M503.55,241.476L458.609,68.937c-1.252-4.804-6.161-7.687-10.966-6.435      L200.054,126.99c-4.805,1.253-7.687,6.163-6.433,10.968l44.938,172.537L503.55,241.476z"/>
			</g>
			<g>
				<g>
					<path style="fill-rule:evenodd;clip-rule:evenodd;fill:#FFFFFF;" d="M467.811,207.502c-3.743-0.688-6.244-2.99-7.103-6.55       c-1.095-4.558,1.684-9.538,5.222-11.638c1.216-0.725,2.922-0.368,3.293,1.006c0.4,1.496-1.339,2.182-2.683,3.911       c-1.562,2.014-2.865,6.801,0.705,8.546c2.075,1.012,7.14-0.993,7.921,1.681c0.35,1.188-0.681,2.274-1.767,3.482       c-2.46,2.735-4.815,6.574-5.361,10.256c-1.169,7.875,6.757,13.28,13.829,10.76c1.98-0.708,6.892-4.835,7.254-0.181       c0.163,2.097-4.841,4.689-9.029,5.286c-6.104,0.869-13.247-2.563-15.596-8.901       C461.605,217.364,464.924,213.332,467.811,207.502z"/>
					<path style="fill-rule:evenodd;clip-rule:evenodd;fill:#FFFFFF;" d="M447.035,216.924c6.814,5.596,12.45,12.807,19.689,18.836       c1.124,0.939,2.572,1.761,2.716,2.772c0.097,0.68-0.485,2.105-1.817,2.482c-2.184,0.608-5.075-2.657-6.201-3.734       c-5.316-5.074-10.685-11.222-15.778-15.346c1.138,5.55,3.799,10.69,5.276,16.333c0.544,2.09,0.674,3.774-1.197,4.152       c-1.782,0.359-2.352-1.591-3.289-4.253c-2.094-5.943-4.516-11.735-6.232-18.53c-2.207-8.768-4.524-21.157,3.14-24.103       c4.568-1.759,8.363,2.024,9.44,6.983C454.19,208.978,450.797,213.448,447.035,216.924z M444.241,199.975       c-2.529,2.429-1.446,10.021-0.4,13.89c3.75-2.753,6.946-9.446,2.359-14.174C445.566,199.695,444.497,199.73,444.241,199.975z"/>
					<path style="fill-rule:evenodd;clip-rule:evenodd;fill:#FFFFFF;" d="M433.774,244.355c1.396-2.002,0.864-6.143,0.303-10.215       c-1.003-7.237-2.969-15.181-5.413-23.398c-0.98-3.303-4.332-9.83-1.273-10.838c2.638-0.87,3.151,1.964,4.192,5.447       c1.786,5.972,3.923,13.273,5.319,19.77c1.798,8.339,4.374,20.132-0.364,23.008c-4.739,2.876-8.307-2.273-10.446-6.123       c-4.519-8.141-6.154-14.957-8.844-25.788c-0.999-4.016-4.207-11.598-1.273-12.462c2.834-0.834,4.027,6.222,4.952,9.316       C424.436,224.783,427.166,238.838,433.774,244.355z"/>
				</g>
				<g>
					<path style="fill-rule:evenodd;clip-rule:evenodd;fill:#FFFFFF;" d="M450.651,137.971c3.781,10.475,7.008,22.499,10.116,35.004       c0.788,3.165,4.074,9.685-0.158,9.978c-2.538,0.173-3.573-6.222-4.377-9.461c-2.858-11.496-6.229-23.806-9.549-34.333       c-2.387,0.392-6.625,2.58-6.921-0.917c-0.168-2.007,3.417-2.46,6.071-3.334c2.699-0.888,5.735-1.741,7.734-2.328       c2.406-0.706,5.853-1.635,6.203,1.298c0.277,2.321-2.799,2.348-3.632,2.526C453.968,136.868,452.808,137.441,450.651,137.971z"/>
					<path style="fill-rule:evenodd;clip-rule:evenodd;fill:#FFFFFF;" d="M440.73,164.976c-2.579,0.72-4.675,1.733-6.83,2.711       c0.4,3.404,0.951,7.548,1.512,10.98c0.513,3.121,2.614,9.088-0.156,9.977c-2.191,0.704-2.939-1.206-3.528-4.397       c-1.131-6.169-2.397-15.652-2.931-20.768c-0.348-3.342-0.958-9.681-1.077-13.32c-0.133-3.966-0.059-10.8,3.163-11.736       c3.987-1.162,6.36,4.172,8.009,7.741c4.71,10.184,7.519,21.268,10.788,34.434c0.79,3.171,1.886,5.956-1.297,6.203       c-2.792,0.215-3.634-7.277-4.33-10.078C442.933,172.201,441.989,169.445,440.73,164.976z M433.429,163.343       c1.93-0.895,3.911-1.762,6.064-2.523c-2.103-5.773-3.928-12.001-6.755-16.573c-0.038-0.114-0.083-0.219-0.236-0.143       C431.983,150.017,432.428,156.514,433.429,163.343z"/>
					<path style="fill-rule:evenodd;clip-rule:evenodd;fill:#FFFFFF;" d="M412.85,168.661c3.89,4.738,7.668,10.282,11.91,15.292       c1.301,1.534,3.196,4.454,0.518,5.345c-1.89,0.629-3.173-1.487-4.102-2.63c-3.35-4.105-6.587-8.167-9.58-12.425       c0.317,3.11,1.599,6.047,2.756,9.455c0.705,2.07,3.367,7.719,0.944,8.69c-2.986,1.196-4.197-5.471-5.378-8.6       c-1.363-3.594-2.87-7.54-3.807-11.225c-2.39-9.393-3.064-21.583,3.184-26.344c5.305-4.04,11.103,0.31,12.021,6.748       C422.326,160.042,418.086,165.244,412.85,168.661z M416.83,153.676c-0.556-4.296-3.513-5.619-5.773-2.824       c-2.451,3.036-2.248,10.019-1.642,14.604C413.546,163.445,417.478,158.706,416.83,153.676z"/>
				</g>
				<g>
					<path style="fill-rule:evenodd;clip-rule:evenodd;fill:#FFFFFF;" d="M446.399,95.114c-4.275-1.583-9.421-3.806-9.438-11.041       c-0.007-4.223,3.518-8.631,6.698-10.589c1.245-0.763,3.09-0.514,3.487,0.96c0.433,1.622-1.375,2.225-2.917,3.767       c-1.789,1.783-3.868,5.177-2.163,8.446c0.89,1.703,2.789,3.231,4.389,3.776c3.154,1.085,6.348-0.111,7.062,2.303       c0.511,1.744-0.928,2.484-2.636,4.101c-3.275,3.102-8.849,11.704-4.034,18.038c1.517,1.997,4.85,3.827,8.735,2.493       c1.365-0.469,2.435-1.345,3.343-2.045c1.561-1.206,4.401-3.432,5.349-0.519c0.627,1.942-1.275,3.16-2.442,4.055       c-3.256,2.504-8.167,4.267-12.416,3.086c-3.348-0.932-6.568-3.73-7.914-7.365C438.878,107.499,441.79,100.267,446.399,95.114z"/>
					<path style="fill-rule:evenodd;clip-rule:evenodd;fill:#FFFFFF;" d="M425.458,84.296c3.052,10.366,6.109,21.018,9.218,32.187       c0.883,3.173,3.371,8.516,0.272,9.26c-2.761,0.663-3.49-3.98-4.332-6.832c-3.26-11.012-6.118-22.511-9.026-33.045       c-2.503,0.389-6.854,2.614-7.592-0.344c-0.544-2.212,2.087-2.364,4.685-3.193c2.446-0.778,5.96-2.525,8.12-3.233       c2.839-0.931,6.871-1.786,7.207,1.249C434.387,83.787,428.179,82.474,425.458,84.296z"/>
					<path style="fill-rule:evenodd;clip-rule:evenodd;fill:#FFFFFF;" d="M387.024,90.402c1.294,1.244,1.415,3.239,1.855,5.015       c2.295,9.228,4.507,18.936,6.788,28.125c0.873,3.502,1.675,7.397,4.424,8.838c4.257,0.421,11.222-5.373,12.033-0.558       c0.289,1.725-1.635,2.644-4.587,3.575c-4.746,1.497-8.751,2.205-11.314,0.175c-3.918-3.102-6.102-14.359-7.516-21.252       c-1.226-6.015-2.733-11.27-4.079-18.051c-0.376-1.901-0.937-4.304-0.085-5.25C384.769,90.268,386.48,90.085,387.024,90.402z"/>
					<path style="fill-rule:evenodd;clip-rule:evenodd;fill:#FFFFFF;" d="M405.551,85.797c2.636-1.346,3.355,1.99,4.431,5.592       c3.537,11.826,6.407,23.355,9.691,35.717c0.599,2.261,0.736,3.769-0.961,4.297c-3.22,0.997-3.605-4.585-4.72-8.36       c-2.307-7.866-5.163-17.749-7.55-27.125C405.599,92.6,402.916,87.142,405.551,85.797z"/>
				</g>
			</g>
		</g>
		<g>
			<path style="fill-rule:evenodd;clip-rule:evenodd;fill:#FFFFFF;" d="M395.924,187.994c2.484,2.482,2.808,16.762-2.056,16.57     c-3.963-0.161-3.958-12.771-1.226-15.882C393.353,187.874,394.036,187.601,395.924,187.994z"/>
			<path style="fill-rule:evenodd;clip-rule:evenodd;fill:#FFFFFF;" d="M384.282,203.747c4.543-1.273,4.42,5.875,1.689,6.582     C382.299,211.288,380.269,204.867,384.282,203.747z"/>
			<path style="fill-rule:evenodd;clip-rule:evenodd;fill:#FFFFFF;" d="M394.633,210.746c4.465-0.338,4.19,10.535,0.09,10.311     c-1.727-0.094-2.139-1.284-2.607-3.441C391.424,214.425,391.512,210.98,394.633,210.746z"/>
		</g>
	</g>
	<g>
		<g>
			<path style="fill-rule:evenodd;clip-rule:evenodd;fill:#4D3D87;" d="M200.783,50.56c-29.773-1.894-58.916-0.149-88.393,0.946     c-13.212,0.488-28.008,1.977-43.14,0.943c-15.326-1.05-33.691-2.385-38.543,8.976c-1.462,3.426-1.086,11.12-1.415,16.525     c-1.069,17.701-2.172,35.728-2.475,54.788c-0.461,29.475,0.014,55.087,0.71,75.564c1.299,38.278,0.002,74.469,0,114.291     c0,13.572-0.958,28.648,1.412,36.839c1.247,4.304,5.219,10.74,9.194,12.751c4.37,2.207,12.296,2.391,19.448,2.837     c6.916,0.426,14.709-0.102,20.863-0.476c14.342-0.871,29.056-0.767,41.725-0.944c28.514-0.396,55.377-2.361,83.091-2.363     c27.506,0,55.292,0.474,83.796,0.477c12.695,0,27.27,0.401,41.37-0.477c18.066-1.123,34.332-0.269,40.313-15.111     c3.177-7.888,2.822-22.06,2.822-35.419c0-35.986,2.33-73.749,3.895-110.516c1.24-29.136,1.06-78.563,1.06-115.233     c0-8.278,1.713-31.791-1.413-37.309c-2.723-4.808-11.299-4.285-19.095-4.723c-21.473-1.212-44.825-1.418-65.763-1.418     c-15.353,0.001-29.967-1.488-44.555-0.946C231.055,51.105,216.263,51.549,200.783,50.56z"/>
			<g>
				<path style="fill-rule:evenodd;clip-rule:evenodd;fill:#EFAD1B;" d="M237.561,320.863c14.849,0.833,29.323,2.044,45.468,1.574      c-1.084,21.096-0.838,45.555-3.944,66.759c-0.909,6.205-2.397,14.84-8.411,14.981c-4.713,0.108-7.164-5.843-8.669-9.462      c-1.983-4.759-2.761-9.135-3.679-14.192c-1.715,4.241-2.747,9.003-4.467,13.932c-1.287,3.667-3.007,10.773-7.358,10.773      c-5.072,0-6.485-11.443-7.36-16.295c-3.57-19.636-2.792-46.96-1.845-67.284C237.277,321.279,237.254,320.906,237.561,320.863z"/>
				<g>
					<g>
						<path style="fill-rule:evenodd;clip-rule:evenodd;fill:#8F7ECE;" d="M195.273,312.545        c-13.159-3.956-27.324-5.449-40.909-7.557c-15.83-2.453-31.687-4.717-47.595-6.708c-16.297-1.844-32.383-3.447-47.936-8.637        c-4.614-1.538-9.182-3.171-13.767-4.767c-0.005,6.83,0.064,13.689,0.374,19.993c0.232,4.718-0.49,10.472,0.525,13.682        c0.62,1.948,2.991,3.38,4.992,4.953c2.099,1.651,3.885,3.278,5.78,4.247c9.942,5.066,25.89,3.803,40.739,3.537        c7.394-0.133,15.052-0.744,22.341-0.469c7.431,0.278,14.435,1.136,20.503,2.12c13.453,2.181,23.567,6.582,32.323,12.032        c9.09,5.655,15.352,12.191,22.604,20.994c0.002,0.361,0.719,0.775,0.527,0C195.481,347.94,195.855,330.195,195.273,312.545z"/>
						<path style="opacity:0.46;fill-rule:evenodd;clip-rule:evenodd;fill:#FFFFFF;" d="M195.273,299.876        c-13.159-3.958-27.324-5.451-40.909-7.555c-15.83-2.449-31.687-4.72-47.595-6.707c-16.297-1.846-32.383-3.447-47.936-8.642        c-4.614-1.534-9.182-3.171-13.767-4.764c-0.005,6.828,0.064,13.688,0.374,19.995c0.232,4.716-0.49,10.474,0.525,13.68        c0.62,1.951,2.991,3.379,4.992,4.955c2.099,1.651,3.885,3.277,5.78,4.244c9.942,5.068,25.89,3.803,40.739,3.537        c7.394-0.13,15.052-0.744,22.341-0.469c7.431,0.282,14.435,1.138,20.503,2.12c13.453,2.184,23.567,6.582,32.323,12.032        c9.09,5.652,15.352,12.192,22.604,20.995c0.002,0.361,0.719,0.775,0.527,0C195.481,335.274,195.855,317.529,195.273,299.876z"/>
						<path style="fill-rule:evenodd;clip-rule:evenodd;fill:#8F7ECE;" d="M195.774,343.99c0.192,0.862-0.525,0.402-0.527,0        c-7.252-9.808-13.514-17.091-22.604-23.39c-8.756-6.076-18.871-10.973-32.323-13.405c-6.069-1.097-13.072-2.054-20.503-2.368        c-7.289-0.3-14.948,0.381-22.341,0.531c-14.849,0.29-30.797,1.7-40.739-3.944c-1.895-1.078-3.681-2.891-5.78-4.732        c-2.002-1.754-4.372-3.349-4.992-5.518c-1.015-3.574-0.293-9.99-0.525-15.243c-0.646-14.705-0.265-32.104-0.265-46.257        c0-41.107,1.841-81.636,1.841-122.739c0-20.636,1.396-41.032,1.578-61.499c4.916,3.846,9.599,7.75,15.766,10.513        c5.785,2.586,12.222,4.476,20.501,5.255c14.837,1.396,31.396-2.587,48.362-1.842c15.698,0.694,29.162,3.98,39.949,11.83        c8.091,5.889,15.729,15.343,19.185,26.282c0.258,0.821,0.229,1.87,0.528,2.627c0.366,0.946,0.814,6.992,0.783,9.726        c-0.26,27.453,0.793,55.764,0.793,83.316c0,10.03,0.083,20.168,0.527,29.958c0.923,20.31-0.367,40.37,0.26,60.451        C195.874,303.512,195.479,323.593,195.774,343.99z"/>
					</g>
					<g>
						<path style="fill-rule:evenodd;clip-rule:evenodd;fill:#8F7ECE;" d="M303.395,292.842c-22.72-0.057-45.776-0.086-68.418,2.443        c-8.584,1.379-17.075,3.317-25.259,6.245c-2.359,1.18-4.654,2.476-6.875,3.897c-0.483,0.451-0.942,0.921-1.405,1.39        c0.724,21.303,0.078,42.294,0.781,62.576c1.706-0.977,2.224-3.109,3.154-4.729c3.544-6.176,8.855-12.774,15.246-15.505        c8.124-3.474,18.887-4.595,30.483-4.996c34.424-1.188,73.301,1.141,105.92,0.264c0.431-17.442,0.594-34.887,0.639-52.338        C339.592,293.064,321.495,292.884,303.395,292.842z"/>
						<path style="opacity:0.46;fill-rule:evenodd;clip-rule:evenodd;fill:#FFFFFF;" d="M303.395,281.72        c-22.72-0.052-45.776-0.082-68.418,2.445c-8.584,1.379-17.075,3.317-25.259,6.245c-2.359,1.182-4.654,2.477-6.875,3.898        c-0.483,0.452-0.942,0.919-1.405,1.384c0.724,21.304,0.078,42.298,0.781,62.581c1.706-0.977,2.224-3.107,3.154-4.73        c3.544-6.173,8.855-12.777,15.246-15.509c8.124-3.471,18.887-4.59,30.483-4.994c34.424-1.186,73.301,1.146,105.92,0.266        c0.431-17.443,0.594-34.883,0.639-52.338C339.592,281.946,321.495,281.765,303.395,281.72z"/>
						<path style="fill-rule:evenodd;clip-rule:evenodd;fill:#8F7ECE;" d="M360.703,65.663c0.059,42.706-3.151,84.252-3.151,127.47        c0,43.203,0.533,86.262-0.53,129.305c-32.619,0.881-71.496-1.447-105.92-0.26c-11.596,0.401-22.358,1.519-30.483,4.993        c-6.39,2.73-11.702,9.333-15.246,15.505c-0.93,1.623-1.448,3.756-3.154,4.732c-0.708-20.359-0.052-41.431-0.788-62.814        c-1.779-51.477-0.263-105.305-0.263-157.694c0-5.267,0-10.698,0-16.033c0-5.438-0.637-11.359,0.263-16.035        c0.854-4.441,3.878-9.938,6.308-13.402c12.511-17.842,40.37-18.051,69.653-16.82C304.063,65.734,331.701,65.85,360.703,65.663        z"/>
						<path style="opacity:0.32;fill-rule:evenodd;clip-rule:evenodd;fill:#FFFFFF;" d="M195.774,343.99        c0.192,0.862-0.525,0.402-0.527,0c-7.252-9.808-13.514-17.091-22.604-23.39c-8.756-6.076-18.871-10.973-32.323-13.405        c-6.069-1.097-13.072-2.054-20.503-2.368c-7.289-0.3-14.948,0.381-22.341,0.531c-14.849,0.29-30.797,1.7-40.739-3.944        c-1.895-1.078-3.681-2.891-5.78-4.732c-2.002-1.754-4.372-3.349-4.992-5.518c-1.015-3.574-0.293-9.99-0.525-15.243        c-0.646-14.705-0.265-32.104-0.265-46.257c0-41.107,1.841-81.636,1.841-122.739c0-20.636,1.396-41.032,1.578-61.499        c4.916,3.846,9.599,7.75,15.766,10.513c5.785,2.586,12.222,4.476,20.501,5.255c14.837,1.396,31.396-2.587,48.362-1.842        c15.698,0.694,29.162,3.98,39.949,11.83c8.091,5.889,15.729,15.343,19.185,26.282c0.258,0.821,0.229,1.87,0.528,2.627        c0.366,0.946,0.814,6.992,0.783,9.726c-0.26,27.453,0.793,55.764,0.793,83.316c0,10.03,0.083,20.168,0.527,29.958        c0.923,20.31-0.367,40.37,0.26,60.451C195.874,303.512,195.479,323.593,195.774,343.99z"/>
						<path style="opacity:0.32;fill-rule:evenodd;clip-rule:evenodd;fill:#FFFFFF;" d="M360.703,65.663        c0.059,42.706-3.151,84.252-3.151,127.47c0,43.203,0.533,86.262-0.53,129.305c-32.619,0.881-71.496-1.447-105.92-0.26        c-11.596,0.401-22.358,1.519-30.483,4.993c-6.39,2.73-11.702,9.333-15.246,15.505c-0.93,1.623-1.448,3.756-3.154,4.732        c-0.708-20.359-0.052-41.431-0.788-62.814c-1.779-51.477-0.263-105.305-0.263-157.694c0-5.267,0-10.698,0-16.033        c0-5.438-0.637-11.359,0.263-16.035c0.854-4.441,3.878-9.938,6.308-13.402c12.511-17.842,40.37-18.051,69.653-16.82        C304.063,65.734,331.701,65.85,360.703,65.663z"/>
					</g>
					<g>
						<g>
							<path style="fill-rule:evenodd;clip-rule:evenodd;fill:#FF5000;" d="M87.391,75.339c4.585-0.206,12.241-0.264,17.342,0.268         c5.361,0.562,11.091,1.107,13.077,4.313c1.786,2.879,0.854,13.499,0.854,18.318c0,13.862,0.199,25.983,0.849,39.605         c0.359,7.493,1.152,13.712,0.856,19.128c-0.211,3.849-1.341,8.463-3.977,10.506c-4.166,3.224-14.61,3.232-23.03,3.232         c-8.723,0-19.689,0.603-24.733-2.423c-8.541-5.124-7.394-20.371-7.394-36.101c0-9.169-0.215-21.262,0.286-31.522         c0.376-7.687-0.445-15.667,3.412-20.206C68.935,75.75,78.108,75.758,87.391,75.339z"/>
							<g>
								<g>
									<path style="fill-rule:evenodd;clip-rule:evenodd;fill:#FFFFFF;" d="M150.079,94.792           c7.663-0.396,17.737,0.616,25.292,3.129c2.595,0.86,5.688,2.003,5.711,4.547c0.043,4.38-7.708,3.631-11.621,3.412           c-9.613-0.536-17.886-0.771-27.336-1.137c-4.124-0.16-10.718,0.156-10.195-5.117c0.324-3.272,5.136-3.865,7.545-4.265           C143.345,94.72,146.554,94.977,150.079,94.792z"/>
									<path style="fill-rule:evenodd;clip-rule:evenodd;fill:#FFFFFF;" d="M149.17,123.333           c8.562-0.548,17.796-0.172,25.689,1.705c2.993,0.71,5.995,1.192,6.161,3.694c0.308,4.663-7.093,3.697-11.042,3.697           c-9.972,0-17.799-0.201-26.964-0.853c-3.793-0.271-10.753,0.3-11.039-2.844c-0.353-3.825,4.732-3.806,7.216-4.263           C142.74,123.816,145.745,123.549,149.17,123.333z"/>
									<path style="fill-rule:evenodd;clip-rule:evenodd;fill:#FFFFFF;" d="M145.34,150.204c9.937-0.799,21.747-0.59,31.128,1.422           c3.312,0.71,7.069,1.71,7.107,4.263c0.045,2.847-3.22,3.378-5.882,3.412c-7.751,0.102-15.199-0.852-25.245-0.852           c-3.889,0-7.973,0-12.994,0c-4.734,0-9.963,0.574-10.05-3.128C129.292,150.326,141.351,150.524,145.34,150.204z"/>
								</g>
								<g>
									<path style="fill-rule:evenodd;clip-rule:evenodd;fill:#8F7ECE;" d="M100.16,182.325           c-8.468,0.111-23.148,0.753-33.085,2.466c-3.012,0.522-7.495,0.972-7.299,3.706c0.267,3.641,9.461,2.723,13.455,2.774           c16.831,0.212,31.135-0.189,48.518-0.354c18.035-0.17,36.825,0.094,56.33-0.258c2.29-0.044,6.189,0.251,6.559-1.475           c0.584-2.718-5.879-3.332-8.011-3.639c-16.933-2.444-34.592-3.243-53.079-3.483           C115.754,181.962,107.994,182.225,100.16,182.325z"/>
									<path style="fill-rule:evenodd;clip-rule:evenodd;fill:#8F7ECE;" d="M100.276,209.734           c-6.464-0.042-21.071,0.955-30.726,2.567c-2.134,0.357-7.749,0.839-7.15,4.738c0.596,3.862,10.043,3.094,14.136,3.109           c16.888,0.062,32.981-0.972,49.228-0.892c16.992,0.087,30.736-0.012,47.865,1.151c2.281,0.157,4.931,0.633,7.488,1.139           c1.353,0.267,5.82,1.589,6.466-1.162c1.005-4.301-5.205-5.701-7.786-6.227c-10.029-2.049-22.382-2.939-32.569-3.611           c-15.506-1.023-30.48-1.772-46.363-0.846C100.674,209.713,100.473,209.734,100.276,209.734z"/>
									<path style="fill-rule:evenodd;clip-rule:evenodd;fill:#FFFFFF;" d="M110.686,240.122c-11.7-0.213-26.295,0.086-38.9,2.039           c-3.618,0.562-9.483,1.075-9.554,3.902c-0.092,4.181,9.585,2.835,13.983,2.916c16.029,0.297,32.626,0.718,48.646,0.997           c16.789,0.291,31.666,0.315,48.66,1.3c2.565,0.147,4.845,0.293,7.864,0.376c2.333,0.06,5.756,0.624,6.291-1.695           c1.072-4.642-11.662-5.596-15.582-6.189c-18.918-2.871-39.88-4.278-60.809-3.665           C111.086,240.11,110.883,240.126,110.686,240.122z"/>
									<path style="fill-rule:evenodd;clip-rule:evenodd;fill:#FFFFFF;" d="M110.275,271.232           c-11.51-0.714-25.897-1.039-38.394,0.374c-3.589,0.406-9.39,0.668-9.573,3.491c-0.274,4.172,9.315,3.24,13.642,3.509           c15.778,0.984,32.106,2.115,47.87,3.078c16.521,1.009,31.171,1.669,47.872,3.381c2.513,0.257,4.76,0.5,7.727,0.712           c2.293,0.161,5.643,0.871,6.267-1.424c1.254-4.592-11.248-6.09-15.08-6.85c-18.511-3.679-39.099-5.98-59.735-6.262           C110.672,271.237,110.471,271.242,110.275,271.232z"/>
								</g>
							</g>
						</g>
						<g>
							<path style="fill-rule:evenodd;clip-rule:evenodd;fill:#EFAD1B;" d="M234.639,83.358c8.735-0.529,19.737-1.286,23.311,3.696         c2.023,2.819,2.129,8.001,2.257,12.225c0.324,10.646,0.178,19.108-0.752,28.712c-0.506,5.22-1.289,10.221-3.509,12.793         c-3.62,4.196-11.056,4.548-18.052,4.548c-6.98,0.002-14.205,1.159-19.552-2.275c-5.936-3.81-7.621-13.817-8.025-25.3         c-0.324-9.187-0.987-24.925,3.511-29.564c1.691-1.747,5.484-2.665,9.277-3.412C227.232,83.965,230.57,83.605,234.639,83.358z         "/>
							<g>
								<path style="fill-rule:evenodd;clip-rule:evenodd;fill:#8F7ECE;" d="M301.543,82.811          c10.675-0.398,24.714,0.615,35.252,3.125c3.611,0.864,7.928,2.004,7.962,4.55c0.052,4.377-10.748,3.628-16.207,3.411          c-13.396-0.536-24.923-0.77-38.094-1.137c-5.751-0.16-14.941,0.159-14.214-5.118c0.452-3.272,7.159-3.863,10.516-4.263          C292.155,82.738,296.627,82.994,301.543,82.811z"/>
								<path style="fill-rule:evenodd;clip-rule:evenodd;fill:#FFFFFF;" d="M300.675,106.857          c11.468-0.547,23.829-0.172,34.398,1.705c4.005,0.71,8.025,1.194,8.245,3.696c0.409,4.664-9.497,3.696-14.785,3.696          c-13.351,0.001-23.827-0.199-36.102-0.852c-5.08-0.271-14.404,0.3-14.782-2.844c-0.466-3.826,6.338-3.807,9.665-4.264          C292.067,107.34,296.09,107.075,300.675,106.857z"/>
								<path style="fill-rule:evenodd;clip-rule:evenodd;fill:#FFFFFF;" d="M295.692,129.883c12.156-0.8,26.605-0.59,38.077,1.419          c4.055,0.712,8.645,1.712,8.697,4.266c0.05,2.844-3.937,3.376-7.199,3.412c-9.48,0.102-18.587-0.854-30.88-0.854          c-4.758,0-9.75,0-15.889,0c-5.797,0-12.192,0.575-12.296-3.127C276.062,130.006,290.814,130.203,295.692,129.883z"/>
								<path style="fill-rule:evenodd;clip-rule:evenodd;fill:#FFFFFF;" d="M234.462,246.722          c9.918-1.198,23.089-1.242,33.113,0.472c3.438,0.589,7.552,1.403,7.784,3.936c0.402,4.361-9.724,4.427-14.832,4.616          c-12.528,0.471-23.297,1.1-35.6,1.725c-5.378,0.272-13.921,1.276-13.666-4.035c0.163-3.296,6.367-4.39,9.464-5.041          C225.706,247.351,229.891,247.271,234.462,246.722z"/>
								<path style="fill-rule:evenodd;clip-rule:evenodd;fill:#FFFFFF;" d="M235.583,270.753          c10.642-1.402,22.197-1.956,32.203-0.877c3.79,0.408,7.573,0.588,7.98,3.065c0.757,4.618-8.555,4.395-13.486,4.792          c-12.45,1.002-22.228,1.586-33.724,1.856c-4.758,0.114-13.401,1.381-14.011-1.725c-0.738-3.777,5.602-4.268,8.671-4.975          C227.591,271.88,231.32,271.316,235.583,270.753z"/>
								<path style="fill-rule:evenodd;clip-rule:evenodd;fill:#FFFFFF;" d="M232.78,294.081          c11.271-1.707,24.755-2.584,35.612-1.441c3.835,0.407,8.2,1.062,8.446,3.601c0.277,2.832-3.395,3.66-6.433,3.94          c-8.829,0.813-17.399,0.542-28.857,1.466c-4.434,0.355-9.088,0.731-14.815,1.191c-5.399,0.434-11.314,1.487-11.709-2.195          C214.491,295.675,228.256,294.767,232.78,294.081z"/>
								<path style="fill-rule:evenodd;clip-rule:evenodd;fill:#FFFFFF;" d="M299.674,152.71c8.806-0.396,24.111-0.614,34.542,0.57          c3.161,0.357,7.85,0.557,7.81,3.411c-0.054,3.802-9.674,3.403-13.817,3.693c-17.484,1.238-32.38,1.682-50.463,2.561          c-18.755,0.911-38.276,2.319-58.571,3.127c-2.382,0.096-6.416,0.635-6.906-1.138c-0.771-2.788,5.913-3.815,8.106-4.264          c17.456-3.563,35.768-5.457,54.97-6.822C283.441,153.272,291.526,153.078,299.674,152.71z"/>
								<path style="fill-rule:evenodd;clip-rule:evenodd;fill:#FFFFFF;" d="M299.416,177.919c6.719-0.433,21.965-0.28,32.099,0.816          c2.238,0.243,8.098,0.403,7.713,4.492c-0.383,4.053-10.249,3.823-14.501,4.086c-17.553,1.081-34.346,0.976-51.234,2.041          c-17.652,1.115-31.952,1.843-49.687,4.086c-2.362,0.3-5.092,0.953-7.715,1.632c-1.389,0.361-5.953,2.004-6.788-0.816          c-1.308-4.409,5.061-6.24,7.713-6.943c10.303-2.737,23.087-4.405,33.636-5.718c16.062-1.998,31.585-3.68,48.149-3.676          C299.004,177.919,299.213,177.931,299.416,177.919z"/>
								<path style="fill-rule:evenodd;clip-rule:evenodd;fill:#FFFFFF;" d="M292.131,208.713          c12.163-0.576,27.369-0.707,40.552,0.944c3.781,0.474,9.904,0.832,10.058,3.774c0.225,4.348-9.892,3.239-14.463,3.458          c-16.68,0.794-33.941,1.739-50.605,2.513c-17.467,0.814-32.95,1.288-50.609,2.831c-2.664,0.232-5.037,0.451-8.17,0.628          c-2.43,0.136-5.971,0.826-6.606-1.572c-1.256-4.798,11.969-6.177,16.034-6.914c19.604-3.564,41.378-5.663,63.182-5.661          C291.708,208.713,291.923,208.725,292.131,208.713z"/>
							</g>
							<path style="fill-rule:evenodd;clip-rule:evenodd;fill:#EFAD1B;" d="M289.403,246.216c5.962-5.96,20.077-5.843,31.997-5.868         c7.006-0.014,14.943,0.453,17.572,4.628c1.893,3.02,1.675,9.811,1.923,14.38c0.312,5.808,0.584,10.022,0.816,14.772         c0.452,9.264,1.207,20.151-4.218,24.953c-5.962,5.283-16.94,3.629-27.629,3.743c-6.93,0.073-13.457,0.158-17.096-2.673         c-7.23-5.626-6.23-22.318-6.002-33.414C286.914,259.37,286.886,252.236,289.403,246.216z"/>
						</g>
					</g>
				</g>
			</g>
		</g>
		<path style="fill-rule:evenodd;clip-rule:evenodd;fill:#FFFFFF;" d="M98.071,132.005c-3.956,0.297-8.517-0.192-12.88-0.266    c-2.51,4.546-4.294,10.339-6.83,15.245c-0.753,1.45-1.656,3.627-3.944,3.155c-1.741-2.827-0.047-6.111,0.79-8.674    c4.301-13.165,9.414-26.322,14.714-39.685c2.02-5.081,4.829-13.419,9.199-14.195c6.779-1.202,7.988,8.095,8.411,14.72    c0.755,11.785,0.473,22.188-0.523,34.169c-0.421,5.09-0.873,12.924-4.467,13.14C96.995,149.946,98.152,137.865,98.071,132.005z     M87.557,124.646c3.523-0.335,6.745-0.968,10.779-0.79c0.135-8.278,1.057-17.164,0.263-25.495c-0.014-0.16-0.04-0.307-0.263-0.263    C94.48,106.688,91.032,115.676,87.557,124.646z"/>
	</g>
	<g>
		<g>
			<g>
				<g>
					<path style="fill-rule:evenodd;clip-rule:evenodd;fill:#FF5000;" d="M397.003,444.021c-3.137,3.575-5.084,14.19-8.543,15.606       c-1.592,0.648-6.521,1.037-6.255,3.406c0.175,1.519,2.955,1.629,5.129,1.706c3.464,0.127,7.718,0.338,9.906-0.971       c3.045-1.822,3.594-4.886,5.804-7.204c0.109,2.811,0.622,5.2,0.679,8.063c1.427-0.04,2.853-0.077,4.273-0.121       c0.197-4.494,1.668-14.485-0.968-20.16L397.003,444.021z"/>
					<path style="fill-rule:evenodd;clip-rule:evenodd;fill:#FCD2C0;" d="M391.931,425.718c1.637,5.966,3.319,12.147,4.893,19.266       c-2.21,9.022,0.44,11.376,10.204-0.639c0.599-7.744,1.017-14.982,1.067-21.854       C402.722,423.619,397.332,424.692,391.931,425.718z"/>
				</g>
			</g>
			<g>
				<g>
					<path style="fill-rule:evenodd;clip-rule:evenodd;fill:#FF5000;" d="M458.335,439.199c-1.848,4.383-0.369,15.068-3.203,17.499       c-1.309,1.118-5.872,3.036-4.869,5.199c0.639,1.387,3.317,0.618,5.399,0.009c3.336-0.969,7.434-2.103,9.104-4.034       c2.316-2.686,1.876-5.769,3.249-8.662c0.984,2.633,2.217,4.74,3.177,7.441c1.341-0.488,2.68-0.969,4.02-1.459       c-1.235-4.325-2.969-14.275-7.257-18.834L458.335,439.199z"/>
					<path style="fill-rule:evenodd;clip-rule:evenodd;fill:#FCD2C0;" d="M441.833,414.384c5.274,8.209,10.715,15.841,16.635,25.788       c0.738,9.26,3.994,10.665,9.487-3.812c-2.489-10.052-4.978-19.172-8.042-27.475       C453.925,410.866,447.894,412.701,441.833,414.384z"/>
				</g>
			</g>
			<g>
				<path style="fill-rule:evenodd;clip-rule:evenodd;fill:#4D3D87;" d="M444.468,287.828c8.887,10.383,15.352,19.643,17.278,35.359      c1.517,12.381-2.191,23.96-5.614,33.747c-2.091,5.964-5.432,12.842-4.408,21.464c0.565,4.733,3.104,9.821,4.983,14.032      c5.983,13.4,7.635,19.331,11.922,34.255l-21.078,7.898c-0.819-0.476-1.207-1.564-1.625-2.339      c-3.033-5.636-6.13-11.765-9.201-17.794c-3.487-6.856-6.963-13.733-9.643-21.227c-1.46-4.085-2.872-8.081-2.754-12.621      c0.118-4.436,1.133-9.088,1.855-14.16c1.339-9.369,2.47-19.069,4.266-27.915c-1.876,2.389-3.748,4.916-5.595,7.568      c-3.752,5.388-7.161,9.991-11.581,15.505c-3.301,4.113-6.05,6.346-5.825,13.821c0.14,4.742,1.091,9.64,1.545,14.665      c1.287,14.201,2.728,30.077,3.073,44.694c-5.418,0.008-18.043,0.814-23.278,1.02c-0.937-0.903-10.469-56.857-10.668-62.418      c-0.092-2.61,0.234-5.968,0.873-8.124c1.344-4.556,3.982-9.425,6.398-13.988c6-11.332,12.71-20.348,19.379-31.339      c1.457-2.4,3.005-4.829,3.104-6.906c0.178-3.687-2.919-7.378-3.393-10.746C416.815,296.519,431.136,291.853,444.468,287.828z"/>
				<g>
					<g>
						<path style="opacity:0.23;" d="M456.707,392.43c-1.878-4.211-4.417-9.299-4.983-14.032c-1.024-8.621,2.316-15.5,4.408-21.464        c3.423-9.788,7.131-21.366,5.614-33.747c-0.783-6.387-2.326-11.697-4.467-16.463c0.523,2.288,0.814,5.043,0.814,7.6        c0.005,10.874-2.917,20.034-5.035,28.268c-2.87,11.154-8.834,21.723-7.8,36.325c0.447,6.317,2.657,11.414,4.895,16.304        c5.297,11.587,10.249,21.7,16.192,32.322l2.283-0.858C464.342,411.761,462.691,405.83,456.707,392.43z"/>
						<path style="opacity:0.23;" d="M432.326,328.731c0.165-1.595,0.312-3.264,0.398-5.677c0.092-2.352,0.464-4.751-1.148-4.786        c-3.206,3.383-5.593,8.652-8.259,12.974c-5.016,8.133-10.498,16.159-15.88,24.072c-2.7,3.964-5.936,8.452-6.577,13.603        c-0.764,6.13,0.471,9.096,1.387,13.708c1.675,8.431,3.703,16.099,5.754,23.741c1.211,4.508,2.34,9.049,3.4,13.617        c-0.625-10.127-1.547-20.384-2.408-29.896c-0.454-5.025-1.405-9.923-1.545-14.665c-0.225-7.474,2.524-9.707,5.825-13.821        c4.419-5.514,7.829-10.117,11.581-15.505c1.848-2.652,3.719-5.179,5.595-7.568c-0.125,0.617-0.239,1.249-0.362,1.879        c0.289-0.43,0.556-0.86,0.719-1.299C431.818,336.374,431.891,333.005,432.326,328.731z"/>
						<path style="fill:#EFAD1B;" d="M448.805,293.101c-14.399,4.651-28.67,9.431-42.061,15.17c0.665,1.566,1.202,3.161,1.129,4.752        c-0.002,0.068-0.019,0.138-0.024,0.206c14.964-4.95,29.24-10.641,44.496-15.28        C451.237,296.309,450.057,294.703,448.805,293.101z"/>
					</g>
					<path style="fill:#FFFFFF;" d="M428.368,308.772l-6.225,2.302c-1.805,0.663-3.821-0.264-4.488-2.071l-1.351-3.659       c-0.665-1.808,0.263-3.82,2.068-4.488l6.229-2.297c1.805-0.665,3.821,0.261,4.483,2.069l1.351,3.658       C431.099,306.094,430.176,308.107,428.368,308.772z M419.297,303.356c-0.431,0.161-0.651,0.637-0.488,1.061l1.344,3.664       c0.163,0.422,0.639,0.645,1.065,0.488l6.225-2.3c0.424-0.161,0.646-0.632,0.487-1.06l-1.351-3.66       c-0.154-0.427-0.632-0.647-1.06-0.491L419.297,303.356z"/>
					<g>
						<g>
							<path style="fill-rule:evenodd;clip-rule:evenodd;fill:#FFFFFF;" d="M456.7,321.845c1.503,0.852,1.76-3.623,0.187-2.957         C456.071,319.23,456.355,321.079,456.7,321.845z"/>
							<path style="fill-rule:evenodd;clip-rule:evenodd;fill:#FFFFFF;" d="M458.207,324.459c-0.121-0.348-0.549-0.992-1.226-0.7         c-0.887,0.38-1.126,2.297-1.367,3.038c-0.291,0.902-1.242,2.472-0.525,3.26c1.034,1.124,2.075-1.43,2.394-2.326         c0.175-0.473,0.293-0.956,0.424-1.366C458.12,325.666,458.437,325.126,458.207,324.459z"/>
						</g>
						<g>
							<path style="fill-rule:evenodd;clip-rule:evenodd;fill:#FFFFFF;" d="M386.312,357.909c0.237,1.055-0.353,2.787-1.032,4.449         c-0.291,0.71-0.781,1.856-1.443,1.668c-0.799-0.225-0.449-1.612-0.324-2.109c0.397-1.571,1.197-3.387,1.911-4.228         C385.654,357.583,386.094,357.706,386.312,357.909z"/>
							<path style="fill-rule:evenodd;clip-rule:evenodd;fill:#FFFFFF;" d="M386.932,362.915c1.739,0.147,0.785,3.842-0.57,3.328         c-0.584-0.225-0.792-2.186-0.274-2.971C386.279,362.988,386.629,362.892,386.932,362.915z"/>
							<path style="fill-rule:evenodd;clip-rule:evenodd;fill:#FFFFFF;" d="M382.964,371.987c0.622-0.013,0.987,0.809,1.022,1.705         c0.031,0.722-0.239,2.114-1.039,1.887c-0.353-0.099-0.734-0.721-0.781-1.465         C382.105,373.241,382.167,372.005,382.964,371.987z"/>
						</g>
						<g>
							<path style="fill-rule:evenodd;clip-rule:evenodd;fill:#FFFFFF;" d="M430.642,377.5c0.234,1.056-0.35,2.786-1.032,4.45         c-0.289,0.711-0.778,1.856-1.446,1.667c-0.8-0.225-0.449-1.612-0.322-2.109c0.402-1.571,1.207-3.387,1.914-4.227         C429.989,377.176,430.427,377.296,430.642,377.5z"/>
							<path style="fill-rule:evenodd;clip-rule:evenodd;fill:#FFFFFF;" d="M431.264,382.508c1.737,0.144,0.785,3.84-0.568,3.325         c-0.589-0.225-0.795-2.184-0.277-2.971C430.606,382.581,430.959,382.483,431.264,382.508z"/>
						</g>
					</g>
				</g>
			</g>
		</g>
		<g>
			<g>
				<path style="fill-rule:evenodd;clip-rule:evenodd;fill:#FF5000;" d="M393.693,222.281c-3,0.53-7.083-0.221-10.152,0.249      c2.267,10.145-6.731,12.862-7.614,22.476c-0.575,6.25,2.546,10.205,1.933,16.228c-0.932,9.249-8.337,13.716-11.316,21.941      c-2.524,6.985,0.336,13.59,5.181,16.948c3.182,2.207,8.804,3.458,13.479,2.015c5.205-1.603,11.468-8.926,10.072-17.641      c-0.364-2.254-1.193-4.69-2.054-6.997c-0.845-2.268-2.155-4.36-1.834-6.979c0.312-2.554,2.082-3.995,3.572-5.87      c3.286-4.099,8.155-11.048,5.998-18.858c-1.308-4.735-5.51-8.405-6.563-13.546c-0.61-2.96,0.017-6.111-0.085-9.47      C394.171,222.555,393.937,222.41,393.693,222.281z"/>
				<g>
					<path style="fill-rule:evenodd;clip-rule:evenodd;fill:#FCD2C0;" d="M374.979,273.187c-2.267,4.964-3.906,9.911-7.822,13.221       c-2.368,1.994-5.309,3.41-8.063,5.044c-1.945,1.155-5.264,3.079-8.846,5.114c-0.137,1.254-0.244,2.511-0.225,3.793       c0.033,3.015,0.364,6.021,0.615,9.031c6.246-1.985,12.239-4.347,17.638-6.952c3.121-1.5,6.386-3.043,8.704-5.198       c2.439-2.274,3.847-5.477,5.532-8.436c1.698-2.986,3.669-5.857,5.058-9.084C383.378,277.536,379.219,275.32,374.979,273.187z"/>
					<path style="fill-rule:evenodd;clip-rule:evenodd;fill:#889922;" d="M388.824,282.296c-5.361-2.35-10.32-5.111-15.949-7.209       c3.379-7.992,6.095-21.131,12.44-26.31c1.394-1.14,4.254-2.759,6.745-1.694c4.658,1.986,4.292,12.361,3.021,18.293       C393.674,271.946,391.124,277.047,388.824,282.296z"/>
					<path style="opacity:0.13;fill-rule:evenodd;clip-rule:evenodd;" d="M388.824,282.296c-5.361-2.35-10.32-5.111-15.949-7.209       c3.379-7.992,6.095-21.131,12.44-26.31c1.394-1.14,4.254-2.759,6.745-1.694c4.658,1.986,4.292,12.361,3.021,18.293       C393.674,271.946,391.124,277.047,388.824,282.296z"/>
					<polygon style="opacity:0.13;fill-rule:evenodd;clip-rule:evenodd;" points="373.938,275.479 384.769,285.005 387.059,281.502             "/>
				</g>
			</g>
			<g>
				<g>
					<path style="fill-rule:evenodd;clip-rule:evenodd;fill:#4D3D87;" d="M346.193,281.198c-3.717,2.307-6.168,5.652-9.797,8.028       c-5.326-7.87-11.437-14.782-16.689-22.738c3.334-1.842,5.042-5.014,8.65-6.632C334.19,267.106,340.559,273.701,346.193,281.198       z"/>
					<g>
						<path style="fill:#4D3D87;" d="M325.614,151.021c-11.572-10.855-30.225-19.172-52.514-15.025        c-5.139,0.958-10.289,2.396-14.972,4.371c-12.882,5.435-23.179,14.501-30.05,23.833        c-9.979,13.547-15.991,30.222-13.275,53.937c2.539,22.228,11.707,37.829,24.44,49.248        c12.267,10.996,28.893,19.743,51.083,16.77c20.127-2.696,34.216-14.328,43.339-28.996        c9.187-14.767,15.88-30.753,14.673-52.796C347.068,179.078,337.304,161.991,325.614,151.021z M325.571,247.938        c-7.259,11.029-19.649,21.59-34.188,24.238c-24.726,4.504-42.632-7.895-53.643-23.254        c-5.198-7.251-10.481-17.725-12.232-29.596c-1.637-11.068-0.79-23.724,2.387-34.253c3.807-12.602,13.287-26.234,25.869-33.685        c4.481-2.656,8.995-4.717,15.445-6.02c21.475-4.344,37.864,4.656,48.795,16.352c8.536,9.129,16.221,23.463,17.974,42.186        C337.573,220.97,333.107,236.499,325.571,247.938z"/>
						<path style="opacity:0.2;fill:#4D3D87;" d="M269.21,145.368c-6.45,1.303-10.964,3.364-15.445,6.02        c-12.582,7.45-22.062,21.083-25.869,33.685c-3.177,10.528-4.024,23.185-2.387,34.253c1.751,11.871,7.034,22.345,12.232,29.596        c11.011,15.359,28.917,27.758,53.643,23.254c14.539-2.648,26.929-13.209,34.188-24.238        c7.536-11.439,12.002-26.968,10.408-44.032c-1.753-18.723-9.438-33.057-17.974-42.186        C307.075,150.024,290.686,141.024,269.21,145.368z"/>
						<g>
							<path style="fill-rule:evenodd;clip-rule:evenodd;fill:#FFFFFF;" d="M286.47,154.198c4.211-2.091,11.252,1.79,15.913,5.167         c1.382,0.996,4.356,3.007,5.619,4.899c1.732,2.579,2.401,6.351,0.09,7.371c-3.144,1.386-6.163-2.432-8.134-4.329         c-2.127-2.056-4.706-4.654-6.696-6.077C290.65,159.36,285.341,158.379,286.47,154.198z"/>
							<path style="fill-rule:evenodd;clip-rule:evenodd;fill:#FFFFFF;" d="M312.535,177.615c3.88-6.834,9.655,6.156,8.882,11.956         c-0.218,1.604-1.441,3.064-2.577,3.143c-2.458,0.174-2.508-2.802-3.393-5.119         C314.331,184.686,312.419,181.384,312.535,177.615z"/>
							<path style="fill-rule:evenodd;clip-rule:evenodd;fill:#FFFFFF;" d="M235.335,191.989c2.702,2.609,2.636,7.344,3.419,11.857         c1.557,9.033,3.617,15.145,6.234,24.092c0.525,1.797,3.771,10.192,1.128,11.442c-2.437,1.149-6.941-4.992-8.441-7.508         c-3.726-6.239-6.62-16.085-7.093-26.256C230.319,199.883,230.085,192.121,235.335,191.989z"/>
							<path style="fill-rule:evenodd;clip-rule:evenodd;fill:#FFFFFF;" d="M305.811,252.407c-1.606-2.535,0.561-5.297,2.141-7.592         c2.953-4.3,5.423-8.696,7.926-13.941c1.462-3.074,2.934-6.105,4.673-7.844c4.365-0.839,1.533,6.658,0.882,8.9         c-1.947,6.752-3.837,11.839-7.992,16.514C311.449,250.692,308.794,253.221,305.811,252.407z"/>
							<path style="fill-rule:evenodd;clip-rule:evenodd;fill:#FFFFFF;" d="M261.604,256.46c-2.955,1.415-5.2-1.755-6.762-3.503         c-1.611-1.805-4.147-4.287-3.584-7.028c-0.064-1.011,0.707-0.987,1.181-1.079         C256.508,244.052,261.436,252.599,261.604,256.46z"/>
						</g>
					</g>
				</g>
				<g>
					<path style="fill-rule:evenodd;clip-rule:evenodd;fill:#FF5000;" d="M345.873,278.02c5.425-1.495,9.523,3.556,12.577,7.099       c9.84,11.406,16.405,20.733,26.659,32.664c6.662,7.754,12.014,14.828,17.896,21.975c1.675,2.037,5.716,6.485,8.787,11.005       c2.751,4.043,6.653,9.47,6.499,13.796c-0.133,3.941-4.062,7.324-7.031,10.002c-2.905,2.626-7.207,6.465-10.874,6.854       c-4.886,0.517-8.867-3.058-12.516-6.463c-9.923-9.276-19.124-21.357-26.941-32.317c-10.022-14.044-18.738-26.843-26.482-43.908       c-1.095-2.405-2.754-5.004-2.664-7.441C331.929,287.317,341.785,279.146,345.873,278.02z"/>
					<g>
						<path style="fill-rule:evenodd;clip-rule:evenodd;fill:#FFFFFF;" d="M355.862,321.127c-1.604,1.642-3.717-1.978-4.827-3.371        c-3.518-4.438-6.963-9.818-9.866-15.391c-2.205-5.809,1.233-6.597,3.563-2.92c2.252,3.276,4.268,7.062,6.504,10.591        C353.269,313.245,359.004,317.926,355.862,321.127z"/>
						<path style="fill-rule:evenodd;clip-rule:evenodd;fill:#FFFFFF;" d="M395.404,370.487c-2.659,0.607-4.644-1.629-6.417-3.215        c-8.624-7.706-15.814-16.28-23.17-26.591c-2.29-3.209-8.319-10.832-6.407-12.843c2.217-2.328,4.801,1.552,6.8,3.82        c7.867,8.939,26.399,30.435,27.892,32.22C395.517,365.56,397.732,368.129,395.404,370.487z"/>
					</g>
					<path style="opacity:0.36;" d="M418.292,364.558c0.005-0.137-0.002-0.28-0.007-0.421c-0.904-0.186-1.827-0.023-2.565,0.355       c-3.045,1.572-6.227,4.866-9.156,7.967c-2.503,2.641-5.371,5.714-5.939,8.916c3.613-0.522,7.793-4.246,10.635-6.815       C414.23,371.882,418.159,368.499,418.292,364.558z"/>
				</g>
			</g>
			<path style="fill-rule:evenodd;clip-rule:evenodd;fill:#889922;" d="M445.957,288.263c-14.184,4.821-27.324,10.308-41.744,14.876     c-1.725-5.173-3.367-10.06-5.839-14.84c-0.745-1.448-1.408-3.198-2.38-4.408c-1.304-1.61-3.353-2.594-5.165-3.522     c-2.979-1.525-6.267-2.708-6.618-6.725c-0.203-2.313,0.786-5.423,0.712-8.599c-0.126-5.336-2.43-9.726-0.457-14.142     c1.886-4.211,6.672-7.081,11.328-9.184c7.102-3.214,17.517-7.007,25.779-2.38c9.168,5.133,11.749,16.564,15.459,27.447     C439.796,274.9,442.886,282.003,445.957,288.263z"/>
			<g>
				<g>
					<g>
						<g>
							<path style="fill-rule:evenodd;clip-rule:evenodd;fill:#FCD2C0;" d="M401.009,271.633         c-3.158,5.884-5.56,11.794-10.597,15.522c-3.052,2.25-6.75,3.747-10.24,5.522c-7.154,3.64-28.89,14.238-31.057,14.452         c-0.135-0.002-0.275-0.006-0.398-0.011c-1.367-0.051-2.811-0.109-4.131-0.174c-1.252-0.064-5.352-0.3-5.626,1.292         c-0.229,1.309,3.769,1.065,4.739,1.44c-1.699,0.579-4.289,1.946-6.542,3.945c-0.592,0.525-1.888,1.561-1.536,2.174         c0.49,0.835,1.547,0.047,2.103-0.22c0.771-0.364,1.384-0.561,1.988-0.997c-0.686,0.867-2.657,2.329-3.312,3.459         c-0.218,0.37-0.343,0.899-0.095,1.16c0.561,0.596,1.509-0.305,2.243-0.777c0.989-0.635,1.678-0.986,2.352-1.434         c0.021-0.024,0.064-0.057,0.078-0.079c-0.014,0.02-0.04,0.045-0.054,0.064c-0.01,0.004-0.019,0.007-0.024,0.015         c-0.618,0.653-2.626,2.246-3.303,3.324c-0.265,0.431-0.461,1.018-0.135,1.344c0.677,0.674,2.248-0.807,2.875-1.246         c1.069-0.763,1.859-1.228,2.756-1.905c-0.506,0.774-2.605,2.391-3.535,3.718c-0.386,0.555-0.729,1.263-0.298,1.657         c0.549,0.503,1.98-0.564,2.477-0.911c2.368-1.656,5.03-3.484,7.178-4.421c1.001-0.432,1.971-0.784,2.948-1.069         c1.429-0.016,11.815-2.466,11.815-2.466c9.464-2.062,18.655-4.886,26.829-8.193c3.923-1.591,8.035-3.211,11.04-5.66         c3.163-2.58,5.132-6.382,7.42-9.862c2.311-3.505,4.947-6.862,6.899-10.687C410.922,277.613,406.02,274.574,401.009,271.633z"/>
							<g>
								<path style="fill-rule:evenodd;clip-rule:evenodd;fill:#FFFFFF;" d="M396.178,299.382c1.01-0.881,2.013-1.704,2.884-1.128          C400.086,299.94,395.986,301.678,396.178,299.382z"/>
								<path style="fill-rule:evenodd;clip-rule:evenodd;fill:#FFFFFF;" d="M397.01,294.865c0.66-0.952,2.018-2.298,2.886-1.125          C400.346,295.086,397.377,297.087,397.01,294.865z"/>
								<path style="fill-rule:evenodd;clip-rule:evenodd;fill:#FFFFFF;" d="M404.42,289.982c1.339,0.888,0.211,2.604-0.203,3.738          c-0.473,1.278-1.015,2.906-2.165,3.84c-0.27-0.207-1.277-0.089-1.053-0.659c-0.378-1.284,0.762-2.442,1.309-3.634          C402.816,292.165,402.984,290.399,404.42,289.982z"/>
							</g>
						</g>
						<path style="opacity:0.13;fill-rule:evenodd;clip-rule:evenodd;" d="M417.196,283.855        c-6.369-3.298-12.201-7.055-18.901-10.066c4.758-9.491,9.118-25.315,17.276-31.136c1.791-1.281,5.408-3.031,8.366-1.534        c5.529,2.797,4.263,15.433,2.241,22.576C423.937,271.602,420.414,277.629,417.196,283.855z"/>
					</g>
					<g>
						<path style="fill-rule:evenodd;clip-rule:evenodd;fill:#FFFFFF;" d="M425.806,264.235c-2.108,1.145-2.085-4.751-0.298-4.844        c2.099-0.11,1.313,3.69,0.49,4.721C425.948,264.175,425.882,264.197,425.806,264.235z"/>
						<path style="fill-rule:evenodd;clip-rule:evenodd;fill:#FFFFFF;" d="M426.866,257.203c-1.826,0.685-2.082-4.28-0.09-3.999        C428.29,253.418,428.125,256.733,426.866,257.203z"/>
					</g>
				</g>
				<g>
					<g>
						<g>
							<path style="fill-rule:evenodd;clip-rule:evenodd;fill:#FCD2C0;" d="M389.766,234.898l1.117,10.293         c2.444,1.209,7.422,7.085,7.422,7.085s6.225-6.092,6.721-7.233c0.362-0.821-1.282-17.003-1.282-17.003         c0.705,0.174,8.456-12.45-3.501-19.053c-4.848-2.676-12.154-0.78-15.334,4.314c-0.797,1.279-1.512,3.298-1.817,4.843         c-0.452,2.301-0.412,5.636,0.147,8.324C383.931,229.828,385.678,233.515,389.766,234.898"/>
							<g>
								<g>
									<g>
										<path style="fill-rule:evenodd;clip-rule:evenodd;fill:#FFFFFF;" d="M396.083,220.836            c-2.565-2.899-5.106-0.772-5.106-0.772s0.63,1.057,2.411,1.416C394.706,221.744,396.083,220.836,396.083,220.836"/>
										<path style="fill-rule:evenodd;clip-rule:evenodd;fill:#4D3D87;" d="M390.977,220.064c0,0,1.226-1.042,2.872-0.672            c0.04,0.133,0.149,0.391,0.151,0.536c0.009,0.65-0.469,1.211-1.145,1.413            C391.479,220.907,390.977,220.064,390.977,220.064"/>
									</g>
									<path style="fill:#FF5000;" d="M390.89,218.326c0.984-0.47,3.759-0.871,5.628,0.991l0.611-0.607           c-2.023-2.014-5.082-1.892-6.608-1.163L390.89,218.326z"/>
								</g>
								<g>
									<g>
										<path style="fill-rule:evenodd;clip-rule:evenodd;fill:#FFFFFF;" d="M386.856,220.033c-2.38-2.694-4.746-0.72-4.746-0.72            s0.594,0.982,2.245,1.31C385.585,220.87,386.856,220.033,386.856,220.033"/>
										<path style="fill-rule:evenodd;clip-rule:evenodd;fill:#4D3D87;" d="M382.11,219.313c0,0,1.147-0.969,2.671-0.625            c0.04,0.122,0.137,0.361,0.142,0.497c0.005,0.604-0.44,1.12-1.062,1.313C382.588,220.094,382.11,219.313,382.11,219.313"/>
									</g>
									<path style="fill:#FF5000;" d="M382.053,217.723c0.901-0.432,3.461-0.797,5.186,0.922l0.611-0.609           c-1.886-1.881-4.741-1.769-6.168-1.087L382.053,217.723z"/>
								</g>
								<g>
									<path style="opacity:0.13;fill-rule:evenodd;clip-rule:evenodd;" d="M388.297,219.256c-0.44-0.092-1.659,4.029-1.559,4.46           c0.137,0.551,2.051,0.844,2.193,0.626C389.352,223.715,388.976,219.397,388.297,219.256"/>
									<path style="opacity:0.13;" d="M386.934,228.551c2.394,0.585,4.308-1.171,5.082-3.056l-0.797-0.328           c-0.634,1.556-2.184,3.013-4.081,2.553L386.934,228.551z"/>
									<path style="opacity:0.13;fill-rule:evenodd;clip-rule:evenodd;" d="M397.751,231.093           c-1.997,2.842-4.876,4.338-7.985,3.806l0.497,4.325C393.291,239.169,397.706,237.002,397.751,231.093"/>
									<path style="opacity:0.13;" d="M394.027,223.43c-0.67,1.02-0.39,2.389,0.632,3.061c1.015,0.673,2.385,0.387,3.059-0.628           c0.67-1.026,0.391-2.394-0.632-3.068C396.069,222.124,394.701,222.408,394.027,223.43"/>
									<path style="opacity:0.13;" d="M384.831,225.489c-0.376,0.568-0.97,0.901-1.599,0.97c-0.279-1.364-0.423-2.9-0.442-4.377           c0.485-0.045,0.977,0.06,1.413,0.347C385.214,223.099,385.5,224.47,384.831,225.489"/>
								</g>
							</g>
						</g>
						<path style="fill-rule:evenodd;clip-rule:evenodd;fill:#FFFFFF;" d="M398.304,252.276c-2.531,2.259-3.435,4.564-7.848,4.996        c-1.767-2.276-2.47-8.39-2.993-12.397c-0.175-1.331,1.519-4.37,2.891-4.507C393.22,243.388,398.304,252.276,398.304,252.276z"/>
						<path style="fill-rule:evenodd;clip-rule:evenodd;fill:#FFFFFF;" d="M398.304,252.276c3.367,1.147,7.708,2.478,12.142,1.098        c0.776-2.917-1.029-9.108-2.167-13.189c-0.376-1.357-2.316-3.75-3.705-3.319C403.043,240.95,400.02,248.308,398.304,252.276z"/>
					</g>
					<path style="fill-rule:evenodd;clip-rule:evenodd;fill:#FF5000;" d="M429.265,238.498c-6.691-6.999-11.813-6.835-12.911-13.125       c0.038-1.106,0.149-2.245,0.199-3.311c0.078-1.624,0.114-3.317,0.029-4.991c0-0.007,0.005-0.013,0.005-0.02l-0.005,0.004       c-0.227-4.394-1.339-8.652-5.058-11.165c-5.428-3.657-10.767-1.808-10.767-1.808s-1.786-1.134-3.142-1.437       c-6.629-1.468-14.91,2.156-13.675,12.814c1.363-0.104,4.048-2.355,7.304-6.526c0.227,5.709,7.867,10.881,11.491,12.199       c-1.348,1.441-2.101,2.949-2.513,4.513c-1.204,3.592-0.74,7.151,0.003,10.112c0.239,1.573,0.767,3.041,1.306,4.482       c0.317,1.143,0.473,2.007,0.232,2.492c-3.821,7.488,0.087,8.373-0.265,12.351c-0.511,5.729-5.472,7.771-7.774,12.177       c-4.365,8.33-1.509,18.041,5.276,21.597c4.386,2.297,9.007,2.257,12.646,1.012c3.968-1.372,8.87-5.143,10.748-11.459       c0.509-1.688,0.729-4.173,0.733-5.793c0.014-1.294-3.57-9.751,4.046-13.286C432.871,256.682,434.629,244.097,429.265,238.498z"/>
				</g>
			</g>
		</g>
	</g>
	<g>
		<g>
			<g>
				<path style="fill-rule:evenodd;clip-rule:evenodd;fill:#889922;" d="M26.488,346.099c13.344,1.36,29.586,0.777,43.424-1.924      c1.907-0.374,3.982-1.05,5.737-1.14c1.304-0.066,2.882,0.394,4.467,0.623c15.773,2.293,31.457,4.931,45.12,9.886      c4.999,1.813,10.046,4.079,13.157,7.24c2.875,2.918,5.714,8.618,3.634,13.515c-1.502,3.554-5.681,6.557-9.525,8.569      c-4.178,2.193-8.657,3.906-12.776,5.574c-8.95,3.625-17.352,7.021-26.368,10.437c-0.743-0.464-1.022-1.321-1.509-2.042      c-3.168-4.69-6.54-10.024-8.832-15.927c0.968-1.281,2.544-1.96,3.937-2.856c1.351-0.864,2.801-1.675,4.112-2.562      c-12.289-1.685-24.48-3.484-35.293-6.86c-0.83,0.559-1.171,1.582-1.677,2.404c-3.48,5.629-7.341,11.603-10.935,17.374      c-4.14,6.648-8.196,13.371-12.611,19.772c9.376,5.06,17.082,12.031,24.49,19.336c-5.025,8.115-10.895,15.494-17.657,22.091      c-7.72-5.834-15.509-11.56-22.604-18.539c-6.613-6.496-14.011-14.629-13.013-28.338c0.873-11.98,4.978-21.495,9.461-30.572      c4.453-9.015,9.386-17.583,14.825-25.727C26.152,346.284,26.313,346.184,26.488,346.099z"/>
				<g>
					<path style="opacity:0.21;" d="M84.491,374.571c2.181,0.316,4.377,0.623,6.575,0.923c-0.106,0.072-0.22,0.141-0.324,0.213       c9.45-3.625,18.126-7.921,27.672-11.456C105.521,366.3,94.629,370.105,84.491,374.571z"/>
					<path style="opacity:0.21;" d="M21.337,403.376c3.168,1.531,6.225,3.29,9.357,4.89c-0.05-0.027-0.099-0.055-0.144-0.083       c0.449-0.649,0.883-1.316,1.32-1.973c-3.308-1.17-6.667-2.254-10.24-2.922C21.576,403.142,21.316,403.182,21.337,403.376z"/>
					<g>
						<path style="opacity:0.21;fill-rule:evenodd;clip-rule:evenodd;" d="M47.961,359.425c0.655,0.183,0.8,0.961,0.899,1.593        c0.139,0.947,0.064,2.185-0.092,3.257c-0.09,0.615-0.064,1.214-0.229,1.691c-0.286,0.833-0.892,1.28-1.505,0.978        c-0.48-0.234-0.622-0.932-0.639-1.595c-0.019-1.059,0.107-2.553,0.211-3.671C46.688,360.781,46.839,359.105,47.961,359.425z"/>
						<path style="opacity:0.21;fill-rule:evenodd;clip-rule:evenodd;" d="M51.363,365.287c0.861,0.283,0.577,1.475,0.296,2.379        c-0.078,0.264-0.213,0.505-0.305,0.792c-0.236,0.725-0.185,1.844-0.982,2.008c-0.227,0.05-0.487-0.051-0.617-0.131        c-0.641-0.401-0.291-1.479-0.076-2.397c0.097-0.407,0.201-0.841,0.348-1.328C50.265,365.832,50.618,365.046,51.363,365.287z"/>
						<path style="opacity:0.21;fill-rule:evenodd;clip-rule:evenodd;" d="M46.468,371.258c1.223,0.314,0.234,2.319-0.104,3.467        c-0.246,0.851-0.783,2.097-1.571,1.722c-0.705-0.346-0.291-1.531-0.038-2.383c0.128-0.428,0.246-0.906,0.381-1.309        C45.377,372.056,45.782,371.085,46.468,371.258z"/>
					</g>
					<g>
						<path style="fill-rule:evenodd;clip-rule:evenodd;fill:#FFFFFF;" d="M8.599,415.357c-0.556-0.132-0.629-0.7-0.717-1.23        c-0.069-0.407-0.111-0.94,0.175-1.262c0.409-0.445,1.017,0.134,1.19,0.618c0.055,0.158,0.104,0.586,0.121,0.812        C9.392,414.777,9.209,415.505,8.599,415.357z"/>
						<path style="fill-rule:evenodd;clip-rule:evenodd;fill:#FFFFFF;" d="M5.933,411.641c-0.712-0.21-0.781-0.922-0.774-1.527        c0.007-0.789,0.182-1.856,0.345-2.742c0.206-1.09,1.015-2.725,2.117-2.153c1.159,0.601,0.433,3.041,0.099,4.308        C7.482,410.451,6.964,411.938,5.933,411.641z"/>
					</g>
					<g>
						<path style="fill-rule:evenodd;clip-rule:evenodd;fill:#FFFFFF;" d="M139.243,368.716c0.312,0.485-0.031,1.066-0.322,1.525        c-0.447,0.69-1.188,1.44-1.893,2.043c-0.407,0.344-0.729,0.743-1.102,0.956c-0.653,0.374-1.292,0.318-1.517-0.217        c-0.172-0.423,0.128-0.952,0.49-1.385c0.584-0.692,1.507-1.582,2.203-2.241C137.665,368.868,138.701,367.875,139.243,368.716z        "/>
						<path style="fill-rule:evenodd;clip-rule:evenodd;fill:#FFFFFF;" d="M138.124,374.392c0.393,0.67-0.459,1.274-1.147,1.696        c-0.206,0.123-0.424,0.209-0.643,0.338c-0.561,0.33-1.155,1.081-1.755,0.736c-0.18-0.097-0.291-0.31-0.327-0.432        c-0.185-0.621,0.643-1.113,1.297-1.583c0.291-0.207,0.606-0.427,0.975-0.655C137.114,374.129,137.783,373.82,138.124,374.392z        "/>
						<path style="fill-rule:evenodd;clip-rule:evenodd;fill:#FFFFFF;" d="M131.615,375.473c0.611,0.89-1.157,1.618-2.016,2.167        c-0.643,0.408-1.692,0.906-1.98,0.224c-0.258-0.621,0.674-1.149,1.313-1.554c0.327-0.202,0.674-0.442,0.984-0.627        C130.468,375.37,131.272,374.971,131.615,375.473z"/>
					</g>
				</g>
			</g>
			<g>
				<g>
					<path style="fill-rule:evenodd;clip-rule:evenodd;fill:#FF5000;" d="M85.3,402.97c0.672,4.197,1.034,8.177-0.071,11.924       c-0.331,1.121-0.771,2.735-2.03,3.115c-1.68,0.509-3.362-2.052-4.673-4.257c-2.761-4.63-4.959-9.122-7.185-14.252       c-1.791-4.15-3.09-8.034-1.245-10.5c1.353-1.805,3.568-3.056,5.775-4.368c2.203-1.299,4.49-2.34,7.412-3.237       c2.127,3.218,4.538,7.7,6.485,12.232c2.688-1.346,4.422-0.243,5.955,2.465c0.523,0.926,1.171,2.588,0.868,3.231       C95.973,400.622,87.171,402.726,85.3,402.97z"/>
					<path style="fill:#FFFFFF;" d="M80.029,399.845c-1.256,3.631,0.187,8.84,3.755,12.179c0.456,0.428,1.114,1.021,1.796,1.418       c0.128-0.634,0.203-1.282,0.26-1.933c-0.232-0.135-0.454-0.275-0.646-0.44c-1.079-0.937-2.198-2.291-3.021-4.157       c-2.993-6.769,1.907-10.675,8.011-13.45c0.213-0.099,0.438-0.176,0.665-0.249c-0.343,0.095-0.7,0.225-1.079,0.414       c-0.215-0.501-0.438-1.001-0.665-1.502c-0.407,0.2-0.799,0.398-1.124,0.562C84.103,394.605,81.143,396.638,80.029,399.845z"/>
					<path style="fill:#FFFFFF;" d="M76.16,385.538c-0.144-0.243-0.312-0.518-0.509-0.776c-0.48,0.286-0.961,0.568-1.427,0.856       c0.187,0.198,0.393,0.393,0.525,0.618c2.529,4.159,0.618,7.231-2.139,9.297c-0.738,0.559-1.779,1.073-2.205,1.655       c0.156,0.413,0.319,0.829,0.492,1.249c0.982,0.057,2.645-1.424,3.35-2.028C77.296,393.82,78.992,390.156,76.16,385.538z"/>
					<path style="fill:#4D3D87;" d="M69.652,389.776c-1.131,2.461,0.071,5.98,1.689,9.723c2.227,5.13,4.424,9.622,7.185,14.252       c1.176,1.973,2.638,4.222,4.14,4.312L69.652,389.776z"/>
				</g>
				<g>
					<path style="fill:#4D3D87;" d="M94.721,403.35c-0.009,0.173-0.045,0.354-0.106,0.538c-0.135,0.419-0.471,0.73-1.013,0.902       c-1.98,0.646-6.523-0.578-7.919-1.453c-0.135-0.086-0.222-0.231-0.232-0.381c-0.009-0.155,0.062-0.299,0.185-0.378       c0.932-0.609,6.376-1.693,8.288-0.558C94.435,402.328,94.721,402.797,94.721,403.35L94.721,403.35 M87.034,403.021       c1.791,0.709,4.905,1.335,6.227,0.901c0.277-0.092,0.445-0.211,0.494-0.367c0.038-0.108,0.05-0.207,0.052-0.291l0,0       c0.002-0.153-0.033-0.312-0.308-0.476C92.261,402.055,88.745,402.542,87.034,403.021"/>
					<path style="fill:#4D3D87;" d="M93.652,407.577c-0.007,0.414-0.208,0.778-0.601,1.083c-0.341,0.267-0.802,0.329-1.379,0.181       c-2.094-0.527-5.477-3.946-6.248-5.387c-0.081-0.143-0.081-0.306,0-0.441c0.066-0.13,0.206-0.211,0.362-0.208       c1.065,0.009,5.496,1.643,7.162,3.351C93.42,406.644,93.661,407.117,93.652,407.577L93.652,407.577 M86.798,403.922       c1.216,1.529,3.632,3.684,5.042,4.043c0.288,0.072,0.497,0.062,0.625-0.028c0.187-0.151,0.279-0.299,0.284-0.441       c0.005-0.194-0.142-0.447-0.424-0.733C91.167,405.575,88.347,404.388,86.798,403.922"/>
					<polygon style="fill:#4D3D87;" points="88.068,409.818 86.251,403.17 85.385,403.352 87.2,410.001      "/>
				</g>
			</g>
			<g>
				<g>
					<path style="fill-rule:evenodd;clip-rule:evenodd;fill:#FF5000;" d="M47.635,451.235c-1.365,4.027-2.382,7.889-1.917,11.769       c0.137,1.163,0.303,2.826,1.483,3.41c1.571,0.782,3.655-1.462,5.316-3.419c3.492-4.107,6.407-8.17,9.459-12.857       c2.46-3.795,4.384-7.408,2.974-10.145c-1.029-2.006-3.012-3.608-4.966-5.271c-1.957-1.648-4.041-3.054-6.767-4.424       c-2.635,2.82-5.761,6.837-8.434,10.98c-2.43-1.774-4.325-0.978-6.282,1.438c-0.672,0.828-1.592,2.359-1.396,3.043       C37.499,447.143,45.832,450.685,47.635,451.235z"/>
					<path style="fill:#FFFFFF;" d="M53.35,449.032c0.639,3.791-1.656,8.685-5.725,11.381c-0.528,0.349-1.273,0.822-2.014,1.101       c-0.021-0.648,0.012-1.296,0.066-1.95c0.253-0.095,0.497-0.195,0.712-0.328c1.221-0.741,2.55-1.893,3.672-3.593       c4.079-6.18-0.104-10.845-5.662-14.598c-0.189-0.134-0.4-0.246-0.613-0.357c0.319,0.15,0.655,0.339,0.996,0.589       c0.296-0.459,0.596-0.914,0.906-1.371c0.367,0.266,0.719,0.525,1.017,0.744C50.206,443.186,52.79,445.683,53.35,449.032z"/>
					<path style="fill:#FFFFFF;" d="M59.547,435.57c0.187-0.215,0.397-0.458,0.632-0.679c0.426,0.361,0.852,0.718,1.266,1.079       c-0.222,0.163-0.454,0.323-0.625,0.523c-3.187,3.68-1.808,7.028,0.563,9.523c0.639,0.674,1.576,1.355,1.898,1.999       c-0.22,0.382-0.45,0.765-0.689,1.15c-0.979-0.108-2.373-1.843-2.972-2.558C57.048,443.548,55.986,439.652,59.547,435.57z"/>
					<path style="fill:#4D3D87;" d="M65.26,440.833c0.707,2.616-1.067,5.885-3.284,9.306c-3.052,4.687-5.967,8.749-9.459,12.857       c-1.491,1.748-3.308,3.723-4.803,3.56L65.26,440.833z"/>
				</g>
				<g>
					<path style="fill:#4D3D87;" d="M38.282,450.041L38.282,450.041c0.092-0.543,0.45-0.959,1.005-1.177       c2.077-0.803,7.263,1.175,8.077,1.93c0.109,0.098,0.156,0.253,0.118,0.403c-0.031,0.147-0.142,0.279-0.293,0.338       c-1.517,0.628-6.199,1.078-8.044,0.111c-0.502-0.259-0.788-0.621-0.852-1.059C38.265,450.396,38.261,450.213,38.282,450.041        M45.914,450.997c-1.606-0.756-4.992-1.825-6.338-1.306c-0.298,0.116-0.355,0.268-0.379,0.417l0,0       c-0.017,0.083-0.017,0.182,0,0.297c0.029,0.162,0.17,0.306,0.424,0.444C40.858,451.499,44.031,451.397,45.914,450.997"/>
					<path style="fill:#4D3D87;" d="M38.632,454.386L38.632,454.386c0.066-0.451,0.381-0.881,0.932-1.282       c1.928-1.409,6.566-2.282,7.618-2.111c0.156,0.025,0.277,0.125,0.324,0.265c0.052,0.147,0.026,0.306-0.074,0.434       c-1.003,1.294-4.904,4.103-7.062,4.273c-0.594,0.048-1.039-0.089-1.332-0.412C38.705,455.192,38.568,454.798,38.632,454.386        M46,451.924c-1.609,0.201-4.588,0.905-5.924,1.883c-0.329,0.234-0.511,0.458-0.537,0.652c-0.024,0.138,0.05,0.3,0.203,0.48       c0.111,0.11,0.315,0.156,0.613,0.134C41.802,454.953,44.542,453.231,46,451.924"/>
					<polygon style="fill:#4D3D87;" points="43.764,457.527 46.66,451.273 47.488,451.598 44.587,457.854      "/>
				</g>
			</g>
		</g>
		<g>
			<g>
				<g>
					<path style="fill-rule:evenodd;clip-rule:evenodd;fill:#FCD2C0;" d="M152.234,270.189c0.804-0.11,3.435-0.981,4.765-0.944       c0.52,0.014,1.124,0.186,1.221,0.637c0.187,0.946-1.947,1.447-2.669,1.721c-1.24,0.484-2.077,0.894-3.154,1.268       c0.939,0.002,3.48-0.855,5.117-0.9c0.682-0.022,1.479,0.092,1.564,0.676c0.116,0.75-1.588,1.356-2.151,1.581       c-2.73,1.071-5.759,2.294-7.749,3.584c-2.29,1.48-4.067,3.069-5.728,5.158c-0.405,0.505-1.05,1.76-1.685,1.871       c-0.296,0.05-1.027-0.286-1.285-0.452c-0.854-0.577-1.647-1.551-2.685-2.722c-0.393-0.446-0.816-0.871-1.238-1.499       c-0.345-0.509-1.017-1.318-1.074-1.612c-0.08-0.466,0.464-1.442,0.8-2.019c0.963-1.682,2.513-3.931,3.352-5.301       c0.722-1.184,1.488-2.433,2.165-3.584c0.648-1.093,2.749-4.682,4.247-4.027c1.233,0.543-1.214,3.782-1.446,4.812       c1.446-1.113,4.053-2.535,7.005-3.316c0.771-0.205,2.371-0.716,2.69-0.075c0.428,0.878-0.828,1.333-1.365,1.649       c-0.745,0.448-1.247,0.859-1.959,1.12c1.119-0.091,3.461-0.93,4.784-0.858c0.433,0.027,0.944,0.221,1.032,0.567       c0.189,0.811-1.103,1.107-1.907,1.461c-1.114,0.484-1.793,0.875-2.562,1.194C152.298,270.183,152.267,270.187,152.234,270.189z       "/>
					<path style="fill-rule:evenodd;clip-rule:evenodd;fill:#FF5000;" d="M138.249,274.194l-5.64,2.591       c-10.396,9.849-18.928,20.078-27.712,30.26c-9.248-9.391-17.683-18.834-26.662-25.237c-2.886-2.068-6.009-3.422-9.284-4.485       c0.277,1.784,4.488,29.288,5.562,30.23c-0.149-0.607,8.898,5.956,13.869,9.441c4.928,3.457,9.646,7.114,14.723,8.603       c3.274,0.96,6.831,0.929,10.916-2.209c3.62-2.784,6.639-6.925,9.632-10.644c6.573-8.177,13.271-17.639,19.517-26.21       l0.778-6.095L138.249,274.194z"/>
					<path style="fill:#FFFFFF;" d="M138.051,271.824c-1.876,1.645-3.674,3.305-5.432,4.971c3.499,3.336,7.043,6.464,10.554,9.74       c1.635-2.241,3.246-4.436,4.803-6.513C144.723,277.035,141.37,274.511,138.051,271.824z"/>
					<path style="opacity:0.22;" d="M102.543,314.178c1.183,0.133,2.139-3.941,2.413-7.207c-0.019,0.025-0.04,0.047-0.059,0.073       c-1.292-1.312-2.562-2.619-3.828-3.925C100.577,305.679,101.064,314.012,102.543,314.178z"/>
				</g>
				<g>
					<path style="fill-rule:evenodd;clip-rule:evenodd;fill:#FFFFFF;" d="M114.514,318.864c1.33,0.632-1.19,3.726-2.146,3.064       C111.382,321.244,113.492,318.375,114.514,318.864z"/>
					<path style="fill-rule:evenodd;clip-rule:evenodd;fill:#FFFFFF;" d="M109.536,320.494c0.379,0.965-0.719,2.783-1.874,3.729       c-0.409,0.338-0.946,0.612-1.384,0.208c-0.665-0.626,0.409-1.748,1.039-2.665C107.963,320.818,108.462,319.597,109.536,320.494       z"/>
				</g>
			</g>
			<g>
				<path style="fill-rule:evenodd;clip-rule:evenodd;fill:#FF5000;" d="M78.884,343.435c-15.407,3.723-36.894,6.297-52.774,3.911      c1.027-4.961,2.054-10.136,2.326-15.893c0.776-16.692-5.986-40.317,2.283-51.497c2.953-3.995,9.355-6.687,16.16-7.629      c2.264-0.311,4.992,0.03,7.504,0.274c2.366,0.231,4.722,0.483,6.786,0.931c5.456,1.189,10.278,4.306,12.901,8.021      c5.312,7.515,4.313,19.638,3.483,29.877c-0.405,5.029-1.048,10.376-0.802,15.793C77.005,332.771,77.928,338.234,78.884,343.435z      "/>
				<path style="opacity:0.22;fill-rule:evenodd;clip-rule:evenodd;" d="M78.884,343.435c-15.407,3.723-36.894,6.297-52.774,3.911      c1.027-4.961,2.054-10.136,2.326-15.893c0.776-16.692-5.986-40.317,2.283-51.497c2.953-3.995,9.355-6.687,16.16-7.629      c2.264-0.311,4.992,0.03,7.504,0.274c2.366,0.231,4.722,0.483,6.786,0.931c5.456,1.189,10.278,4.306,12.901,8.021      c5.312,7.515,4.313,19.638,3.483,29.877c-0.405,5.029-1.048,10.376-0.802,15.793C77.005,332.771,77.928,338.234,78.884,343.435z      "/>
				<g>
					<path style="fill-rule:evenodd;clip-rule:evenodd;fill:#FFFFFF;" d="M76.842,297.749c0.627-0.318,0.549-1.02,0.509-1.682       c-0.043-0.504-0.142-1.156-0.577-1.46c-0.613-0.418-1.178,0.454-1.247,1.083c-0.021,0.203,0.042,0.732,0.09,1.007       C75.73,297.281,76.158,298.101,76.842,297.749z"/>
					<path style="fill-rule:evenodd;clip-rule:evenodd;fill:#FFFFFF;" d="M78.962,292.533c0.797-0.453,0.667-1.326,0.49-2.049       c-0.241-0.943-0.75-2.171-1.204-3.182c-0.561-1.247-2.002-2.972-3.154-1.97c-1.206,1.052,0.357,3.769,1.121,5.185       C76.768,291.554,77.814,293.184,78.962,292.533z"/>
				</g>
			</g>
			<g>
				<g>
					<g>
						<path style="fill-rule:evenodd;clip-rule:evenodd;fill:#FCD2C0;" d="M54.446,279.225c-3.007-1.95-6.22-4.347-7.621-5.328        c1.604-7.39,3.473-14.655,4.852-21.942c0.469-2.531,0.62-5.429,1.748-7.514c4.76-8.774,15.194-7.999,20.924-2.847        c5.364,4.828,9.525,16.458,2.463,20.925c-1.614,1.023-4.514,1.539-8.631,0.393c-0.622,1.783-0.781,3.679-1.24,5.528        c-0.374,1.478-0.979,4.792-1.72,5.79c-1.119,1.512-1.599,4.394-2.612,6.209C60.044,279.394,57.24,278.966,54.446,279.225z"/>
						<path style="fill-rule:evenodd;clip-rule:evenodd;fill:#4D3D87;" d="M80.753,230.797c0.535,2.992-1.455,4.841-3.303,5.924        c0.525,0.395,2.392-0.374,2.229,0.48c-0.525,2.973-2.262,4.032-4.77,4.147c-5.177,0.252-12.904-3.608-14.006,2.678        c-0.388,2.195-0.097,8.581-1.547,8.832c-1.453,0.256-1.595-3.045-3.419-3.059c-0.899-0.006-1.642,0.79-1.791,1.595        c-0.433,2.533,1.592,3.219,3.265,3.226c0.282,1.996,0.871,4.895-0.468,6.086c-2.167,0.847-3.847-1.087-5.2-2.744        c-1.562-1.914-2.607-7.784-2.607-10.612c-0.031-3.583,2.134-6.653,5.674-7.191c0.258-7.275,6.532-8.027,13.729-8.444        c3.821-0.225,7.389-0.871,9.987-1.408C79.236,230.158,80.552,229.664,80.753,230.797z"/>
					</g>
					<g>
						<g>
							<g>
								<path style="fill-rule:evenodd;clip-rule:evenodd;fill:#FFFFFF;" d="M64.707,253.486c0.25-1.283,0.756-2.125,1.342-2.675          l2.528-0.337l-0.456,1.671c-0.13,0.143-0.275,0.287-0.438,0.43C66.548,253.587,64.707,253.486,64.707,253.486"/>
								<path style="fill-rule:evenodd;clip-rule:evenodd;fill:#4D3D87;" d="M69.216,249.834c0,0-1.784-0.309-3.166,0.978          c0.033,0.15,0.073,0.462,0.154,0.603c0.36,0.64,1.147,0.907,1.914,0.726C69.207,250.943,69.216,249.834,69.216,249.834"/>
							</g>
							<path style="fill:#4D3D87;" d="M68.31,248.095c-1.216,0.108-4.143,1.289-4.895,4.163l-0.932-0.239         c0.816-3.106,3.852-4.729,5.747-4.886L68.31,248.095z"/>
						</g>
						<g>
							<g>
								<path style="fill-rule:evenodd;clip-rule:evenodd;fill:#FFFFFF;" d="M73.198,247.457c0.234-1.19,0.704-1.971,1.249-2.482          l2.306-0.278l-0.384,1.514c-0.121,0.134-0.256,0.27-0.408,0.405C74.906,247.553,73.198,247.457,73.198,247.457"/>
								<path style="fill-rule:evenodd;clip-rule:evenodd;fill:#4D3D87;" d="M77.388,244.062c0,0-1.656-0.286-2.941,0.913          c0.031,0.144,0.071,0.432,0.147,0.564c0.338,0.594,1.062,0.838,1.774,0.671C77.374,245.095,77.388,244.062,77.388,244.062"/>
							</g>
							<path style="fill:#4D3D87;" d="M76.544,242.489c-1.117,0.095-3.814,1.195-4.507,3.842l-0.939-0.247         c0.764-2.895,3.596-4.413,5.368-4.558L76.544,242.489z"/>
						</g>
						<g>
							<path style="opacity:0.13;fill-rule:evenodd;clip-rule:evenodd;" d="M68.182,262.912l-1.084,4.873         c-4.247-2.813-5.366-7.766-5.366-7.766S64.16,261.75,68.182,262.912z"/>
							<g>
								<path style="opacity:0.13;fill-rule:evenodd;clip-rule:evenodd;" d="M71.36,247.529c0.376-0.341,3.901,2.966,4.044,3.44          c0.182,0.608-1.507,1.988-1.775,1.852C72.867,252.449,70.775,248.045,71.36,247.529"/>
								<path style="opacity:0.13;" d="M77.959,255.774c-1.98,1.925-4.845,1.307-6.658-0.08l0.584-0.768          c1.495,1.144,3.823,1.683,5.411,0.156L77.959,255.774z"/>
								<path style="opacity:0.13;" d="M68.173,254.83c1.226,0.611,1.732,2.102,1.124,3.326c-0.608,1.236-2.096,1.737-3.327,1.133          c-1.23-0.612-1.739-2.097-1.131-3.33C65.45,254.726,66.94,254.224,68.173,254.83"/>
								<path style="opacity:0.13;" d="M78.067,252.303c-1.235-0.613-1.741-2.102-1.131-3.331c0.357-0.724,1.022-1.193,1.758-1.334          c0.71,1.499,1.259,3.08,1.566,4.656C79.596,252.625,78.794,252.656,78.067,252.303z"/>
							</g>
						</g>
					</g>
				</g>
				<g>
					<path style="fill-rule:evenodd;clip-rule:evenodd;fill:#EFAD1B;" d="M48.152,290.341c2.941,0.621,12.558-8.908,12.156-10.971       c-0.428-2.209-9.123-13.628-10.774-13.98c-2.505-0.133-2.628,3.525-2.91,5.94c-0.48,4.087-0.447,8.371-0.194,12.719       C46.56,286.438,46.156,289.92,48.152,290.341z"/>
					<path style="fill-rule:evenodd;clip-rule:evenodd;fill:#EFAD1B;" d="M59.833,279.149c1.465,2.807,9.35,11.618,11.127,10.662       c1.864-1.014-2.046-16.631-4.483-18.5C64.033,272.456,60.346,276.449,59.833,279.149z"/>
				</g>
			</g>
			<g>
				<g>
					<g>
						<path style="fill-rule:evenodd;clip-rule:evenodd;fill:#FCD2C0;" d="M60.661,356.69c0.317,0.745,1.848,3.038,2.165,4.329        c0.123,0.498,0.123,1.126-0.291,1.333c-0.859,0.433-1.902-1.483-2.361-2.102c-0.785-1.069-1.403-1.765-2.044-2.695        c0.244,0.902,1.746,3.113,2.217,4.681c0.197,0.65,0.303,1.44-0.239,1.679c-0.681,0.31-1.718-1.168-2.087-1.654        c-1.748-2.333-3.722-4.926-5.487-6.496c-2.025-1.805-4.022-3.092-6.471-4.133c-0.594-0.253-1.966-0.545-2.238-1.125        c-0.13-0.273,0.002-1.062,0.097-1.346c0.319-0.982,1.05-1.999,1.9-3.304c0.324-0.502,0.625-1.013,1.114-1.584        c0.4-0.465,0.996-1.329,1.266-1.458c0.417-0.201,1.505,0.064,2.146,0.231c1.874,0.485,4.443,1.375,5.976,1.816        c1.334,0.386,2.73,0.789,4.017,1.139c1.218,0.332,5.221,1.397,4.985,3.013c-0.189,1.326-3.951-0.168-5.002-0.116        c1.45,1.091,3.509,3.221,5.037,5.845c0.4,0.691,1.316,2.098,0.781,2.568c-0.724,0.65-1.498-0.444-1.947-0.871        c-0.625-0.596-1.143-0.976-1.588-1.583c0.381,1.044,1.812,3.07,2.087,4.363c0.09,0.42,0.041,0.965-0.272,1.137        c-0.731,0.4-1.353-0.763-1.907-1.448c-0.757-0.932-1.313-1.485-1.822-2.14C60.685,356.745,60.671,356.719,60.661,356.69z"/>
						<path style="fill-rule:evenodd;clip-rule:evenodd;fill:#FF5000;" d="M20.069,328.924c7.757,3.262,15.827,6.165,23.524,9.495        l3.033,3.871l-2.017,8.357l-5.62,1.279c-6.509-0.87-12.472-2.1-18.163-4.409c-3.601-1.461-20.998-8.887-20.825-16.974        c0.126-5.742,3.237-12.66,5.286-17.311c2.378-5.384,4.81-9.639,8.044-14.891c2.893-4.701,5.917-9.194,9.663-13.468        c3.691-4.204,7.98-8.165,13.885-9.62c5.371-1.319,9.395,1.674,9.222,7.804c-0.123,4.499-2.652,9.355-4.639,13.138        c-5.285,10.07-13.001,20.118-19.114,29.244C21.56,326.616,20.795,327.778,20.069,328.924z"/>
					</g>
					<g>
						<path style="fill-rule:evenodd;clip-rule:evenodd;fill:#FFFFFF;" d="M9.557,338.797c-0.488,1.387-3.833-0.796-3.272-1.817        C6.865,335.928,9.936,337.727,9.557,338.797z"/>
						<path style="fill-rule:evenodd;clip-rule:evenodd;fill:#FFFFFF;" d="M7.418,334.015c-0.923,0.476-2.841-0.422-3.911-1.475        c-0.374-0.375-0.705-0.879-0.348-1.353c0.554-0.731,1.779,0.224,2.761,0.751C6.926,332.482,8.197,332.846,7.418,334.015z"/>
					</g>
				</g>
				<path style="fill:#FFFFFF;" d="M50.23,341.467c-2.167-1.064-4.389-2.068-6.639-3.043l-4.602,13.499      c2.295,0.306,4.647,0.57,7.086,0.819C47.414,348.942,48.829,345.211,50.23,341.467z"/>
			</g>
		</g>
	</g>
</g>















</svg>
