<svg width="18" height="18" viewBox="0 0 18 18" fill="none" xmlns="http://www.w3.org/2000/svg">
<g clip-path="url(#clip0)">
<path d="M6.5625 13.209V16.6875C6.5625 16.9305 6.7185 17.1457 6.9495 17.2222C7.00725 17.241 7.0665 17.25 7.125 17.25C7.3005 17.25 7.47 17.1675 7.578 17.0205L9.61275 14.2515L6.5625 13.209Z" fill="#57078E"/>
<path d="M17.7633 0.103584C17.5908 -0.018666 17.3643 -0.035166 17.1768 0.063084L0.301795 8.87558C0.102295 8.97983 -0.0154549 9.19283 0.00104508 9.41708C0.0182951 9.64208 0.167545 9.83408 0.379795 9.90683L5.07105 11.5103L15.0618 2.96783L7.3308 12.2821L15.193 14.9693C15.2515 14.9888 15.313 14.9993 15.3745 14.9993C15.4765 14.9993 15.5778 14.9716 15.667 14.9176C15.8095 14.8306 15.9063 14.6843 15.931 14.5201L17.9935 0.645084C18.0243 0.435084 17.9358 0.226584 17.7633 0.103584Z" fill="#57078E"/>
</g>
<defs>
<clipPath id="clip0">
<rect width="18" height="18" fill="white"/>
</clipPath>
</defs>
</svg>
