<svg id="Capa_1" data-name="Capa 1" xmlns="http://www.w3.org/2000/svg" xmlns:xlink="http://www.w3.org/1999/xlink" viewBox="0 0 359.19 60"><defs><style>.cls-1{fill:url(#Nueva_muestra_de_degradado_4);}.cls-2{clip-path:url(#clip-path);}.cls-3{fill:url(#Nueva_muestra_de_degradado_4-3);}.cls-4{fill:url(#Nueva_muestra_de_degradado_4-4);}.cls-5{fill:url(#Nueva_muestra_de_degradado_4-5);}.cls-6{fill:url(#Nueva_muestra_de_degradado_4-6);}.cls-7{fill:url(#Nueva_muestra_de_degradado_4-7);}.cls-8{fill:url(#Nueva_muestra_de_degradado_4-8);}.cls-9{fill:url(#Nueva_muestra_de_degradado_4-9);}.cls-10{fill:url(#Nueva_muestra_de_degradado_4-10);}.cls-11{fill:url(#Nueva_muestra_de_degradado_4-11);}.cls-12{fill:url(#Nueva_muestra_de_degradado_4-12);}.cls-13{fill:url(#Nueva_muestra_de_degradado_4-13);}.cls-14{fill:url(#Nueva_muestra_de_degradado_4-14);}.cls-15{fill:url(#Nueva_muestra_de_degradado_4-15);}.cls-16{fill:url(#Nueva_muestra_de_degradado_4-16);}</style><linearGradient id="Nueva_muestra_de_degradado_4" x1="-135.74" y1="13.72" x2="387.08" y2="19.64" gradientUnits="userSpaceOnUse"><stop offset="0" stop-color="#350268"/><stop offset="1" stop-color="#24d9dd"/></linearGradient><clipPath id="clip-path"><polygon class="cls-1" points="324.92 4.63 324.92 9.27 349.49 9.27 349.49 33.84 354.13 33.84 354.13 4.63 324.92 4.63"/></clipPath><linearGradient id="Nueva_muestra_de_degradado_4-3" x1="-135.74" y1="13.86" x2="387.02" y2="19.78" gradientTransform="translate(130.98 -249.38) rotate(48.93)" xlink:href="#Nueva_muestra_de_degradado_4"/><linearGradient id="Nueva_muestra_de_degradado_4-4" x1="-135.91" y1="29.24" x2="386.91" y2="35.15" xlink:href="#Nueva_muestra_de_degradado_4"/><linearGradient id="Nueva_muestra_de_degradado_4-5" x1="-135.9" y1="27.98" x2="386.92" y2="33.89" xlink:href="#Nueva_muestra_de_degradado_4"/><linearGradient id="Nueva_muestra_de_degradado_4-6" x1="-136.01" y1="37.81" x2="386.81" y2="43.72" xlink:href="#Nueva_muestra_de_degradado_4"/><linearGradient id="Nueva_muestra_de_degradado_4-7" x1="-135.9" y1="27.86" x2="386.92" y2="33.77" xlink:href="#Nueva_muestra_de_degradado_4"/><linearGradient id="Nueva_muestra_de_degradado_4-8" x1="-135.95" y1="32.57" x2="386.87" y2="38.48" xlink:href="#Nueva_muestra_de_degradado_4"/><linearGradient id="Nueva_muestra_de_degradado_4-9" x1="-135.9" y1="27.64" x2="386.92" y2="33.55" xlink:href="#Nueva_muestra_de_degradado_4"/><linearGradient id="Nueva_muestra_de_degradado_4-10" x1="-135.9" y1="27.62" x2="386.92" y2="33.53" xlink:href="#Nueva_muestra_de_degradado_4"/><linearGradient id="Nueva_muestra_de_degradado_4-11" x1="-135.94" y1="31.52" x2="386.88" y2="37.43" xlink:href="#Nueva_muestra_de_degradado_4"/><linearGradient id="Nueva_muestra_de_degradado_4-12" x1="-135.94" y1="31.25" x2="386.88" y2="37.17" xlink:href="#Nueva_muestra_de_degradado_4"/><linearGradient id="Nueva_muestra_de_degradado_4-13" x1="-135.88" y1="26.26" x2="386.94" y2="32.17" xlink:href="#Nueva_muestra_de_degradado_4"/><linearGradient id="Nueva_muestra_de_degradado_4-14" x1="-135.93" y1="30.68" x2="386.89" y2="36.59" xlink:href="#Nueva_muestra_de_degradado_4"/><linearGradient id="Nueva_muestra_de_degradado_4-15" x1="-135.92" y1="30.13" x2="386.9" y2="36.04" xlink:href="#Nueva_muestra_de_degradado_4"/><linearGradient id="Nueva_muestra_de_degradado_4-16" x1="-135.98" y1="34.81" x2="386.84" y2="40.72" xlink:href="#Nueva_muestra_de_degradado_4"/></defs><title>diglabacademy</title><polygon class="cls-1" points="324.92 4.63 324.92 9.27 349.49 9.27 349.49 33.84 354.13 33.84 354.13 4.63 324.92 4.63"/><g class="cls-2"><rect class="cls-3" x="318.92" y="-1.36" width="41.21" height="41.21" transform="translate(101.97 262.58) rotate(-48.93)"/></g><path class="cls-4" d="M31.34,30.77C31.34,39,24.78,45.19,16,45.19h-11V16.6H16C24.78,16.6,31.34,22.69,31.34,30.77Zm-5.81,0c0-4.92-4.24-8.87-9.5-8.87H10.78v18H16A9.28,9.28,0,0,0,25.53,30.77Z"/><path class="cls-5" d="M36.21,18a3.37,3.37,0,1,1,3.36,3.24A3.25,3.25,0,0,1,36.21,18Zm6.14,7.15V45.19H36.84V25.13Z"/><path class="cls-6" d="M68.54,25.13V45.32c0,6.26-4.29,10-10.26,10-5.76,0-10-3.57-10.47-8.61h5.6c.25,2.14,2,3.61,4.87,3.61,2.7,0,4.76-1.77,4.76-5V42.75a10.56,10.56,0,0,1-5.76,1.6,9.94,9.94,0,0,1-10-9.67,9.73,9.73,0,0,1,10-10A10.56,10.56,0,0,1,63,26.23v-1.1ZM63,37.07V31.9a5.69,5.69,0,0,0-4.92-2.52,5,5,0,0,0-5.34,5.3,5.25,5.25,0,0,0,5.34,4.92A5.67,5.67,0,0,0,63,37.07Z"/><path class="cls-7" d="M79.35,15.34V45.19H73.84V15.34Z"/><path class="cls-8" d="M104.74,25.13V45.19H99.23V44.05a10.52,10.52,0,0,1-5.76,1.64,10.25,10.25,0,0,1-10-10.51,10.26,10.26,0,0,1,10-10.55,10.52,10.52,0,0,1,5.76,1.64V25.13ZM99.23,38.34V32a5.6,5.6,0,0,0-4.92-2.36A5.34,5.34,0,0,0,89,35.18a5.33,5.33,0,0,0,5.34,5.51A5.59,5.59,0,0,0,99.23,38.34Z"/><path class="cls-9" d="M131.31,35.14a10.26,10.26,0,0,1-10,10.55,10.52,10.52,0,0,1-5.76-1.64v1.14H110V15.34h5.51V26.27a10.52,10.52,0,0,1,5.76-1.64A10.25,10.25,0,0,1,131.31,35.14Zm-5.5,0a5.33,5.33,0,0,0-5.34-5.51A5.6,5.6,0,0,0,115.55,32v6.35a5.59,5.59,0,0,0,4.92,2.35A5.34,5.34,0,0,0,125.81,35.14Z"/><path class="cls-10" d="M166.34,39.47H153.17l-2.35,5.72h-6.14l12.4-28.59h5.34l12.37,28.59h-6.1Zm-2.11-5.09-4.5-10.93-4.5,10.93Z"/><path class="cls-11" d="M190.59,37.45h5.64c-.63,4.84-4.84,8.24-10,8.24a10.53,10.53,0,1,1,0-21.06c5.17,0,9.38,3.45,10,8.28h-5.64a4.24,4.24,0,0,0-4.37-3.28c-3.15,0-5.17,2.48-5.17,5.55s2,5.51,5.17,5.51A4.2,4.2,0,0,0,190.59,37.45Z"/><path class="cls-12" d="M220.86,25.13V45.19h-5.5V44.05a10.57,10.57,0,0,1-5.76,1.64,10.26,10.26,0,0,1-10-10.51,10.27,10.27,0,0,1,10-10.55,10.57,10.57,0,0,1,5.76,1.64V25.13Zm-5.5,13.21V32a5.61,5.61,0,0,0-4.92-2.36,5.34,5.34,0,0,0-5.34,5.55,5.33,5.33,0,0,0,5.34,5.51A5.6,5.6,0,0,0,215.36,38.34Z"/><path class="cls-13" d="M246.05,15.34V45.19h-5.51V44.05a10.52,10.52,0,0,1-5.76,1.64,10.27,10.27,0,0,1-10-10.55,10.26,10.26,0,0,1,10-10.51,10.52,10.52,0,0,1,5.76,1.64V15.34Zm-5.51,23V32a5.6,5.6,0,0,0-4.92-2.36,5.33,5.33,0,0,0-5.34,5.51,5.34,5.34,0,0,0,5.34,5.55A5.59,5.59,0,0,0,240.54,38.34Z"/><path class="cls-14" d="M270.52,36.78H255.8c.42,2.31,1.94,4.08,5.09,4.08,1.47,0,2.48-.25,3.19-1.14h6.1c-1.34,3.79-4.92,6-9.33,6-6.44,0-10.68-4.54-10.68-10.51s4.2-10.55,10.34-10.55C267.41,24.63,271.57,29.84,270.52,36.78ZM255.93,33h9.12c-.29-2.57-1.93-3.74-4.5-3.74A4.47,4.47,0,0,0,255.93,33Z"/><path class="cls-15" d="M307.77,34.05V45.19h-5.51V34.05c0-3.11-1.64-4.42-4.08-4.42a5.4,5.4,0,0,0-4.37,2.1,15.55,15.55,0,0,1,.13,2V45.19h-5.51V33.71c0-3.07-1.64-4.08-3.74-4.08A5.54,5.54,0,0,0,280.1,32v13.2h-5.51V25.13h5.51v1.35a7.61,7.61,0,0,1,5.3-1.85,8.29,8.29,0,0,1,6.39,2.52,9.82,9.82,0,0,1,6.77-2.52C304,24.63,307.77,28,307.77,34.05Z"/><path class="cls-16" d="M334.21,25.09,321.39,54.94h-5.8l4.2-9.84-10.09-20h5.89l6.77,14.13,6.05-14.13Z"/></svg>