<svg width="18" height="18" viewBox="0 0 18 18" fill="none" xmlns="http://www.w3.org/2000/svg">
<g clip-path="url(#clip0)">
<path d="M17.6979 8.19393L14.9699 5.46594V2.31465C14.9699 1.74486 14.5081 1.28308 13.9375 1.28308C13.3682 1.28308 12.9064 1.74486 12.9064 2.31465V3.40254L10.8752 1.37127C9.87099 0.367565 8.12494 0.369345 7.12298 1.37308L0.301994 8.19393C-0.100665 8.59739 -0.100665 9.25021 0.301994 9.65305C0.704833 10.0564 1.35893 10.0564 1.76162 9.65305L8.58195 2.83202C8.80414 2.611 9.19575 2.611 9.41677 2.83137L16.2383 9.65305C16.4405 9.85474 16.7043 9.95506 16.9679 9.95506C17.2321 9.95506 17.4962 9.85463 17.6979 9.65305C18.1007 9.25024 18.1007 8.59742 17.6979 8.19393Z" fill="#272343"/>
<path d="M9.35846 4.79021C9.16029 4.59215 8.83942 4.59215 8.64184 4.79021L2.64208 10.7882C2.54735 10.8829 2.49365 11.0122 2.49365 11.1471V15.5218C2.49365 16.5483 3.326 17.3806 4.35252 17.3806H7.32301V12.7803H10.6766V17.3806H13.6472C14.6736 17.3806 15.506 16.5483 15.506 15.5218V11.1471C15.506 11.0122 15.4528 10.8829 15.3576 10.7882L9.35846 4.79021Z" fill="#272343"/>
</g>
<defs>
<clipPath id="clip0">
<rect width="18" height="18" fill="white"/>
</clipPath>
</defs>
</svg>
