<svg width="24" height="24" viewBox="0 0 24 24" fill="none" xmlns="http://www.w3.org/2000/svg">
<path d="M0 22.0175H14.1183V24H0V22.0175Z" fill="#272343"/>
<path d="M12.1013 20.0189C12.1013 19.756 11.9951 19.5038 11.806 19.3179C11.6169 19.132 11.3603 19.0276 11.0929 19.0276H3.0253C2.75784 19.0276 2.50133 19.132 2.31221 19.3179C2.12309 19.5038 2.01685 19.756 2.01685 20.0189V21.0262H12.1013V20.0189Z" fill="#272343"/>
<path d="M13.7216 11.9142C13.2517 12.4065 12.8576 12.9637 12.552 13.5682L20.8525 21.7273C21.0417 21.9131 21.2981 22.0175 21.5655 22.0175C21.8329 22.0175 22.0894 21.9131 22.2785 21.7273L23.7047 20.3254C23.7983 20.2333 23.8726 20.1241 23.9233 20.0038C23.974 19.8835 24.0001 19.7546 24.0001 19.6244C24.0001 19.4943 23.974 19.3653 23.9233 19.2451C23.8726 19.1248 23.7983 19.0155 23.7047 18.9235L15.4041 10.7666C14.7881 11.0644 14.221 11.4512 13.7216 11.9142Z" fill="#272343"/>
<path d="M8.72989 7.00771C7.96728 7.70337 7.08449 8.25968 6.12305 8.65048L11.3352 13.7738C11.7364 12.8304 12.3029 11.9635 13.009 11.2127C13.7717 10.517 14.6544 9.96064 15.6158 9.56963L10.4034 4.44727C10.0021 5.39035 9.43571 6.25695 8.72989 7.00771Z" fill="#272343"/>
<path d="M12.2937 0.700809L10.8678 2.10246C10.474 2.48951 10.474 3.11705 10.8678 3.50411L16.5715 9.11071C16.9653 9.49776 17.6037 9.49776 17.9975 9.11071L19.4234 7.70906C19.8172 7.322 19.8172 6.69446 19.4234 6.30741L13.7197 0.700809C13.3259 0.313754 12.6875 0.313754 12.2937 0.700809Z" fill="#272343"/>
<path d="M3.73658 9.11035L2.31063 10.512C1.91687 10.8991 1.91687 11.5266 2.31063 11.9137L8.01442 17.5203C8.40818 17.9073 9.0466 17.9073 9.44037 17.5203L10.8663 16.1186C11.2601 15.7315 11.2601 15.104 10.8663 14.717L5.16252 9.11036C4.76876 8.7233 4.13034 8.7233 3.73658 9.11035Z" fill="#272343"/>
</svg>
