<svg width="20" height="18" viewBox="0 0 20 18" fill="none" xmlns="http://www.w3.org/2000/svg">
<path d="M13.4959 15.1485V16.465C13.4959 16.6601 13.3523 16.8868 13.174 16.9662C12.4831 17.2735 10.5987 17.9028 6.74797 17.9028C2.8972 17.9028 1.01276 17.2735 0.321894 16.9662C0.143643 16.8868 0 16.66 0 16.4649V15.1485C0 13.1758 1.50199 11.5392 3.41854 11.3201C3.47677 11.3134 3.56312 11.3383 3.61059 11.3727C4.49426 12.0124 5.57611 12.3942 6.748 12.3942C7.91993 12.3942 9.00175 12.0124 9.88541 11.3727C9.93288 11.3383 10.0193 11.3134 10.0775 11.3201C11.994 11.5392 13.4959 13.1758 13.4959 15.1485ZM2.75427 7.0234C2.75427 4.81774 4.54232 3.0297 6.74797 3.0297C8.95363 3.0297 10.7417 4.81774 10.7417 7.0234C10.7417 9.22902 8.95363 11.0171 6.74797 11.0171C4.54232 11.0171 2.75427 9.22902 2.75427 7.0234ZM4.85838 8.60847C5.04006 9.20916 5.81829 9.66073 6.75102 9.66073C7.68374 9.66073 8.462 9.20916 8.64369 8.60847H4.85838ZM19.0045 0H12.3942C11.9398 0 11.568 0.371827 11.568 0.826282V4.69053C11.568 5.14045 11.9361 5.50855 12.386 5.50855H12.3942V6.61026C12.3942 6.83721 12.6533 6.96679 12.8349 6.8306L14.5242 5.56363C14.5646 5.53334 14.639 5.50855 14.6895 5.50855H19.0045C19.4589 5.50855 19.8307 5.13672 19.8307 4.68227V0.826282C19.8308 0.371827 19.4589 0 19.0045 0Z" fill="#57078E"/>
</svg>
