<svg width="18" height="18" viewBox="0 0 18 18" fill="none" xmlns="http://www.w3.org/2000/svg">
<path d="M8.99988 8.60871C10.5127 8.60871 11.739 7.38236 11.739 5.86957C11.739 4.35679 10.5127 3.13043 8.99988 3.13043C7.4871 3.13043 6.26074 4.35679 6.26074 5.86957C6.26074 7.38236 7.4871 8.60871 8.99988 8.60871Z" fill="#272343"/>
<path d="M14.478 10.1739C15.5585 10.1739 16.4345 9.29793 16.4345 8.21737C16.4345 7.13682 15.5585 6.26086 14.478 6.26086C13.3974 6.26086 12.5215 7.13682 12.5215 8.21737C12.5215 9.29793 13.3974 10.1739 14.478 10.1739Z" fill="#272343"/>
<path d="M3.57736 10.1739C4.65791 10.1739 5.53387 9.29793 5.53387 8.21737C5.53387 7.13682 4.65791 6.26086 3.57736 6.26086C2.49681 6.26086 1.62085 7.13682 1.62085 8.21737C1.62085 9.29793 2.49681 10.1739 3.57736 10.1739Z" fill="#272343"/>
<path d="M9.00005 9.3913C6.19517 9.3913 3.91309 11.6734 3.91309 14.4783C3.91309 14.6943 4.0884 14.8696 4.3044 14.8696H13.6957C13.9117 14.8696 14.087 14.6943 14.087 14.4783C14.087 11.6734 11.8049 9.3913 9.00005 9.3913Z" fill="#272343"/>
<path d="M4.25191 11.0411C4.01243 10.9902 3.76903 10.9565 3.52174 10.9565C1.58009 10.9565 0 12.5366 0 14.4783C0 14.6943 0.175316 14.8696 0.391316 14.8696H3.20243C3.15859 14.7467 3.13042 14.616 3.13042 14.4783C3.13042 13.194 3.54991 12.0084 4.25191 11.0411Z" fill="#272343"/>
<path d="M14.4782 10.9565C14.2309 10.9565 13.9875 10.9902 13.748 11.0411C14.45 12.0084 14.8695 13.194 14.8695 14.4783C14.8695 14.616 14.8414 14.7467 14.7975 14.8696H17.6086C17.8246 14.8696 18 14.6943 18 14.4783C18 12.5366 16.4199 10.9565 14.4782 10.9565Z" fill="#272343"/>
</svg>
